<?xml version="1.0" encoding="UTF-8"?>
<svg version="1.1" xmlns="http://www.w3.org/2000/svg" width="256" height="256">
<path d="M0 0 C1.72573242 -0.0299707 1.72573242 -0.0299707 3.48632812 -0.06054688 C18.30090918 -0.05215334 30.5270169 5.94528955 41.20703125 15.99609375 C50.02247514 25.13316246 55.81040046 36.65180781 56.5625 49.4375 C55.9025 49.4375 55.2425 49.4375 54.5625 49.4375 C54.8925 50.613125 55.2225 51.78875 55.5625 53 C56.60469254 57.46653947 56.54188976 61.55131853 56.375 66.125 C56.1373561 72.1592249 56.1373561 72.1592249 59 77.1875 C59.845625 77.93 60.69125 78.6725 61.5625 79.4375 C63.70741174 85.87223523 63.45880221 93.16552852 60.875 99.4375 C59.01522168 103.02654587 57.22544692 105.51881352 53.5625 107.4375 C50.47574488 107.25592617 48.31885635 106.81567818 45.5625 105.4375 C45.40974609 106.93023437 45.40974609 106.93023437 45.25390625 108.453125 C44.64437164 112.67216457 43.22788288 116.30980387 41.5 120.1875 C41.03581665 121.23248657 41.03581665 121.23248657 40.56225586 122.29858398 C36.24406514 131.67248087 30.27890006 140.61435878 21.5625 146.4375 C19.328125 147.1171875 19.328125 147.1171875 17.5625 147.4375 C17.3076695 154.9549996 18.20665317 162.04467092 19.5625 169.4375 C19.64628906 170.18386719 19.73007813 170.93023437 19.81640625 171.69921875 C20.42583372 173.67549077 20.42583372 173.67549077 22.72827148 174.34155273 C24.1312146 174.88404663 24.1312146 174.88404663 25.5625 175.4375 C27.60844946 176.50082808 29.63845328 177.59510947 31.65625 178.7109375 C32.52544571 179.19038567 32.52544571 179.19038567 33.41220093 179.67951965 C35.29737605 180.7207324 37.18002857 181.76640813 39.0625 182.8125 C40.37772665 183.54084422 41.69299396 184.26911502 43.00830078 184.99731445 C51.3487757 189.62140298 59.66537174 194.2863479 67.9206543 199.0612793 C72.47387033 201.69265147 77.05349591 204.25592449 81.68359375 206.75 C82.71564941 207.31307861 83.74770508 207.87615723 84.81103516 208.45629883 C86.78337833 209.53047935 88.76306331 210.59134253 90.75146484 211.63549805 C102.16226468 217.8946424 108.21719832 226.73971563 112.8125 238.6875 C113.97847965 244.51739826 114.13891114 250.50725593 114.5625 256.4375 C38.0025 256.4375 -38.5575 256.4375 -117.4375 256.4375 C-116.32421895 240.85156535 -114.4078479 228.93352157 -102.92578125 218.05859375 C-98.3586652 214.38378048 -93.12634037 211.7391411 -88 208.9375 C-85.74322602 207.68927848 -83.48672136 206.44056993 -81.23046875 205.19140625 C-80.09270996 204.56379395 -78.95495117 203.93618164 -77.78271484 203.28955078 C-72.77442761 200.5167536 -67.79280743 197.6976489 -62.8125 194.875 C-61.88590576 194.35123779 -60.95931152 193.82747559 -60.00463867 193.2878418 C-55.0186751 190.46927517 -50.03823242 187.64127767 -45.0625 184.8046875 C-44.01658691 184.20986572 -42.97067383 183.61504395 -41.89306641 183.00219727 C-39.88863373 181.86209477 -37.88562454 180.71948474 -35.88427734 179.57397461 C-34.53003662 178.80452515 -34.53003662 178.80452515 -33.1484375 178.01953125 C-31.96193604 177.34241089 -31.96193604 177.34241089 -30.75146484 176.65161133 C-28.4375 175.4375 -28.4375 175.4375 -25.72119141 174.4909668 C-24.96757324 174.14332275 -24.21395508 173.79567871 -23.4375 173.4375 C-20.93141713 166.54577212 -18.55665558 155.31951722 -21.4375 148.4375 C-23.52990181 146.83286942 -25.72660408 145.48480665 -27.96875 144.09765625 C-40.17384557 135.89011572 -46.09721219 119.91523582 -50.4375 106.4375 C-51.30375 106.705625 -52.17 106.97375 -53.0625 107.25 C-56.4375 107.4375 -56.4375 107.4375 -59.625 105.5 C-64.67491517 100.64890039 -65.61001947 95.12090785 -65.8125 88.3125 C-65.65629157 82.11883577 -63.82973625 78.52585437 -60.4375 73.4375 C-60.21039369 71.09843414 -60.21039369 71.09843414 -60.34765625 68.5 C-60.37762695 67.03240234 -60.37762695 67.03240234 -60.40820312 65.53515625 C-60.46847938 63.50115328 -60.53343402 61.46728249 -60.60351562 59.43359375 C-60.84696552 46.55593389 -57.06206734 33.81136785 -48.3125 24.08203125 C-45.97825879 22.03470719 -43.47395696 20.53366634 -40.8125 18.9375 C-36.19107564 16.16585166 -36.19107564 16.16585166 -33.25 11.8125 C-30.16886591 6.07521583 -25.04670954 3.80929734 -19.00390625 1.82421875 C-12.68824375 -0.00100306 -6.53464076 -0.04013459 0 0 Z " fill="#F7C3B7" transform="translate(129.4375,-0.4375)"/>
<path d="M0 0 C3.19993103 0.75499595 6.21783954 1.73170706 9.3203125 2.81640625 C19.40614228 5.96033954 28.37248461 5.63321147 38.1953125 1.75390625 C38.845 1.36976563 39.4946875 0.985625 40.1640625 0.58984375 C42.89724753 -0.53496701 44.35970474 0.00868734 47.1953125 0.75390625 C49.32568359 1.76269531 49.32568359 1.76269531 51.46875 3.01953125 C52.28134277 3.49060303 53.09393555 3.9616748 53.93115234 4.44702148 C54.8020752 4.96079346 55.67299805 5.47456543 56.5703125 6.00390625 C58.46577175 7.104811 60.36161865 8.20504852 62.2578125 9.3046875 C63.2375 9.87525879 64.2171875 10.44583008 65.2265625 11.03369141 C69.98604986 13.79153252 74.77814685 16.49088286 79.5703125 19.19140625 C80.51519531 19.72548096 81.46007812 20.25955566 82.43359375 20.80981445 C87.4317759 23.63481879 92.43535933 26.44982798 97.4453125 29.25390625 C98.98372803 30.11737671 98.98372803 30.11737671 100.55322266 30.99829102 C102.49914763 32.09029536 104.4466278 33.17953522 106.39599609 34.26538086 C120.77989097 42.3476979 129.40655679 49.30314139 135.4453125 65.00390625 C136.61129215 70.83380451 136.77172364 76.82366218 137.1953125 82.75390625 C60.6353125 82.75390625 -15.9246875 82.75390625 -94.8046875 82.75390625 C-93.69140645 67.1679716 -91.7750354 55.24992782 -80.29296875 44.375 C-75.7258527 40.70018673 -70.49352787 38.05554735 -65.3671875 35.25390625 C-63.11041352 34.00568473 -60.85390886 32.75697618 -58.59765625 31.5078125 C-57.45989746 30.8802002 -56.32213867 30.25258789 -55.14990234 29.60595703 C-50.14161979 26.83316244 -45.1597821 24.01442374 -40.1796875 21.19140625 C-38.3073537 20.13140085 -36.43495763 19.0715054 -34.5625 18.01171875 C-33.16306152 17.21942871 -33.16306152 17.21942871 -31.73535156 16.41113281 C-28.61171238 14.64478303 -25.48576956 12.88256163 -22.359375 11.12109375 C-21.30443848 10.52627197 -20.24950195 9.9314502 -19.16259766 9.31860352 C-17.13412469 8.17497818 -15.10517475 7.03219833 -13.07568359 5.89038086 C-11.7117749 5.1209314 -11.7117749 5.1209314 -10.3203125 4.3359375 C-9.51883789 3.88452393 -8.71736328 3.43311035 -7.89160156 2.96801758 C-2.42429482 -0.21271668 -2.42429482 -0.21271668 0 0 Z " fill="#646CB1" transform="translate(106.8046875,173.24609375)"/>
<path d="M0 0 C3.19993103 0.75499595 6.21783954 1.73170706 9.3203125 2.81640625 C19.40614228 5.96033954 28.37248461 5.63321147 38.1953125 1.75390625 C38.845 1.36976563 39.4946875 0.985625 40.1640625 0.58984375 C42.89724753 -0.53496701 44.35970474 0.00868734 47.1953125 0.75390625 C49.32568359 1.76269531 49.32568359 1.76269531 51.46875 3.01953125 C52.2829541 3.49140869 53.0971582 3.96328613 53.93603516 4.44946289 C54.80534668 4.9624292 55.6746582 5.47539551 56.5703125 6.00390625 C58.43959399 7.09202274 60.30940615 8.17922799 62.1796875 9.265625 C63.15615234 9.83458496 64.13261719 10.40354492 65.13867188 10.98974609 C68.27322616 12.79887463 71.42547997 14.57248684 74.5859375 16.3359375 C75.6270166 16.91762695 76.6680957 17.49931641 77.74072266 18.09863281 C79.76462098 19.22754899 81.79028949 20.35329854 83.81787109 21.47558594 C84.73906738 21.9915332 85.66026367 22.50748047 86.609375 23.0390625 C87.83068115 23.71787476 87.83068115 23.71787476 89.07666016 24.41040039 C91.08899165 25.68648477 92.5952107 26.99958941 94.1953125 28.75390625 C93.5353125 28.75390625 92.8753125 28.75390625 92.1953125 28.75390625 C92.1953125 35.68390625 92.1953125 42.61390625 92.1953125 49.75390625 C45.3353125 49.75390625 -1.5246875 49.75390625 -49.8046875 49.75390625 C-49.8046875 42.82390625 -49.8046875 35.89390625 -49.8046875 28.75390625 C-50.4646875 28.42390625 -51.1246875 28.09390625 -51.8046875 27.75390625 C-49.467133 26.4326798 -47.12957335 25.11146248 -44.79199219 23.7902832 C-42.74177727 22.63141613 -40.69164845 21.47239673 -38.64160156 20.31323242 C-33.18363431 17.22740733 -27.72424119 14.14416156 -22.26171875 11.06640625 C-21.22088135 10.47947998 -20.18004395 9.89255371 -19.10766602 9.2878418 C-17.0995637 8.15556435 -15.09095134 7.02419089 -13.08178711 5.89379883 C-11.71485718 5.12265747 -11.71485718 5.12265747 -10.3203125 4.3359375 C-9.51883789 3.88452393 -8.71736328 3.43311035 -7.89160156 2.96801758 C-2.42429482 -0.21271668 -2.42429482 -0.21271668 0 0 Z " fill="#7F6DAF" transform="translate(106.8046875,173.24609375)"/>
<path d="M0 0 C1.72573242 -0.0299707 1.72573242 -0.0299707 3.48632812 -0.06054688 C18.30090918 -0.05215334 30.5270169 5.94528955 41.20703125 15.99609375 C50.02247514 25.13316246 55.81040046 36.65180781 56.5625 49.4375 C55.9025 49.4375 55.2425 49.4375 54.5625 49.4375 C55.0575 51.2009375 55.0575 51.2009375 55.5625 53 C57.00916247 59.65253545 57.62185722 66.70354398 56.5625 73.4375 C55.34201927 74.90807924 54.11567625 76.37675018 52.80737305 77.76977539 C50.39908474 80.99609769 49.96600362 84.92562322 49.25 88.8125 C49.08177734 89.64394531 48.91355469 90.47539063 48.74023438 91.33203125 C48.33150399 93.36400517 47.94472795 95.40037449 47.5625 97.4375 C46.2425 97.4375 44.9225 97.4375 43.5625 97.4375 C43.45703857 96.5717334 43.35157715 95.7059668 43.24291992 94.81396484 C42.8397195 91.52929246 42.43081026 88.24542674 42.01831055 84.96191406 C41.8425999 83.55431033 41.6690159 82.14643911 41.49780273 80.73828125 C40.33195298 71.16532141 38.75288108 61.83961619 36.5625 52.4375 C35.428125 52.38851562 34.29375 52.33953125 33.125 52.2890625 C31.60414602 52.2139586 30.08331375 52.13841416 28.5625 52.0625 C27.44681641 52.01609375 27.44681641 52.01609375 26.30859375 51.96875 C19.00923615 51.58791395 12.47001539 49.85513039 5.5625 47.4375 C7.2125 49.4175 8.8625 51.3975 10.5625 53.4375 C-1.19448141 52.82938027 -11.53559853 48.71735766 -20.9375 41.6953125 C-24.24866213 40.02938405 -25.91457391 40.43556689 -29.4375 41.4375 C-33.71147599 43.28478468 -37.45461672 45.50449623 -39.609375 49.7421875 C-40.38908843 52.29614681 -40.94869364 54.81317076 -41.4375 57.4375 C-41.61539063 58.14777344 -41.79328125 58.85804687 -41.9765625 59.58984375 C-45.07188745 71.99424298 -45.85236022 84.71840896 -46.4375 97.4375 C-48.0875 97.4375 -49.7375 97.4375 -51.4375 97.4375 C-51.66824219 96.20773438 -51.89898437 94.97796875 -52.13671875 93.7109375 C-52.46519651 92.07793376 -52.79467689 90.44513147 -53.125 88.8125 C-53.27388672 88.00425781 -53.42277344 87.19601563 -53.57617188 86.36328125 C-54.46237682 82.08864562 -55.04758513 79.86821314 -58.05078125 76.55078125 C-61.57957846 71.94775117 -61.09785758 67.88802679 -60.9375 62.25 C-60.94007812 61.27224609 -60.94265625 60.29449219 -60.9453125 59.28710938 C-60.77680996 46.53989212 -56.97082225 33.70990521 -48.3125 24.08203125 C-45.97825879 22.03470719 -43.47395696 20.53366634 -40.8125 18.9375 C-36.19107564 16.16585166 -36.19107564 16.16585166 -33.25 11.8125 C-30.16886591 6.07521583 -25.04670954 3.80929734 -19.00390625 1.82421875 C-12.68824375 -0.00100306 -6.53464076 -0.04013459 0 0 Z " fill="#2B2E6D" transform="translate(129.4375,-0.4375)"/>
<path d="M0 0 C6.22911979 1.24582396 10.81224369 3.91762992 16.3125 7 C17.31990234 7.54011719 18.32730469 8.08023438 19.36523438 8.63671875 C31.14477731 15.22098444 37.46673623 23.8135142 42.25 36.25 C43.41597965 42.07989826 43.57641114 48.06975593 44 54 C29.48 54 14.96 54 0 54 C0 36.18 0 18.36 0 0 Z " fill="#586099" transform="translate(200,202)"/>
<path d="M0 0 C0 17.82 0 35.64 0 54 C-14.52 54 -29.04 54 -44 54 C-42.8888482 38.44387474 -40.98336849 26.4913217 -29.50390625 15.640625 C-24.84063609 11.88393999 -19.5220873 9.10265896 -14.3125 6.1875 C-13.26771484 5.59001953 -12.22292969 4.99253906 -11.14648438 4.37695312 C-10.14552734 3.81298828 -9.14457031 3.24902344 -8.11328125 2.66796875 C-7.20360596 2.15516357 -6.29393066 1.6423584 -5.35668945 1.11401367 C-3 0 -3 0 0 0 Z " fill="#585F99" transform="translate(56,202)"/>
<path d="M0 0 C2.68327559 2.68327559 2.56379057 4.64515635 3.0625 8.375 C3.78934501 13.73568915 3.78934501 13.73568915 5 19 C3.44148245 19.82011312 1.87798284 20.63076213 0.3125 21.4375 C-0.99267578 22.11619141 -0.99267578 22.11619141 -2.32421875 22.80859375 C-12.99037836 27.55775971 -24.53691358 24.98178567 -35 21 C-36.34549567 20.35823397 -37.68484096 19.70183968 -39 19 C-38.01 15.535 -38.01 15.535 -37 12 C-35.9584375 11.78085938 -34.916875 11.56171875 -33.84375 11.3359375 C-22.19945671 8.79332416 -10.59624222 5.60506515 0 0 Z " fill="#F8C4B7" transform="translate(145,154)"/>
<path d="M0 0 C0.53625 0.144375 1.0725 0.28875 1.625 0.4375 C12.85017816 3.09609483 24.8526894 3.00119901 36 0 C36.495 2.475 36.495 2.475 37 5 C31.17054367 9.04794818 25.35957717 11.57346274 18.625 13.75 C17.74328125 14.05292969 16.8615625 14.35585937 15.953125 14.66796875 C9.97405551 16.64053566 4.28263543 17.63809314 -2 18 C-1.8590651 15.56212615 -1.71245458 13.12482147 -1.5625 10.6875 C-1.52318359 9.99720703 -1.48386719 9.30691406 -1.44335938 8.59570312 C-1.25072585 5.52838465 -0.97677283 2.93031848 0 0 Z " fill="#F5AA98" transform="translate(110,148)"/>
<path d="M0 0 C2.74637817 0.37881078 3.80049058 0.77832287 5.6875 2.875 C8.94403181 8.14748008 8.53510917 14.0097501 8 20 C6.73334289 24.66735609 4.86391097 28.04515103 1.625 31.625 C-1.71715801 33.3756542 -3.43588567 33.05303378 -7 32 C-8 31 -8 31 -8.171875 27.51171875 C-8.10889071 22.80364332 -7.27924592 18.39418053 -6.25 13.8125 C-6.09273437 13.03197266 -5.93546875 12.25144531 -5.7734375 11.44726562 C-4.72619594 6.69842795 -3.44576816 3.61226537 0 0 Z " fill="#F3A796" transform="translate(184,74)"/>
<path d="M0 0 C2.75719996 1.04326485 4.55122975 2.1004998 5.89453125 4.79296875 C8.61407746 13.24246795 9.65586959 22.24885306 11 31 C8 33 8 33 5.125 33 C1.07864681 31.70516698 -0.81267017 29.49147366 -3 26 C-5.79196302 20.41607397 -5.56031789 14.10495617 -5 8 C-3.67075969 4.49563918 -2.6165916 2.6165916 0 0 Z " fill="#F4A796" transform="translate(69,74)"/>
<path d="M0 0 C3.875 1.75 3.875 1.75 5 4 C5.15725856 8.16735187 4.98317108 11.94441928 4 16 C5.98567708 16.1953125 7.97135417 16.390625 9.95703125 16.5859375 C12 17 12 17 15 19 C14.875 21.3125 14.875 21.3125 14 24 C9.10624205 27.63894822 3.85634297 27.70238149 -2 27 C-5.5625 25.75 -5.5625 25.75 -8 24 C-8.875 21.8125 -8.875 21.8125 -9 20 C-4.375 16 -4.375 16 -1 16 C-1.48533203 15.15115234 -1.48533203 15.15115234 -1.98046875 14.28515625 C-3.0833148 11.81325993 -3.29883934 10.12865086 -3.3125 7.4375 C-3.32925781 6.67308594 -3.34601563 5.90867187 -3.36328125 5.12109375 C-2.91796488 2.52102077 -1.99996498 1.65168612 0 0 Z " fill="#F4AFA8" transform="translate(147,78)"/>
<path d="M0 0 C4.875 0.875 4.875 0.875 6 2 C6.12494616 3.62139437 6.17571624 5.24884122 6.1875 6.875 C6.20167969 7.75929688 6.21585938 8.64359375 6.23046875 9.5546875 C6 12 6 12 4 15 C6.31 15.66 8.62 16.32 11 17 C11.33 18.65 11.66 20.3 12 22 C6.56480204 26.31067425 1.75329034 26.57675616 -5 26 C-8.5625 24.8125 -8.5625 24.8125 -11 23 C-11.875 20.3125 -11.875 20.3125 -12 18 C-8.04476345 15.24331998 -4.77576339 14.4682121 0 14 C-0.495 13.195625 -0.495 13.195625 -1 12.375 C-2.25941162 9.3838974 -2.26855835 7.22270017 -2 4 C-1 1.625 -1 1.625 0 0 Z " fill="#F5AFA8" transform="translate(105,79)"/>
<path d="M0 0 C3.875 1.75 3.875 1.75 5 4 C5.23553948 8.23971058 5.32845886 11.36178302 3 15 C0.5625 14.625 0.5625 14.625 -2 14 C-3.16343227 11.67313547 -3.19895988 10.15278587 -3.25 7.5625 C-3.28867188 6.38880859 -3.28867188 6.38880859 -3.328125 5.19140625 C-2.92823089 2.52068491 -2.05300878 1.68022561 0 0 Z " fill="#36356F" transform="translate(147,78)"/>
<path d="M0 0 C5.08345464 0.02651085 8.4172537 0.8725353 12.875 3.25 C12.545 4.57 12.215 5.89 11.875 7.25 C6.265 6.59 0.655 5.93 -5.125 5.25 C-5.455 3.93 -5.785 2.61 -6.125 1.25 C-4.42830868 -0.44669132 -2.31857491 0.03790586 0 0 Z " fill="#31336F" transform="translate(147.125,67.75)"/>
<path d="M0 0 C4.875 0.875 4.875 0.875 6 2 C6.1245486 3.64230364 6.17568524 5.29052276 6.1875 6.9375 C6.20167969 7.83339844 6.21585938 8.72929688 6.23046875 9.65234375 C6 12 6 12 4 14 C2.68 14 1.36 14 0 14 C-2.09972674 10.58794404 -2.33083127 7.9699753 -2 4 C-1 1.625 -1 1.625 0 0 Z " fill="#33346E" transform="translate(105,79)"/>
<path d="M0 0 C0.5625 1.9375 0.5625 1.9375 1 4 C-0.68304019 5.68304019 -2.88070681 5.32566745 -5.1875 5.5 C-9.17109028 5.82677889 -13.06831081 6.25616691 -17 7 C-17.33 5.68 -17.66 4.36 -18 3 C-11.92122066 -0.24201565 -6.81598387 -0.33278764 0 0 Z " fill="#2F326F" transform="translate(113,68)"/>
<path d="M0 0 C4.75 1.875 4.75 1.875 7 3 C9.10053716 3.14901491 11.20687825 3.22138453 13.3125 3.25 C14.44300781 3.27578125 15.57351562 3.3015625 16.73828125 3.328125 C20.29983623 2.96983683 22.06946825 1.97097711 25 0 C25.66 0 26.32 0 27 0 C26.875 1.8125 26.875 1.8125 26 4 C19.58225295 7.9464355 13.32204224 7.79625046 6 7 C3.16740344 5.99329321 2.13527102 5.1980731 0 3 C0 2.01 0 1.02 0 0 Z " fill="#EA8880" transform="translate(114,121)"/>
<path d="M0 0 C-1.875 4.75 -1.875 4.75 -3 7 C-1.35 7 0.3 7 2 7 C1.67 7.99 1.34 8.98 1 10 C-0.65 10 -2.3 10 -4 10 C-4 12.97 -4 15.94 -4 19 C-4.66 19 -5.32 19 -6 19 C-8.56384848 14.32474688 -8.12011899 10.04956868 -7 5 C-5.34711714 1.0288789 -4.47234103 0 0 0 Z " fill="#E1847E" transform="translate(185,81)"/>
<path d="M0 0 C3.66541254 5.4981188 4.34357529 12.47206957 4 19 C3.01 19.33 2.02 19.66 1 20 C1 17.36 1 14.72 1 12 C-0.65 12 -2.3 12 -4 12 C-4 11.01 -4 10.02 -4 9 C-2.68 9 -1.36 9 0 9 C-0.495 8.21625 -0.99 7.4325 -1.5 6.625 C-3 4 -3 4 -3 2 C-2.01 2 -1.02 2 0 2 C0 1.34 0 0.68 0 0 Z " fill="#E2847D" transform="translate(74,79)"/>
<path d="M0 0 C0.66 0.33 1.32 0.66 2 1 C0.94124926 4.40312738 -0.00902154 7.01353231 -2 10 C-2 10.99 -2 11.98 -2 13 C-1.01 13.66 -0.02 14.32 1 15 C1 15.99 1 16.98 1 18 C-1.91517292 16.92598892 -3.77810176 16.22189824 -6 14 C-5.87868426 7.8128971 -3.71538862 4.66805237 0 0 Z " fill="#EA877F" transform="translate(127,99)"/>
<path d="M0 0 C0.66 0.33 1.32 0.66 2 1 C-1.63 4.63 -5.26 8.26 -9 12 C-9 8.26071501 -8.08040398 7.59097747 -5.625 4.875 C-4.99851562 4.17117187 -4.37203125 3.46734375 -3.7265625 2.7421875 C-2 1 -2 1 0 0 Z " fill="#6A6DA6" transform="translate(30,215)"/>
</svg>
