<?xml version="1.0" encoding="UTF-8"?>
<svg version="1.1" xmlns="http://www.w3.org/2000/svg" width="512" height="512">
<path d="M0 0 C0.75024948 -0.00570007 1.50049896 -0.01140015 2.27348328 -0.01727295 C3.86110037 -0.02668604 5.44873667 -0.03324219 7.03637695 -0.03710938 C9.40418319 -0.04669273 11.7710734 -0.07769813 14.13867188 -0.109375 C45.06547923 -0.32475427 74.42938357 9.866464 96.66552734 31.70898438 C127.79885079 63.32795873 138.63544893 110.71124904 138.44921875 153.765625 C138.44648453 155.08264404 138.44648453 155.08264404 138.44369507 156.42626953 C138.39559575 170.22121808 137.71919344 183.6222566 135.13671875 197.203125 C134.97042969 198.11175293 134.80414063 199.02038086 134.6328125 199.95654297 C130.73144658 220.94083431 125.18893336 241.62092431 119.76171875 262.25390625 C107.77443195 307.92219181 105.73408706 343.31755546 120.0078125 388.59375 C120.97478407 391.6853823 121.90947704 394.78326119 122.82421875 397.890625 C123.76877273 401.0731279 124.81474996 404.1524278 126.13671875 407.203125 C95.6627627 393.0637259 71.54555432 362.10720719 59.8515625 331.1875 C51.94871727 309.24954711 49.62539478 288.43818509 49.13671875 265.203125 C48.59144531 265.95335937 48.04617188 266.70359375 47.484375 267.4765625 C37.85205806 280.55016873 28.05883041 292.12685028 13.13671875 299.203125 C12.20324039 319.98108059 12.20324039 319.98108059 16.13671875 340.203125 C16.35207275 340.91525146 16.56742676 341.62737793 16.78930664 342.36108398 C19.33809399 349.51600587 23.42956878 351.81212832 30.07421875 355.015625 C32.07798618 356.04330794 34.08056367 357.07331387 36.08203125 358.10546875 C37.0968457 358.61964355 38.11166016 359.13381836 39.15722656 359.66357422 C43.66980086 361.99529279 48.05688449 364.52908938 52.44921875 367.078125 C60.14775092 371.50884571 67.88113547 375.87307736 75.63671875 380.203125 C84.18070954 384.97504514 92.69480512 389.79472669 101.18359375 394.6640625 C107.97676315 398.55469588 114.80225036 402.38558027 121.63671875 406.203125 C131.2058037 411.55089995 140.75823572 416.92505918 150.25390625 422.40234375 C153.42783051 424.23297082 156.61889212 426.02435601 159.83203125 427.78515625 C179.83450101 438.88027619 192.52018674 455.59147971 199.1328125 477.50390625 C202.20577828 489.31056425 202.13671875 499.62373707 202.13671875 512.203125 C52.97671875 512.203125 -96.18328125 512.203125 -249.86328125 512.203125 C-249.86328125 483.16806905 -244.27810654 460.44514794 -224.203125 439.2578125 C-219.99030806 435.09220481 -215.49292302 432.30952945 -210.30078125 429.515625 C-208.43227103 428.47920388 -206.5637822 427.44274418 -204.6953125 426.40625 C-203.73447754 425.87966797 -202.77364258 425.35308594 -201.78369141 424.81054688 C-196.99316196 422.17379333 -192.24392079 419.46461803 -187.48828125 416.765625 C-185.55370002 415.67262005 -183.6188025 414.58017477 -181.68359375 413.48828125 C-175.90870072 410.22913528 -170.13581911 406.96644012 -164.36328125 403.703125 C-162.44662368 402.61977557 -160.52995701 401.53644225 -158.61328125 400.453125 C-157.66453125 399.916875 -156.71578125 399.380625 -155.73828125 398.828125 C-124.11328125 380.953125 -124.11328125 380.953125 -121.23681641 379.32739258 C-119.32492335 378.24669381 -117.41313905 377.16580264 -115.50146484 376.0847168 C-109.64778595 372.77474923 -103.79017105 369.47189609 -97.92895508 366.17529297 C-95.04355039 364.546818 -92.166206 362.90473289 -89.2890625 361.26171875 C-85.81986955 359.28609494 -82.32612355 357.3868297 -78.78125 355.55078125 C-69.59571157 350.98733556 -69.59571157 350.98733556 -63.92578125 342.828125 C-63.54826625 340.95768616 -63.19668658 339.08192779 -62.86328125 337.203125 C-62.68611572 336.30932129 -62.5089502 335.41551758 -62.32641602 334.49462891 C-60.92187385 326.91654227 -60.62019567 319.64685466 -60.73828125 311.953125 C-60.74730469 310.81488281 -60.75632813 309.67664063 -60.765625 308.50390625 C-60.78887845 305.73674619 -60.82155257 302.9700574 -60.86328125 300.203125 C-61.60481445 299.82510742 -62.34634766 299.44708984 -63.11035156 299.05761719 C-92.57019356 283.8733731 -106.77952921 253.86975797 -116.52783203 223.67016602 C-117.31608338 221.18403195 -118.09586671 218.69575771 -118.86328125 216.203125 C-119.39219971 216.42621338 -119.92111816 216.64930176 -120.46606445 216.87915039 C-121.17077881 217.16266357 -121.87549316 217.44617676 -122.6015625 217.73828125 C-123.29548096 218.02324463 -123.98939941 218.30820801 -124.7043457 218.60180664 C-128.39880931 219.63080855 -131.42099903 218.69428605 -134.86328125 217.203125 C-142.44670198 212.61780084 -145.79271983 204.2398077 -148.1328125 196.03515625 C-150.58401436 183.17617751 -150.0453262 170.39409928 -142.92578125 159.140625 C-140.66914224 157.02075199 -138.73773199 156.26861333 -135.86328125 155.203125 C-136.07984375 153.93984375 -136.29640625 152.6765625 -136.51953125 151.375 C-142.24327479 115.62706437 -140.19935504 78.11956152 -119.17578125 47.515625 C-101.02590917 24.09983259 -75.84406063 11.80654737 -46.86328125 7.203125 C-43.05931212 6.72135369 -39.24594402 6.34982136 -35.4284668 5.99316406 C-29.08995118 5.3539391 -23.20005728 3.90228683 -17.09765625 2.10546875 C-11.38993004 0.51309586 -5.90641302 0.03569826 0 0 Z " fill="#F8C4B7" transform="translate(279.86328125,-0.203125)"/>
<path d="M0 0 C1.82798711 1.45598973 3.49812916 2.96614912 5.16015625 4.609375 C17.82642921 15.94734968 32.96449472 18.51780652 49.33642578 17.66015625 C61.68513744 16.45852688 73.70502686 9.26941357 82.0546875 0.29296875 C83.78515625 -0.578125 83.78515625 -0.578125 86.56762695 0.19458008 C89.55839237 1.33537815 92.21193994 2.61689839 94.99609375 4.1875 C95.9811792 4.74066895 96.96626465 5.29383789 97.98120117 5.86376953 C99.03025635 6.46044434 100.07931152 7.05711914 101.16015625 7.671875 C102.81204956 8.60362549 102.81204956 8.60362549 104.49731445 9.55419922 C113.0388865 14.38794834 121.51082704 19.33717234 129.97216797 24.30957031 C137.39938995 28.65762787 144.92132045 32.80056221 152.49682617 36.88330078 C159.34374369 40.59100014 166.07540834 44.4720467 172.78515625 48.421875 C180.44609138 52.93048427 188.15295241 57.31934979 195.97265625 61.546875 C206.67686819 67.33530706 217.27004643 73.29668245 227.78515625 79.421875 C228.90921875 80.06769531 230.03328125 80.71351563 231.19140625 81.37890625 C249.23023016 92.19713351 260.38086674 110.81592056 265.59765625 130.859375 C268.12008228 141.60643863 267.78515625 151.03501676 267.78515625 162.421875 C118.62515625 162.421875 -30.53484375 162.421875 -184.21484375 162.421875 C-184.21484375 133.38681905 -178.62966904 110.66389794 -158.5546875 89.4765625 C-154.34187056 85.31095481 -149.84448552 82.52827945 -144.65234375 79.734375 C-142.78383353 78.69795388 -140.9153447 77.66149418 -139.046875 76.625 C-138.08604004 76.09841797 -137.12520508 75.57183594 -136.13525391 75.02929688 C-131.34472446 72.39254333 -126.59548329 69.68336803 -121.83984375 66.984375 C-119.90526252 65.89137005 -117.970365 64.79892477 -116.03515625 63.70703125 C-110.26026322 60.44788528 -104.48738161 57.18519012 -98.71484375 53.921875 C-96.79818618 52.83852557 -94.88151951 51.75519225 -92.96484375 50.671875 C-91.54171875 49.8675 -91.54171875 49.8675 -90.08984375 49.046875 C-79.54817708 43.08854167 -69.00651042 37.13020833 -58.46484375 31.171875 C-57.0408728 30.3670166 -57.0408728 30.3670166 -55.58813477 29.54589844 C-53.67717685 28.46579885 -51.76620685 27.38572062 -49.85522461 26.30566406 C-43.97951874 22.98476541 -38.10392877 19.66366308 -32.22973633 16.34008789 C-30.2841718 15.24077073 -28.33742062 14.14355064 -26.3894043 13.04858398 C-22.01666704 10.58861117 -17.66304769 8.10778752 -13.35546875 5.53515625 C-12.61804443 5.10106445 -11.88062012 4.66697266 -11.12084961 4.21972656 C-9.76742628 3.42108842 -8.42123714 2.61000384 -7.08422852 1.78417969 C-2.7904759 -0.72837819 -2.7904759 -0.72837819 0 0 Z " fill="#CA98C4" transform="translate(214.21484375,349.578125)"/>
<path d="M0 0 C0.75024948 -0.00570007 1.50049896 -0.01140015 2.27348328 -0.01727295 C3.86110037 -0.02668604 5.44873667 -0.03324219 7.03637695 -0.03710938 C9.40418319 -0.04669273 11.7710734 -0.07769813 14.13867188 -0.109375 C45.06547923 -0.32475427 74.42938357 9.866464 96.66552734 31.70898438 C127.79885079 63.32795873 138.63544893 110.71124904 138.44921875 153.765625 C138.44648453 155.08264404 138.44648453 155.08264404 138.44369507 156.42626953 C138.39559575 170.22121808 137.71919344 183.6222566 135.13671875 197.203125 C134.97042969 198.11175293 134.80414063 199.02038086 134.6328125 199.95654297 C130.73144658 220.94083431 125.18893336 241.62092431 119.76171875 262.25390625 C107.77443195 307.92219181 105.73408706 343.31755546 120.0078125 388.59375 C120.97478407 391.6853823 121.90947704 394.78326119 122.82421875 397.890625 C123.76877273 401.0731279 124.81474996 404.1524278 126.13671875 407.203125 C95.6627627 393.0637259 71.54555432 362.10720719 59.8515625 331.1875 C51.60927163 308.30726087 42.35122791 275.16381182 53.26538086 251.91796875 C54.57619835 249.44939696 55.93747822 247.01533865 57.3125 244.58203125 C60.88417722 238.18108335 63.02830028 231.34790258 65.26171875 224.390625 C65.65157959 223.18374023 66.04144043 221.97685547 66.44311523 220.73339844 C67.35233293 217.89335622 68.2507824 215.0504998 69.13671875 212.203125 C69.60142578 212.55753662 70.06613281 212.91194824 70.54492188 213.27709961 C71.47208008 213.96557983 71.47208008 213.96557983 72.41796875 214.66796875 C73.02705078 215.12550537 73.63613281 215.58304199 74.26367188 216.05444336 C77.36113918 217.95402413 79.6145196 217.76919272 83.13671875 217.203125 C90.14023063 214.50001515 93.07006031 209.91088799 96.13671875 203.203125 C100.92679068 190.64216238 102.24688483 177.88764791 97.13671875 165.203125 C95.06335265 161.41872862 93.38692081 158.61985902 89.13671875 157.203125 C88.80671875 158.193125 88.47671875 159.183125 88.13671875 160.203125 C87.18796875 160.739375 86.23921875 161.275625 85.26171875 161.828125 C80.62490452 165.35210381 79.66106433 169.90801979 78.76220703 175.55664062 C78.50852607 177.91641754 78.31203072 180.27379278 78.13671875 182.640625 C77.46902228 190.16851788 76.5600008 197.35656089 73.13671875 204.203125 C72.47671875 204.203125 71.81671875 204.203125 71.13671875 204.203125 C71.06155029 203.30557495 71.06155029 203.30557495 70.98486328 202.38989258 C70.74839014 199.59806166 70.50506691 196.80686476 70.26171875 194.015625 C70.18308594 193.07525391 70.10445312 192.13488281 70.0234375 191.16601562 C66.94989335 156.29311081 62.01262667 111.18713928 38.13671875 84.203125 C37.61722656 83.57792969 37.09773437 82.95273438 36.5625 82.30859375 C24.41121163 68.74934754 3.53309513 63.14847805 -13.98632812 61.99804688 C-17.17756023 61.9007411 -20.35813637 61.87407907 -23.55078125 61.890625 C-25.24871826 61.89799683 -25.24871826 61.89799683 -26.98095703 61.90551758 C-48.48997312 62.20378654 -67.5183747 67.82676998 -83.61328125 82.80078125 C-99.58758681 99.85668042 -108.06403226 121.71428008 -110.984375 144.5859375 C-111.99707163 152.44908136 -113.23100314 160.27678336 -114.46511841 168.1076355 C-114.85370411 170.57969818 -115.23649553 173.052609 -115.61889648 175.52563477 C-118.92006536 196.67211374 -118.92006536 196.67211374 -120.86328125 203.203125 C-121.52328125 203.533125 -122.18328125 203.863125 -122.86328125 204.203125 C-123.3047794 201.9330104 -123.7415458 199.66213292 -124.17578125 197.390625 C-124.3140332 196.67793457 -124.45228516 195.96524414 -124.59472656 195.23095703 C-125.34156575 191.29686676 -125.99270347 187.37689045 -126.484375 183.40234375 C-127.4715494 175.66804008 -128.44718408 169.27670343 -132.36328125 162.390625 C-144.86635359 139.4727313 -140.97916602 103.30719471 -134.27099609 78.94702148 C-126.86825607 54.14875333 -111.19443093 33.38005678 -88.60546875 20.64453125 C-72.07074591 11.85128232 -53.9469204 7.72329661 -35.4284668 5.99316406 C-29.08995118 5.3539391 -23.20005728 3.90228683 -17.09765625 2.10546875 C-11.38993004 0.51309586 -5.90641302 0.03569826 0 0 Z " fill="#793784" transform="translate(279.86328125,-0.203125)"/>
<path d="M0 0 C0.75683075 -0.00590149 1.5136615 -0.01180298 2.29342651 -0.0178833 C33.82583795 -0.18401151 63.72561723 9.6052229 86.46630859 31.94335938 C117.59963204 63.56233373 128.43623018 110.94562404 128.25 154 C128.24817719 154.8780127 128.24635437 155.75602539 128.24447632 156.66064453 C128.196377 170.45559308 127.51997469 183.8566316 124.9375 197.4375 C124.77121094 198.34612793 124.60492188 199.25475586 124.43359375 200.19091797 C120.53222783 221.17520931 114.98971461 241.85529931 109.5625 262.48828125 C97.5752132 308.15656681 95.53486831 343.55193046 109.80859375 388.828125 C110.77556532 391.9197573 111.71025829 395.01763619 112.625 398.125 C113.56955398 401.3075029 114.61553121 404.3868028 115.9375 407.4375 C85.46354395 393.2981009 61.34633557 362.34158219 49.65234375 331.421875 C41.41005288 308.54163587 32.15200916 275.39818682 43.06616211 252.15234375 C44.3769796 249.68377196 45.73825947 247.24971365 47.11328125 244.81640625 C50.68495847 238.41545835 52.82908153 231.58227758 55.0625 224.625 C55.45236084 223.41811523 55.84222168 222.21123047 56.24389648 220.96777344 C57.15311418 218.12773122 58.05156365 215.2848748 58.9375 212.4375 C59.40220703 212.79191162 59.86691406 213.14632324 60.34570312 213.51147461 C61.27286133 214.19995483 61.27286133 214.19995483 62.21875 214.90234375 C62.82783203 215.35988037 63.43691406 215.81741699 64.06445312 216.28881836 C67.16192043 218.18839913 69.41530085 218.00356772 72.9375 217.4375 C79.94101188 214.73439015 82.87084156 210.14526299 85.9375 203.4375 C90.72560168 190.88170394 92.05362556 178.11659378 86.9375 165.4375 C84.81608803 161.62719695 82.61146718 158.88681146 78.9375 156.4375 C79.20304687 155.36113281 79.46859375 154.28476563 79.7421875 153.17578125 C80.09924038 151.70058907 80.45599482 150.22532464 80.8125 148.75 C81.07353516 147.6971582 81.07353516 147.6971582 81.33984375 146.62304688 C88.75092415 115.74354522 87.29836562 83.11686279 70.5625 55.625 C51.73670456 27.72098766 22.85131963 14.76005784 -9.296875 8.34375 C-15.43367355 7.26319652 -21.53065547 6.99530988 -27.75 6.8125 C-28.84505859 6.77382812 -29.94011719 6.73515625 -31.06835938 6.6953125 C-33.732918 6.60222748 -36.39749022 6.51640148 -39.0625 6.4375 C-28.05120884 -0.90336078 -12.72004758 0.02785209 0 0 Z " fill="#6D3175" transform="translate(290.0625,-0.4375)"/>
<path d="M0 0 C0.05945801 0.84425537 0.05945801 0.84425537 0.12011719 1.70556641 C0.97383105 13.27787011 2.19919175 23.9760107 6 35 C6.33 35.99 6.66 36.98 7 38 C-6.10998653 50.74582024 -20.24203376 57.66206481 -38.56201172 57.47290039 C-55.49132841 56.88234283 -66.99002437 49.32369131 -79 38 C-77.35 33.38 -75.7 28.76 -74 24 C-72.41638672 23.77957031 -72.41638672 23.77957031 -70.80078125 23.5546875 C-47.07716289 20.04802488 -24.69833533 12.32811901 -3.45703125 1.25 C-1 0 -1 0 0 0 Z " fill="#F8C4B7" transform="translate(292,311)"/>
<path d="M0 0 C0.78938965 0.26844727 1.5787793 0.53689453 2.39208984 0.81347656 C23.51682548 7.93794787 40.41440984 8.77157619 61.75488281 2.63378906 C65.15078577 1.67513703 68.5728118 0.83915134 72 0 C72 3.96 72 7.92 72 12 C51.44091942 23.32800781 25.81395684 36.471423 1.6875 36.0625 C-0.1378125 36.0315625 -0.1378125 36.0315625 -2 36 C-1.90150757 35.15429443 -1.90150757 35.15429443 -1.80102539 34.29150391 C-1.00578112 26.99336689 -0.68689668 19.7097155 -0.4375 12.375 C-0.39431641 11.18003906 -0.35113281 9.98507812 -0.30664062 8.75390625 C-0.20159693 5.83602594 -0.09944352 2.91807562 0 0 Z " fill="#F5A997" transform="translate(220,299)"/>
<path d="M0 0 C4.33082798 2.10476552 5.73168797 7.76285466 7.36010742 12.04095459 C9.24812479 17.70232586 9.94551036 23.64707936 10.75488281 29.53686523 C11.13603707 32.18553734 11.53025366 34.83180587 11.92675781 37.47827148 C12.08756836 38.63141846 12.24837891 39.78456543 12.4140625 40.97265625 C12.95397951 43.715747 13.66531011 45.55837347 15.00488281 47.97436523 C17.65518956 56.07252474 17.65518956 56.07252474 17.00488281 59.97436523 C14.12985802 63.07054578 11.15705747 63.81153486 7.00488281 63.97436523 C0.29348262 61.8549757 -4.31816685 57.91339292 -8.01464844 51.92358398 C-13.78237208 40.45707363 -14.97604977 26.98962982 -12.22949219 14.48999023 C-10.3661955 9.01840471 -6.90176788 -0.0886791 0 0 Z " fill="#F4A897" transform="translate(143.9951171875,155.025634765625)"/>
<path d="M0 0 C5.21126075 2.38229063 7.58510378 5.98512428 10 11 C14.6893098 23.78682929 11.9051644 36.81453896 7 49 C3.87753799 55.31354955 0.58661743 59.34224209 -6 62 C-9.6197973 62.64639238 -11.77507771 62.6666404 -15.03125 60.89453125 C-17.06551054 59.389017 -18.5584643 58.08322244 -20 56 C-19.9375 52.125 -19.9375 52.125 -19 49 C-17.515 48.505 -17.515 48.505 -16 48 C-12.82061111 40.56729532 -12.42105903 31.92546525 -11.82202148 23.93994141 C-11.25144665 17.20192628 -10.35796486 10.35796486 -5.4375 5.4375 C-3 4 -3 4 -1 4 C-0.67 2.68 -0.34 1.36 0 0 Z " fill="#F2A696" transform="translate(369,156)"/>
<path d="M0 0 C2.94269296 1.86876171 4.85934993 3.32579969 6.89453125 6.203125 C7.08203125 8.703125 7.08203125 8.703125 5.89453125 11.203125 C0.44640305 17.22474038 -6.44281023 18.79402155 -14.35546875 19.48828125 C-24.06269248 19.7515668 -32.33167286 18.18296799 -40.10546875 12.203125 C-41.10546875 11.203125 -41.10546875 11.203125 -41.41796875 8.390625 C-41.10546875 5.203125 -41.10546875 5.203125 -39.73046875 3.078125 C-28.9204761 -4.64329832 -12.03895362 -5.98785084 0 0 Z " fill="#F6AFA8" transform="translate(317.10546875,198.796875)"/>
<path d="M0 0 C2.94269296 1.86876171 4.85934993 3.32579969 6.89453125 6.203125 C7.08203125 8.703125 7.08203125 8.703125 5.89453125 11.203125 C0.44640305 17.22474038 -6.44281023 18.79402155 -14.35546875 19.48828125 C-24.06269248 19.7515668 -32.33167286 18.18296799 -40.10546875 12.203125 C-41.10546875 11.203125 -41.10546875 11.203125 -41.41796875 8.390625 C-41.10546875 5.203125 -41.10546875 5.203125 -39.73046875 3.078125 C-28.9204761 -4.64329832 -12.03895362 -5.98785084 0 0 Z " fill="#F6AFA8" transform="translate(228.10546875,198.796875)"/>
<path d="M0 0 C0.78568359 -0.01224609 1.57136719 -0.02449219 2.38085938 -0.03710938 C7.99044121 -0.05119201 12.40875974 0.7907946 17.4375 3.4375 C19.0625 5.1875 19.0625 5.1875 19.375 8.25 C19.0625 11.1875 19.0625 11.1875 18.0625 13.1875 C10.62660256 12.2900641 10.62660256 12.2900641 7.2265625 11.671875 C-4.42975999 9.88745032 -13.91649088 11.52363983 -24.9375 15.1875 C-26.2667852 15.53662711 -27.5984373 15.87798429 -28.9375 16.1875 C-28.86470074 13.12993105 -28.57296531 10.93817716 -26.55859375 8.55859375 C-18.645011 1.4947917 -10.31329629 0.00841902 0 0 Z " fill="#7C3B85" transform="translate(218.9375,140.8125)"/>
<path d="M0 0 C1.17804199 0.01981934 1.17804199 0.01981934 2.37988281 0.04003906 C12.75495939 0.36012575 20.38252097 2.73076024 28.5 9.3125 C30.61454175 11.97525628 30.88353603 14.09389632 31.1875 17.4375 C30.59324219 17.17195313 29.99898438 16.90640625 29.38671875 16.6328125 C15.28967477 10.62567401 1.63852214 10.35854499 -13.328125 13.09765625 C-14.14796875 13.20980469 -14.9678125 13.32195312 -15.8125 13.4375 C-16.8125 12.4375 -16.8125 12.4375 -16.91015625 10.58984375 C-16.87760417 8.5390625 -16.84505208 6.48828125 -16.8125 4.4375 C-10.93810222 1.07785008 -6.73490003 -0.20021892 0 0 Z " fill="#7B3A85" transform="translate(289.8125,140.5625)"/>
<path d="M0 0 C2.375 0 2.375 0 5 1 C9.66194954 6.95693553 10.48952677 11.68220239 10 19 C8.95454426 23.5303082 7.35634135 26.73955411 4 30 C1.5625 30.8125 1.5625 30.8125 -1 30 C-4.53366878 26.76563103 -5.834306 23.25698893 -6.453125 18.5625 C-6.75799723 8.28395048 -6.75799723 8.28395048 -4.125 4.25 C-2.76944977 2.81471152 -1.3959888 1.3959888 0 0 Z " fill="#31326D" transform="translate(293,163)"/>
<path d="M0 0 C2.6974054 1.14435381 4.17019682 2.65643765 6.0625 4.875 C7.25063473 8.43940418 7.30437953 11.42974782 7.375 15.1875 C7.41238281 16.48300781 7.44976562 17.77851563 7.48828125 19.11328125 C6.96994645 23.69269788 5.32473671 26.61276329 2.0625 29.875 C-0.25 30.25 -0.25 30.25 -2.9375 29.875 C-7.4737819 25.08670244 -8.11098647 22.12865013 -8.1875 15.625 C-8.21328125 14.32046875 -8.2390625 13.0159375 -8.265625 11.671875 C-7.91675691 7.63497287 -7.09331724 5.27998236 -4.9375 1.875 C-1.9375 -0.125 -1.9375 -0.125 0 0 Z " fill="#2F306C" transform="translate(215.9375,163.125)"/>
<path d="M0 0 C4.04160001 0.31907369 7.35736142 1.53717288 11.0625 3.0625 C20.75318304 6.67017276 30.49909679 5.81435893 40 2 C40.69480469 1.6390625 41.38960938 1.278125 42.10546875 0.90625 C44.49705529 -0.23776666 46.38270042 -0.14540553 49 0 C48.86328125 2.296875 48.86328125 2.296875 48 5 C45.41796875 6.765625 45.41796875 6.765625 42.1875 8.25 C40.60001953 9.00023437 40.60001953 9.00023437 38.98046875 9.765625 C29.02572541 13.88842827 17.0494364 12.70690706 7.12109375 8.89453125 C0.29361701 5.73815864 0.29361701 5.73815864 -0.8359375 2.8984375 C-0.89007813 2.27195313 -0.94421875 1.64546875 -1 1 C-0.67 0.67 -0.34 0.34 0 0 Z " fill="#E9857D" transform="translate(231,248)"/>
<path d="M0 0 C1.65 0.33 3.3 0.66 5 1 C4.38441524 7.47829676 1.26379531 11.5835462 -2.28515625 16.87890625 C-4.01338872 20.02436808 -4.76271121 21.50474074 -4 25 C-2.27790727 26.680005 -2.27790727 26.680005 0 27.8125 C0.7425 28.23144531 1.485 28.65039062 2.25 29.08203125 C3.11625 29.53642578 3.11625 29.53642578 4 30 C3.67 31.32 3.34 32.64 3 34 C-3.15423406 33.63074596 -5.72703501 32.17122773 -10 28 C-11.61606348 24.76787305 -11.49718253 21.50079638 -11 18 C-9.85914677 15.34119714 -8.31320497 13.09070136 -6.625 10.75 C-2.98313059 5.57109002 -2.98313059 5.57109002 0 0 Z " fill="#E9857D" transform="translate(256,204)"/>
<path d="M0 0 C2.0625 0.4375 2.0625 0.4375 4 1 C3.39254603 5.85963179 1.27241033 9.7405518 -1 14 C1.64 14 4.28 14 7 14 C7.33 15.65 7.66 17.3 8 19 C4.37 19 0.74 19 -3 19 C-2.67 23.95 -2.34 28.9 -2 34 C-4.97 34.495 -4.97 34.495 -8 35 C-9.25285766 31.24142702 -8.48192616 28.50757776 -7.6875 24.75 C-6.10597515 16.86508576 -4.97481942 8.98205082 -4 1 C-3.01 1 -2.02 1 -1 1 C-0.67 0.67 -0.34 0.34 0 0 Z " fill="#E6827C" transform="translate(363,168)"/>
<path d="M0 0 C2.00720923 0.28674418 4.0085944 0.61866701 6 1 C6.74195266 5.17896732 7.47195834 9.359797 8.19116211 13.54272461 C8.43726867 14.96418823 8.68658048 16.3851009 8.93920898 17.80541992 C9.30264234 19.85197264 9.65434475 21.90025685 10.00390625 23.94921875 C10.21861572 25.17987061 10.4333252 26.41052246 10.65454102 27.6784668 C10.97839067 30.79222969 10.81819629 33.00326281 10 36 C8.35 35.34 6.7 34.68 5 34 C5.33 29.38 5.66 24.76 6 20 C2.7 20 -0.6 20 -4 20 C-4.38218767 18.34385343 -4.71395102 16.67542976 -5 15 C-4 14 -4 14 -2.15234375 13.90234375 C-0.1015625 13.93489583 1.94921875 13.96744792 4 14 C3.58427734 13.22076172 3.58427734 13.22076172 3.16015625 12.42578125 C-0.62352941 5.14117647 -0.62352941 5.14117647 -1 1 C-0.67 0.67 -0.34 0.34 0 0 Z " fill="#E5827C" transform="translate(146,168)"/>
<path d="M0 0 C3.375 0.9375 3.375 0.9375 5.375 3.9375 C5.84149698 7.59172636 5.84496298 9.27607062 3.6875 12.3125 C1.375 13.9375 1.375 13.9375 -1.125 14.4375 C-4.49513879 13.76347224 -5.64177007 12.7287125 -7.625 9.9375 C-8.23475382 6.27897708 -8.07043026 4.63237121 -6.0625 1.5 C-3.625 -0.0625 -3.625 -0.0625 0 0 Z " fill="#FEFAF9" transform="translate(151.625,202.0625)"/>
<path d="M0 0 C3.375 0.9375 3.375 0.9375 5.375 3.9375 C5.84149698 7.59172636 5.84496298 9.27607062 3.6875 12.3125 C1.375 13.9375 1.375 13.9375 -1.125 14.4375 C-4.49513879 13.76347224 -5.64177007 12.7287125 -7.625 9.9375 C-8.23475382 6.27897708 -8.07043026 4.63237121 -6.0625 1.5 C-3.625 -0.0625 -3.625 -0.0625 0 0 Z " fill="#FEFAFA" transform="translate(360.625,202.0625)"/>
<path d="M0 0 C3.4375 0.8125 3.4375 0.8125 5.4375 3.8125 C4.99305556 9.25694444 4.99305556 9.25694444 2.4375 11.8125 C-1 12.1875 -1 12.1875 -4.5625 11.8125 C-6.5625 10.1875 -6.5625 10.1875 -7.5625 7.8125 C-7.4375 4.6875 -7.4375 4.6875 -6.5625 1.8125 C-3.5625 -0.1875 -3.5625 -0.1875 0 0 Z " fill="#BA81B6" transform="translate(43.5625,490.1875)"/>
<path d="M0 0 C3.4375 0.8125 3.4375 0.8125 5.4375 3.8125 C4.99305556 9.25694444 4.99305556 9.25694444 2.4375 11.8125 C-1 12.1875 -1 12.1875 -4.5625 11.8125 C-6.5625 10.1875 -6.5625 10.1875 -7.5625 7.8125 C-7.4375 4.6875 -7.4375 4.6875 -6.5625 1.8125 C-3.5625 -0.1875 -3.5625 -0.1875 0 0 Z " fill="#BA81B6" transform="translate(470.5625,490.1875)"/>
<path d="M0 0 C3.4375 0.875 3.4375 0.875 5.4375 3.875 C4.99305556 9.31944444 4.99305556 9.31944444 2.4375 11.875 C-1 12.25 -1 12.25 -4.5625 11.875 C-6.5625 10.1875 -6.5625 10.1875 -7.5625 7.875 C-7.42590503 5.0748031 -6.87403277 3.39422128 -5.4375 1 C-3.5625 -0.125 -3.5625 -0.125 0 0 Z " fill="#BA81B6" transform="translate(171.5625,490.125)"/>
<path d="M0 0 C3.5625 0.375 3.5625 0.375 5.5625 2.0625 C6.84050253 5.01788086 6.64301862 6.36498383 5.5625 9.375 C4.4375 11.25 4.4375 11.25 2.5625 12.375 C-1 12.25 -1 12.25 -4.4375 11.375 C-6.4375 8.375 -6.4375 8.375 -6.1875 5.3125 C-5.10753599 1.08264094 -4.36622246 0.47631518 0 0 Z " fill="#BA81B6" transform="translate(405.4375,455.625)"/>
<path d="M0 0 C3.4375 0.875 3.4375 0.875 5.4375 3.875 C4.99305556 9.31944444 4.99305556 9.31944444 2.4375 11.875 C-1 12.25 -1 12.25 -4.5625 11.875 C-6.5625 10.1875 -6.5625 10.1875 -7.5625 7.875 C-7.42590503 5.0748031 -6.87403277 3.39422128 -5.4375 1 C-3.5625 -0.125 -3.5625 -0.125 0 0 Z " fill="#BA81B6" transform="translate(171.5625,422.125)"/>
<path d="M0 0 C2.375 1.625 2.375 1.625 4 4 C3.85205998 7.6985004 3.64194427 9.35805573 1 12 C-2.4375 12.375 -2.4375 12.375 -6 12 C-8 10.375 -8 10.375 -9 8 C-8.875 4.875 -8.875 4.875 -8 2 C-4.75173326 -0.16551116 -3.76905843 -0.55156953 0 0 Z " fill="#BA80B6" transform="translate(344,490)"/>
<path d="M0 0 C3.5625 0.3125 3.5625 0.3125 5.5625 1.375 C7.19628851 4.54046524 6.41517564 6.96270286 5.5625 10.3125 C2.32096834 12.4735211 1.32557099 12.95497553 -2.4375 12.3125 C-4.8125 10.125 -4.8125 10.125 -6.4375 7.3125 C-6.21102591 2.44330699 -5.02322095 0.45665645 0 0 Z " fill="#BA80B6" transform="translate(362.4375,455.6875)"/>
<path d="M0 0 C3.5625 0.375 3.5625 0.375 5.5625 2.0625 C6.84050253 5.01788086 6.64301862 6.36498383 5.5625 9.375 C4.4375 11.25 4.4375 11.25 2.5625 12.375 C-1 12.25 -1 12.25 -4.4375 11.375 C-6.4375 8.375 -6.4375 8.375 -6.1875 5.3125 C-5.10753599 1.08264094 -4.36622246 0.47631518 0 0 Z " fill="#BA80B6" transform="translate(277.4375,455.625)"/>
<path d="M0 0 C3.5625 0.375 3.5625 0.375 5.5625 2 C6.91448496 5.21096428 6.56701167 7.07446166 5.5625 10.375 C2.31423326 12.54051116 1.33155843 12.92656953 -2.4375 12.375 C-4.8125 10.75 -4.8125 10.75 -6.4375 8.375 C-6.22762508 3.12812696 -5.54350643 0.60474616 0 0 Z " fill="#BA80B6" transform="translate(234.4375,455.625)"/>
<path d="M0 0 C3.5625 0.375 3.5625 0.375 5.5625 2 C6.91448496 5.21096428 6.56701167 7.07446166 5.5625 10.375 C2.31423326 12.54051116 1.33155843 12.92656953 -2.4375 12.375 C-4.8125 10.75 -4.8125 10.75 -6.4375 8.375 C-6.22762508 3.12812696 -5.54350643 0.60474616 0 0 Z " fill="#BA80B6" transform="translate(106.4375,455.625)"/>
<path d="M0 0 C2.375 1.625 2.375 1.625 4 4 C3.85205998 7.6985004 3.64194427 9.35805573 1 12 C-2.4375 12.375 -2.4375 12.375 -6 12 C-8 10.375 -8 10.375 -9 8 C-8.875 4.875 -8.875 4.875 -8 2 C-4.75173326 -0.16551116 -3.76905843 -0.55156953 0 0 Z " fill="#BA80B6" transform="translate(344,422)"/>
<path d="M0 0 C3.5625 0.3125 3.5625 0.3125 5.5625 1.375 C7.19628851 4.54046524 6.41517564 6.96270286 5.5625 10.3125 C2.32096834 12.4735211 1.32557099 12.95497553 -2.4375 12.3125 C-4.8125 10.125 -4.8125 10.125 -6.4375 7.3125 C-6.21102591 2.44330699 -5.02322095 0.45665645 0 0 Z " fill="#BA80B6" transform="translate(362.4375,387.6875)"/>
<path d="M0 0 C3.5625 0.375 3.5625 0.375 5.5625 2.0625 C6.84050253 5.01788086 6.64301862 6.36498383 5.5625 9.375 C4.4375 11.25 4.4375 11.25 2.5625 12.375 C-1 12.25 -1 12.25 -4.4375 11.375 C-6.4375 8.375 -6.4375 8.375 -6.1875 5.3125 C-5.10753599 1.08264094 -4.36622246 0.47631518 0 0 Z " fill="#BA80B6" transform="translate(277.4375,387.625)"/>
<path d="M0 0 C3.5625 0.375 3.5625 0.375 5.5625 2 C6.91448496 5.21096428 6.56701167 7.07446166 5.5625 10.375 C2.31423326 12.54051116 1.33155843 12.92656953 -2.4375 12.375 C-4.8125 10.75 -4.8125 10.75 -6.4375 8.375 C-6.22762508 3.12812696 -5.54350643 0.60474616 0 0 Z " fill="#BA80B6" transform="translate(234.4375,387.625)"/>
<path d="M0 0 C1.875 1.125 1.875 1.125 3 3 C3.39365568 6.14924548 3.52854531 8.11909116 1.875 10.875 C-0.88090884 12.52854531 -2.85075452 12.39365568 -6 12 C-7.875 10.875 -7.875 10.875 -9 9 C-9.39365568 5.85075452 -9.52854531 3.88090884 -7.875 1.125 C-5.11909116 -0.52854531 -3.14924548 -0.39365568 0 0 Z " fill="#BA80B6" transform="translate(259,490)"/>
<path d="M0 0 C1.875 1.125 1.875 1.125 3 3 C3.39365568 6.14924548 3.52854531 8.11909116 1.875 10.875 C-0.88090884 12.52854531 -2.85075452 12.39365568 -6 12 C-7.875 10.875 -7.875 10.875 -9 9 C-9.39365568 5.85075452 -9.52854531 3.88090884 -7.875 1.125 C-5.11909116 -0.52854531 -3.14924548 -0.39365568 0 0 Z " fill="#BA80B6" transform="translate(451,456)"/>
<path d="M0 0 C1.875 1.125 1.875 1.125 3 3 C3.39365568 6.14924548 3.52854531 8.11909116 1.875 10.875 C-0.88090884 12.52854531 -2.85075452 12.39365568 -6 12 C-7.875 10.875 -7.875 10.875 -9 9 C-9.39365568 5.85075452 -9.52854531 3.88090884 -7.875 1.125 C-5.11909116 -0.52854531 -3.14924548 -0.39365568 0 0 Z " fill="#BA80B6" transform="translate(323,456)"/>
<path d="M0 0 C1.875 1.125 1.875 1.125 3 3 C3.39365568 6.14924548 3.52854531 8.11909116 1.875 10.875 C-0.88090884 12.52854531 -2.85075452 12.39365568 -6 12 C-7.875 10.875 -7.875 10.875 -9 9 C-9.39365568 5.85075452 -9.52854531 3.88090884 -7.875 1.125 C-5.11909116 -0.52854531 -3.14924548 -0.39365568 0 0 Z " fill="#BA80B6" transform="translate(195,456)"/>
<path d="M0 0 C1.875 1.125 1.875 1.125 3 3 C3.39365568 6.14924548 3.52854531 8.11909116 1.875 10.875 C-0.88090884 12.52854531 -2.85075452 12.39365568 -6 12 C-7.875 10.875 -7.875 10.875 -9 9 C-9.39365568 5.85075452 -9.52854531 3.88090884 -7.875 1.125 C-5.11909116 -0.52854531 -3.14924548 -0.39365568 0 0 Z " fill="#BA80B6" transform="translate(259,422)"/>
<path d="M0 0 C1.875 1.125 1.875 1.125 3 3 C3.39365568 6.14924548 3.52854531 8.11909116 1.875 10.875 C-0.88090884 12.52854531 -2.85075452 12.39365568 -6 12 C-7.875 10.875 -7.875 10.875 -9 9 C-9.39365568 5.85075452 -9.52854531 3.88090884 -7.875 1.125 C-5.11909116 -0.52854531 -3.14924548 -0.39365568 0 0 Z " fill="#BA80B6" transform="translate(131,422)"/>
<path d="M0 0 C1.875 1.125 1.875 1.125 3 3 C3.39365568 6.14924548 3.52854531 8.11909116 1.875 10.875 C-0.88090884 12.52854531 -2.85075452 12.39365568 -6 12 C-7.875 10.875 -7.875 10.875 -9 9 C-9.39365568 5.85075452 -9.52854531 3.88090884 -7.875 1.125 C-5.11909116 -0.52854531 -3.14924548 -0.39365568 0 0 Z " fill="#BA80B6" transform="translate(323,388)"/>
<path d="M0 0 C1.875 1.125 1.875 1.125 3 3 C3.39365568 6.14924548 3.52854531 8.11909116 1.875 10.875 C-0.88090884 12.52854531 -2.85075452 12.39365568 -6 12 C-7.875 10.875 -7.875 10.875 -9 9 C-9.39365568 5.85075452 -9.52854531 3.88090884 -7.875 1.125 C-5.11909116 -0.52854531 -3.14924548 -0.39365568 0 0 Z " fill="#BA80B6" transform="translate(195,388)"/>
<path d="M0 0 C2.15502531 3.23253796 2.46856135 4.25150923 2 8 C0.9375 9.8125 0.9375 9.8125 -1 11 C-4.5625 11.3125 -4.5625 11.3125 -8 11 C-10 9 -10 9 -10.3125 5.5625 C-10 2 -10 2 -8.9375 0 C-5.77203476 -1.63378851 -3.34979714 -0.85267564 0 0 Z " fill="#BA80B6" transform="translate(431,491)"/>
<path d="M0 0 C1.875 1.125 1.875 1.125 3 3 C3.39365568 6.14924548 3.52854531 8.11909116 1.875 10.875 C-0.88090884 12.52854531 -2.85075452 12.39365568 -6 12 C-7.875 10.875 -7.875 10.875 -9 9 C-9.39365568 5.85075452 -9.52854531 3.88090884 -7.875 1.125 C-5.11909116 -0.52854531 -3.14924548 -0.39365568 0 0 Z " fill="#BA80B6" transform="translate(387,490)"/>
<path d="M0 0 C1.875 1.125 1.875 1.125 3 3 C3.39365568 6.14924548 3.52854531 8.11909116 1.875 10.875 C-0.88090884 12.52854531 -2.85075452 12.39365568 -6 12 C-7.875 10.875 -7.875 10.875 -9 9 C-9.39365568 5.85075452 -9.52854531 3.88090884 -7.875 1.125 C-5.11909116 -0.52854531 -3.14924548 -0.39365568 0 0 Z " fill="#BA80B6" transform="translate(131,490)"/>
<path d="M0 0 C1.8125 1.0625 1.8125 1.0625 3 3 C3.3125 6.5625 3.3125 6.5625 3 10 C1 12 1 12 -2.4375 12.3125 C-6 12 -6 12 -8 10.9375 C-9.63378851 7.77203476 -8.85267564 5.34979714 -8 2 C-4.76746204 -0.15502531 -3.74849077 -0.46856135 0 0 Z " fill="#BA80B6" transform="translate(88,490)"/>
<path d="M0 0 C2 2 2 2 2.3125 5.4375 C2 9 2 9 0.9375 11 C-2.22796524 12.63378851 -4.65020286 11.85267564 -8 11 C-10.15502531 7.76746204 -10.46856135 6.74849077 -10 3 C-7.65916893 -0.99318242 -4.22752593 -0.38432054 0 0 Z " fill="#BA80B6" transform="translate(153,456)"/>
<path d="M0 0 C2.15502531 3.23253796 2.46856135 4.25150923 2 8 C0.9375 9.8125 0.9375 9.8125 -1 11 C-4.5625 11.3125 -4.5625 11.3125 -8 11 C-10 9 -10 9 -10.3125 5.5625 C-10 2 -10 2 -8.9375 0 C-5.77203476 -1.63378851 -3.34979714 -0.85267564 0 0 Z " fill="#BA81B6" transform="translate(431,423)"/>
<path d="M0 0 C1.875 1.125 1.875 1.125 3 3 C3.39365568 6.14924548 3.52854531 8.11909116 1.875 10.875 C-0.88090884 12.52854531 -2.85075452 12.39365568 -6 12 C-7.875 10.875 -7.875 10.875 -9 9 C-9.39365568 5.85075452 -9.52854531 3.88090884 -7.875 1.125 C-5.11909116 -0.52854531 -3.14924548 -0.39365568 0 0 Z " fill="#BA80B6" transform="translate(387,422)"/>
<path d="M0 0 C1.8125 1.0625 1.8125 1.0625 3 3 C3.3125 6.5625 3.3125 6.5625 3 10 C1 12 1 12 -2.4375 12.3125 C-6 12 -6 12 -8 10.9375 C-9.63378851 7.77203476 -8.85267564 5.34979714 -8 2 C-4.76746204 -0.15502531 -3.74849077 -0.46856135 0 0 Z " fill="#BA80B6" transform="translate(216,422)"/>
<path d="M0 0 C1.8125 1.0625 1.8125 1.0625 3 3 C3.3125 6.5625 3.3125 6.5625 3 10 C1 12 1 12 -2.4375 12.3125 C-6 12 -6 12 -8 10.9375 C-9.63378851 7.77203476 -8.85267564 5.34979714 -8 2 C-4.76746204 -0.15502531 -3.74849077 -0.46856135 0 0 Z " fill="#BA81B6" transform="translate(88,422)"/>
<path d="M0 0 C2 2 2 2 2.3125 5.4375 C2 9 2 9 0.9375 11 C-2.22796524 12.63378851 -4.65020286 11.85267564 -8 11 C-10.15502531 7.76746204 -10.46856135 6.74849077 -10 3 C-7.65916893 -0.99318242 -4.22752593 -0.38432054 0 0 Z " fill="#BA80B6" transform="translate(153,388)"/>
<path d="M0 0 C2.15502531 3.23253796 2.46856135 4.25150923 2 8 C0.9375 9.8125 0.9375 9.8125 -1 11 C-4.5625 11.3125 -4.5625 11.3125 -8 11 C-10 9 -10 9 -10.3125 5.5625 C-10 2 -10 2 -8.9375 0 C-5.77203476 -1.63378851 -3.34979714 -0.85267564 0 0 Z " fill="#BA80B6" transform="translate(303,355)"/>
<path d="M0 0 C2 3 2 3 1.75 6.0625 C1 9 1 9 -1 11 C-4.5 11.25 -4.5 11.25 -8 11 C-10 9 -10 9 -10.3125 5.5625 C-10 2 -10 2 -8.9375 0 C-5.77203476 -1.63378851 -3.34979714 -0.85267564 0 0 Z " fill="#BA80B6" transform="translate(303,491)"/>
<path d="M0 0 C1.8125 1.0625 1.8125 1.0625 3 3 C3.3125 6.5625 3.3125 6.5625 3 10 C1 12 1 12 -2.4375 12.375 C-6 12 -6 12 -8 10.375 C-9.35198496 7.16403572 -9.00451167 5.30053834 -8 2 C-4.76746204 -0.15502531 -3.74849077 -0.46856135 0 0 Z " fill="#BA80B6" transform="translate(216,490)"/>
<path d="M0 0 C1.875 1.125 1.875 1.125 3 3 C3.4375 6 3.4375 6 3 9 C0.88310295 11.35210784 -0.44041515 11.91810953 -3.5625 12.375 C-6 12 -6 12 -7.8125 10.875 C-9.55198782 8.12844028 -9.39769128 6.18153026 -9 3 C-6.79086995 -0.68188342 -4.01844539 -0.50230567 0 0 Z " fill="#BA80B6" transform="translate(67,456)"/>
<path d="M0 0 C2 3 2 3 1.75 6.0625 C1 9 1 9 -1 11 C-4.5 11.25 -4.5 11.25 -8 11 C-10 9 -10 9 -10.3125 5.5625 C-10 2 -10 2 -8.9375 0 C-5.77203476 -1.63378851 -3.34979714 -0.85267564 0 0 Z " fill="#BA80B6" transform="translate(303,423)"/>
<path d="M0 0 C1.8125 1.0625 1.8125 1.0625 3 3 C3.3125 6.5625 3.3125 6.5625 3 10 C1 12 1 12 -2.4375 12.375 C-6 12 -6 12 -8 10.375 C-9.35198496 7.16403572 -9.00451167 5.30053834 -8 2 C-4.76746204 -0.15502531 -3.74849077 -0.46856135 0 0 Z " fill="#BA80B6" transform="translate(216,354)"/>
</svg>
