<?xml version="1.0" encoding="UTF-8"?>
<svg version="1.1" xmlns="http://www.w3.org/2000/svg" width="512" height="512">
<path d="M0 0 C4.00654169 1.3355139 5.22885534 3.8914491 7.375 7.3125 C7.97163452 8.25440186 7.97163452 8.25440186 8.58032227 9.21533203 C15.55097291 20.49518972 20.26965122 32.57530549 19 46 C18.37948388 48.34602827 17.7217047 50.68309879 17 53 C17.9178125 53.85980469 18.835625 54.71960937 19.78125 55.60546875 C27.66238734 63.13310995 33.99040128 70.22902591 39 80 C39.30486328 80.58942383 39.60972656 81.17884766 39.92382812 81.78613281 C54.2601347 110.08462522 55.58383925 144.14093931 51 175 C51.76957031 175.26425781 52.53914063 175.52851563 53.33203125 175.80078125 C56.05412102 177.02432672 57.03087751 177.78237033 58.6875 180.1875 C59.08324219 180.73792969 59.47898437 181.28835937 59.88671875 181.85546875 C62.98539292 187.82449373 63.35834383 193.74307956 63.3125 200.3125 C63.30686035 201.15482178 63.3012207 201.99714355 63.29541016 202.86499023 C63.0707627 214.36983161 59.55609959 224.00526097 51.625 232.5625 C48.10708138 234.48897924 45.01424931 235.22736959 41 235 C36 233 36 233 34 231 C33.76925781 231.70382813 33.53851563 232.40765625 33.30078125 233.1328125 C23.82697714 261.81634588 11.18717681 294.90852554 -17.359375 309.74609375 C-18.23078125 310.15988281 -19.1021875 310.57367188 -20 311 C-20.85154208 330.77052431 -20.85154208 330.77052431 -17 350 C-16.8136499 350.62342285 -16.6272998 351.2468457 -16.43530273 351.88916016 C-13.63289107 359.29865456 -7.27839399 361.8034796 -0.5625 365.25 C0.66523208 365.90171173 1.89161947 366.55596251 3.11669922 367.21264648 C5.58341665 368.53340713 8.05473168 369.84483707 10.52978516 371.14990234 C15.28792308 373.6866386 19.95941879 376.36043652 24.625 379.0625 C32.22034072 383.42877204 39.85107526 387.72834105 47.5 392 C56.09293682 396.80008376 64.65946156 401.6425447 73.19848633 406.5378418 C78.56449873 409.61277061 83.94188378 412.66638411 89.33056641 415.70141602 C92.20132587 417.32029669 95.0675515 418.9470043 97.93359375 420.57421875 C102.22070775 423.00553707 106.5290826 425.39458873 110.84765625 427.76953125 C126.91043837 436.68613897 138.8684692 444.60638566 148 461 C148.46019531 461.79921875 148.92039062 462.5984375 149.39453125 463.421875 C157.58598792 478.56740818 159 495.06044853 159 512 C17.76 512 -123.48 512 -269 512 C-269 495.4776307 -269 495.4776307 -267.875 489.125 C-267.67922363 488.00146118 -267.67922363 488.00146118 -267.47949219 486.85522461 C-263.71168208 467.00738678 -253.39055445 449.13276554 -237 437 C-232.91729234 434.48860723 -228.71807221 432.21230145 -224.5 429.9375 C-223.29340776 429.27848976 -222.08736104 428.61847985 -220.88183594 427.95751953 C-219.04017864 426.94786881 -217.19825739 425.93874976 -215.35467529 424.93261719 C-209.62116732 421.8029188 -203.9309015 418.59914863 -198.25 415.375 C-196.85201172 414.58307251 -196.85201172 414.58307251 -195.42578125 413.77514648 C-193.55383445 412.71471199 -191.68208836 411.6539231 -189.81054688 410.59277344 C-185.04281915 407.89084018 -180.2711908 405.19581166 -175.5 402.5 C-173.58331515 401.41669884 -171.66664847 400.33336552 -169.75 399.25 C-158.25 392.75 -158.25 392.75 -155.37475586 391.125 C-153.45874532 390.04194555 -151.54289234 388.95861234 -149.62719727 387.875 C-144.82674707 385.16008824 -140.02362897 382.45012438 -135.21484375 379.75 C-131.38780387 377.60106176 -127.56988112 375.43709291 -123.7578125 373.26171875 C-119.79982198 371.00437424 -115.81308208 368.81097608 -111.8046875 366.64453125 C-109.80683891 365.53466877 -107.80942802 364.42401796 -105.8125 363.3125 C-104.8855835 362.82652344 -103.95866699 362.34054687 -103.00366211 361.83984375 C-97.37320321 358.65344762 -94.66450886 355.89244893 -92.67602539 349.68359375 C-90.41628573 340.71318625 -89.63481977 332.05234041 -89.375 322.8125 C-89.31699219 321.09836914 -89.31699219 321.09836914 -89.2578125 319.34960938 C-89.16465589 316.56655555 -89.07884151 313.78348978 -89 311 C-89.76803955 310.86585693 -90.5360791 310.73171387 -91.32739258 310.59350586 C-105.75655168 307.38922288 -117.13720773 291.5840349 -124.8359375 279.83105469 C-130.41679502 271.05244071 -134.62210964 261.88118328 -138.375 252.1875 C-138.70902832 251.32825928 -139.04305664 250.46901855 -139.38720703 249.58374023 C-141.5458382 243.80276375 -142.96919013 238.0817782 -144 232 C-144.99 232.515625 -145.98 233.03125 -147 233.5625 C-151.10289222 235.29483227 -154.80445461 235.63116531 -159 234 C-163.75809785 230.63843476 -166.35670763 227.30859506 -168.8125 222 C-169.11091797 221.39671875 -169.40933594 220.7934375 -169.71679688 220.171875 C-172.86982353 213.62382868 -173.2053459 207.88349327 -173.25 200.75 C-173.270625 199.94175781 -173.29125 199.13351563 -173.3125 198.30078125 C-173.36949576 189.39519351 -171.26007505 182.42058979 -165 176 C-164.34 175.67 -163.68 175.34 -163 175 C-163.07001221 174.22688477 -163.14002441 173.45376953 -163.2121582 172.65722656 C-166.35489337 135.47791923 -164.17354285 95.92452752 -140.84375 65.15625 C-126.05046534 47.79022018 -105.25728195 39.96964751 -83 38 C-80.80164795 37.8916907 -78.6046668 37.8226632 -76.40454102 37.76098633 C-60.72474557 37.26900067 -42.35396816 35.0193053 -30.875 23.1875 C-27.66169789 19.14546303 -26.575349 15.07246467 -26 10 C-21.61524362 11.91718427 -19.74268065 14.62016544 -18 19 C-17.12852774 22.64255822 -16.50977426 26.29072152 -16 30 C-6.55220169 20.82213878 -1.84288444 13.19117285 0 0 Z " fill="#F7C4B7" transform="translate(311,0)"/>
<path d="M0 0 C1.27024496 2.48942479 2.45994033 4.99929482 3.62890625 7.5390625 C11.81675089 25.03244397 23.33111265 35.4248731 41 43 C44.96354372 44.29362286 48.90590354 45.22705852 53 46 C54.17393311 46.25269653 54.17393311 46.25269653 55.37158203 46.51049805 C62.47503191 47.95716533 69.26429068 48.27184262 76.5 48.1875 C77.55058594 48.18685547 78.60117188 48.18621094 79.68359375 48.18554688 C104.53182142 48.04733053 131.06624214 42.82100462 149.890625 25.3984375 C156.0162806 18.4333402 159.61168441 10.10118 161 1 C164.45868703 1.562587 167.07818799 2.3912658 170.09765625 4.16015625 C170.88430664 4.61567871 171.67095703 5.07120117 172.48144531 5.54052734 C173.33319336 6.04277832 174.18494141 6.5450293 175.0625 7.0625 C176.95423657 8.16048455 178.84617425 9.25812266 180.73828125 10.35546875 C181.74971191 10.94505371 182.76114258 11.53463867 183.80322266 12.14208984 C188.84582271 15.07275934 193.90902781 17.96732215 198.97341919 20.86010742 C200.76448654 21.88327561 202.554976 22.90745026 204.34545898 23.93164062 C211.06075669 27.76991258 217.7927064 31.57622127 224.54736328 35.3449707 C227.61260299 37.05558163 230.67376399 38.77331123 233.734375 40.4921875 C237.54307127 42.63080547 241.36161234 44.74967856 245.19102478 46.85096741 C261.8393659 56.00934988 274.54298811 64.0220574 284 81 C284.69029297 82.19882812 284.69029297 82.19882812 285.39453125 83.421875 C293.58598792 98.56740818 295 115.06044853 295 132 C153.76 132 12.52 132 -133 132 C-133 115.4776307 -133 115.4776307 -131.875 109.125 C-131.67922363 108.00146118 -131.67922363 108.00146118 -131.47949219 106.85522461 C-127.71168208 87.00738678 -117.39055445 69.13276554 -101 57 C-96.91729234 54.48860723 -92.71807221 52.21230145 -88.5 49.9375 C-87.29340776 49.27848976 -86.08736104 48.61847985 -84.88183594 47.95751953 C-83.04017864 46.94786881 -81.19825739 45.93874976 -79.35467529 44.93261719 C-73.62116732 41.8029188 -67.9309015 38.59914863 -62.25 35.375 C-61.31800781 34.84704834 -60.38601562 34.31909668 -59.42578125 33.77514648 C-57.55383445 32.71471199 -55.68208836 31.6539231 -53.81054688 30.59277344 C-49.04281906 27.89084013 -44.27116135 25.19586393 -39.5 22.5 C-37.60676488 21.42969803 -35.71353573 20.35938551 -33.8203125 19.2890625 C-29.75362318 16.99037849 -25.68572091 14.6938559 -21.6171875 12.3984375 C-20.05000977 11.51381836 -20.05000977 11.51381836 -18.45117188 10.61132812 C-16.45017689 9.48187762 -14.44889032 8.35294351 -12.44726562 7.22460938 C-11.0927832 6.45987305 -11.0927832 6.45987305 -9.7109375 5.6796875 C-8.91993652 5.23351074 -8.12893555 4.78733398 -7.31396484 4.32763672 C-4.85588954 2.91731666 -2.42555572 1.46542873 0 0 Z " fill="#382E6A" transform="translate(175,380)"/>
<path d="M0 0 C4.00654169 1.3355139 5.22885534 3.8914491 7.375 7.3125 C7.77275635 7.94043457 8.1705127 8.56836914 8.58032227 9.21533203 C15.55097291 20.49518972 20.26965122 32.57530549 19 46 C18.37948388 48.34602827 17.7217047 50.68309879 17 53 C17.9178125 53.85980469 18.835625 54.71960937 19.78125 55.60546875 C27.66238734 63.13310995 33.99040128 70.22902591 39 80 C39.30486328 80.58942383 39.60972656 81.17884766 39.92382812 81.78613281 C53.18395258 107.96034507 54.91233214 138.90815397 52.375 167.6875 C52.30780762 168.7386499 52.30780762 168.7386499 52.23925781 169.81103516 C52.0234375 171.76171875 52.0234375 171.76171875 51 175 C48.0234375 176.703125 48.0234375 176.703125 45 178 C41.2640877 183.89028839 41.35613374 192.58624091 40.82128906 199.40258789 C40.35201978 204.73439751 39.06323259 209.05496972 37 214 C36.34 214 35.68 214 35 214 C32.28264481 206.75371949 31.86267703 199.80805711 32.0703125 192.15234375 C32.31358648 173.51797077 31.03209112 159.60603833 21.27832031 143.19628906 C15.93466406 134.01532428 13.83964349 123.70686564 11.69775391 113.42358398 C11.50487793 112.50778564 11.31200195 111.5919873 11.11328125 110.6484375 C10.94610596 109.82520996 10.77893066 109.00198242 10.60668945 108.15380859 C10.04393899 105.73188667 10.04393899 105.73188667 8 103 C6.90667358 103.3853894 6.90667358 103.3853894 5.79125977 103.77856445 C-8.00447987 108.60604112 -21.43219711 113.29865076 -36 115 C-36.74838135 115.08991211 -37.4967627 115.17982422 -38.26782227 115.27246094 C-65.84669337 118.35047217 -96.51697482 116.22407118 -121 102 C-121.09796875 102.66902344 -121.1959375 103.33804688 -121.296875 104.02734375 C-123.16601401 116.03172791 -125.33804429 127.89435049 -130.25 139.0625 C-130.54302002 139.7313623 -130.83604004 140.40022461 -131.13793945 141.08935547 C-132.62117362 144.35128563 -134.19790972 147.38646719 -136.1953125 150.36328125 C-143.44037442 161.69876428 -142.90280451 173.71470883 -142.87124634 186.73217773 C-142.83319773 206.63646203 -142.83319773 206.63646203 -147 214 C-152.87541927 208.12458073 -152.61406256 197.61866541 -153.17773438 189.77758789 C-153.57797747 184.9345474 -154.17418513 181.11256985 -157 177 C-158.25151855 176.60361328 -158.25151855 176.60361328 -159.52832031 176.19921875 C-162 175 -162 175 -162.91699219 172.46191406 C-163.89901189 164.19931638 -164.31439689 156.07052264 -164.25 147.75 C-164.24323242 146.47801758 -164.23646484 145.20603516 -164.22949219 143.89550781 C-163.90540058 114.31272718 -157.63726384 82.36160524 -136.4296875 60.2734375 C-119.82788524 44.73927526 -98.80094408 38.38883224 -76.40454102 37.76098633 C-60.72474557 37.26900067 -42.35396816 35.0193053 -30.875 23.1875 C-27.66169789 19.14546303 -26.575349 15.07246467 -26 10 C-21.61524362 11.91718427 -19.74268065 14.62016544 -18 19 C-17.12852774 22.64255822 -16.50977426 26.29072152 -16 30 C-6.55220169 20.82213878 -1.84288444 13.19117285 0 0 Z " fill="#3F5AA6" transform="translate(311,0)"/>
<path d="M0 0 C0.09796875 1.29292969 0.1959375 2.58585937 0.296875 3.91796875 C1.16671051 22.05106437 1.16671051 22.05106437 10 37 C11.77529599 38.12971841 13.59248026 39.19518062 15.4375 40.20703125 C16.49839844 40.79419922 17.55929687 41.38136719 18.65234375 41.98632812 C19.75707031 42.58896484 20.86179687 43.19160156 22 43.8125 C24.16727246 45.00541047 26.33394081 46.19941917 28.5 47.39453125 C29.56605469 47.98186035 30.63210938 48.56918945 31.73046875 49.17431641 C36.86442941 52.04108446 41.93510823 55.01296867 47 58 C43.93123451 72.73007433 38.41043874 83.1901732 25.8125 91.625 C-0.04641906 107.39435446 -34.8177496 111.24527709 -64.15380859 104.83618164 C-81.40967775 100.65203077 -97.70551087 91.46221189 -107.25 76.0625 C-108.19027409 74.38803929 -109.10764279 72.70048012 -110 71 C-110.42667969 70.18789063 -110.85335937 69.37578125 -111.29296875 68.5390625 C-113.39529821 64.21960061 -114.5776087 61.74859768 -113 57 C-110.79785156 55.27416992 -110.79785156 55.27416992 -107.890625 53.73046875 C-106.30169434 52.86881104 -106.30169434 52.86881104 -104.68066406 51.98974609 C-103.54854492 51.39500488 -102.41642578 50.80026367 -101.25 50.1875 C-98.95784184 48.93449242 -96.66617026 47.68059431 -94.375 46.42578125 C-90.80602061 44.49796952 -87.22625241 42.59703585 -83.625 40.73046875 C-77.45633271 37.5713499 -77.45633271 37.5713499 -73.82421875 31.9921875 C-73.38529297 30.38730469 -73.38529297 30.38730469 -72.9375 28.75 C-71.90625 25.6328125 -71.90625 25.6328125 -70 23 C-64.67390009 20.57411007 -58.49409758 20.25081233 -52.75488281 19.45263672 C-48.33105708 18.72578694 -44.0934756 17.5009289 -39.8125 16.1875 C-38.9867749 15.93436035 -38.1610498 15.6812207 -37.31030273 15.42041016 C-25.46206055 11.67369974 -14.14149106 6.79917266 -3.125 1.06640625 C-1 0 -1 0 0 0 Z " fill="#F8C4B7" transform="translate(290,322)"/>
<path d="M0 0 C1.66267914 -0.01429802 1.66267914 -0.01429802 3.35894775 -0.02888489 C5.1356485 -0.02751778 5.1356485 -0.02751778 6.94824219 -0.02612305 C8.18121033 -0.03040817 9.41417847 -0.0346933 10.68450928 -0.03910828 C13.2901549 -0.04484346 15.89581653 -0.04535784 18.50146484 -0.04101562 C22.46707853 -0.03786408 26.43193985 -0.06129729 30.39746094 -0.08666992 C32.93522042 -0.08894397 35.47298189 -0.08964592 38.01074219 -0.08862305 C39.18711243 -0.09783279 40.36348267 -0.10704254 41.57550049 -0.11653137 C50.39990991 -0.06750159 59.08379745 0.6982385 65.99511719 6.7121582 C68.53223672 8.84820555 70.99169011 10.83297413 73.80761719 12.5871582 C74.61199219 13.1440332 75.41636719 13.7009082 76.24511719 14.2746582 C76.24511719 14.9346582 76.24511719 15.5946582 76.24511719 16.2746582 C69.08949844 19.66479907 63.20245694 22.25258043 55.24511719 21.2746582 C54.35566406 21.19086914 53.46621094 21.10708008 52.54980469 21.02075195 C46.51776591 20.25669371 41.3561936 18.57543199 35.80761719 16.1496582 C21.35328787 10.08593516 9.71828663 14.52450151 -4.37402344 19.51855469 C-11.52867149 21.79069835 -19.25569706 22.54160477 -26.37988281 19.9621582 C-28.75488281 18.2746582 -28.75488281 18.2746582 -29.75488281 15.2746582 C-28.88863281 14.71004883 -28.02238281 14.14543945 -27.12988281 13.5637207 C-22.83274401 10.7014833 -18.8165758 7.48187068 -14.75488281 4.2980957 C-10.00847922 1.09674537 -5.68404961 0.02702331 0 0 Z " fill="#415BA6" transform="translate(230.7548828125,240.725341796875)"/>
<path d="M0 0 C0.89460937 0.26554687 1.78921875 0.53109375 2.7109375 0.8046875 C6.46628814 1.90166626 10.22852539 2.959867 14 4 C14.83273438 4.23460937 15.66546875 4.46921875 16.5234375 4.7109375 C31.40229061 8.31318615 48.6680679 6.54531163 62.82421875 0.8671875 C65 0 65 0 68 0 C68 3.63 68 7.26 68 11 C56.35235244 17.57696873 44.69479302 22.78887493 32 27 C31.26749023 27.24766113 30.53498047 27.49532227 29.78027344 27.75048828 C19.26873464 31.2598711 9.03424023 33.07472579 -2 34 C-1.84660156 32.78441406 -1.69320312 31.56882812 -1.53515625 30.31640625 C-0.85589623 24.20306607 -0.65377014 18.08169911 -0.4375 11.9375 C-0.39431641 10.78572266 -0.35113281 9.63394531 -0.30664062 8.44726562 C-0.20149148 5.63160509 -0.09934607 2.81587024 0 0 Z " fill="#F5A997" transform="translate(222,311)"/>
<path d="M0 0 C4.47544896 1.36539121 5.7657598 3.03897112 8.42578125 6.7265625 C11.62032921 12.79917069 12.04679306 18.73205424 12 25.4375 C11.99436035 26.27982178 11.9887207 27.12214355 11.98291016 27.98999023 C11.7582627 39.49483161 8.24359959 49.13026097 0.3125 57.6875 C-3.20879481 59.61582811 -6.29536847 60.3451168 -10.3125 60.125 C-13.67482538 58.81742902 -15.77199455 57.66550545 -18.3125 55.125 C-18.13114449 52.35786597 -17.8481614 49.7330224 -17.4375 47 C-17.28087891 45.86884766 -17.28087891 45.86884766 -17.12109375 44.71484375 C-16.86145402 42.85015844 -16.58824971 40.98737113 -16.3125 39.125 C-15.6525 39.125 -14.9925 39.125 -14.3125 39.125 C-14.18875 38.3 -14.065 37.475 -13.9375 36.625 C-13.3125 33.125 -13.3125 33.125 -12.375 29.75 C-11.10563248 24.92453669 -10.64588148 19.98102951 -10.18579102 15.02392578 C-9.66408721 10.13676232 -8.55172246 6.44696913 -6.3125 2.125 C-3.3125 0.125 -3.3125 0.125 0 0 Z " fill="#F4A896" transform="translate(362.3125,174.875)"/>
<path d="M0 0 C4.44303645 5.94887004 4.90476531 11.80976109 5.5625 19.0625 C6.32054404 28.44330595 6.32054404 28.44330595 10 37 C11.6498007 40.29960141 11.38258361 43.99127884 11.5625 47.625 C11.60568359 48.42679688 11.64886719 49.22859375 11.69335938 50.0546875 C11.79951457 52.0362511 11.90026855 54.01810271 12 56 C7.71833858 58.33545168 5.07377716 59.30737772 0.125 58.8125 C-6.04784416 56.45229488 -9.14157377 51.77364192 -11.8125 46 C-12.11091797 45.39671875 -12.40933594 44.7934375 -12.71679688 44.171875 C-15.86982353 37.62382868 -16.2053459 31.88349327 -16.25 24.75 C-16.270625 23.94175781 -16.29125 23.13351563 -16.3125 22.30078125 C-16.36949576 13.39519351 -14.26007505 6.42058979 -8 0 C-4.92839759 -1.5358012 -3.23503763 -1.03521204 0 0 Z " fill="#F4A897" transform="translate(154,176)"/>
<path d="M0 0 C19.8 0 39.6 0 60 0 C58.65557283 6.72213585 55.34524806 11.33023472 49.96875 15.62109375 C41.02784629 21.41548712 31.39834622 22.22985772 21 21 C12.49697767 18.58901645 6.03712455 12.68678365 1.5625 5.1875 C0 2 0 2 0 0 Z " fill="#FEFEFE" transform="translate(225,262)"/>
<path d="M0 0 C2.29071001 2.51239163 3.02069737 3.71390767 2.9375 7.125 C0.24593608 11.83523686 -3.04555108 13.36466704 -8.0625 15.125 C-18.22414871 17.58374072 -28.75333039 17.00953874 -38.0625 12.125 C-40.43746448 10.55864227 -41.41529864 9.53697341 -43.0625 7.125 C-43.1875 4.5625 -43.1875 4.5625 -42.0625 2.125 C-32.17850888 -8.71550639 -11.51924718 -7.05260032 0 0 Z " fill="#F6AFA8" transform="translate(233.0625,208.875)"/>
<path d="M0 0 C1.0625 1.6875 1.0625 1.6875 1.0625 4.625 C-0.23306472 8.59266697 -1.34348686 9.560431 -4.9375 11.6875 C-14.45612257 15.88795276 -25.25346684 16.28000484 -35.0625 12.875 C-38.40945806 11.54740721 -41.2533144 10.1128964 -43.9375 7.6875 C-44.6875 4.3125 -44.6875 4.3125 -43.9375 0.6875 C-32.52319054 -10.32428973 -12.25203649 -8.29976666 0 0 Z " fill="#F6AFA8" transform="translate(318.9375,210.3125)"/>
<path d="M0 0 C0.84175781 0.00153076 1.68351562 0.00306152 2.55078125 0.00463867 C3.40542969 0.0055249 4.26007813 0.00641113 5.140625 0.00732422 C12.61371727 0.14610619 20.49269521 0.99375747 26.5 5.85620117 C27.67578125 7.37963867 27.67578125 7.37963867 27.48828125 9.94213867 C26.67578125 12.37963867 26.67578125 12.37963867 24.67578125 14.37963867 C20.70033179 13.97706151 16.95426821 12.94806342 13.11328125 11.87963867 C7.49354718 10.42371257 2.08348687 9.91735364 -3.70703125 9.68823242 C-6.32421875 9.37963867 -6.32421875 9.37963867 -8.32421875 7.37963867 C-8.57421875 4.87963867 -8.57421875 4.87963867 -8.32421875 2.37963867 C-5.67097928 -0.2736008 -3.61647364 0.06600212 0 0 Z " fill="#2E316E" transform="translate(288.32421875,162.620361328125)"/>
<path d="M0 0 C0.79809082 -0.00539795 1.59618164 -0.0107959 2.41845703 -0.01635742 C8.17980857 0.05480857 8.17980857 0.05480857 10.4375 2.3125 C10.625 5.375 10.625 5.375 10.4375 8.3125 C8.9052882 9.8447118 7.37949601 9.57992316 5.24609375 9.7421875 C3.95155273 9.85240234 3.95155273 9.85240234 2.63085938 9.96484375 C0.82140475 10.1110364 -0.98849526 10.25183639 -2.79882812 10.38671875 C-8.58855723 10.89166187 -13.17632849 12.15564813 -18.5625 14.3125 C-22.93459302 13.94040698 -22.93459302 13.94040698 -24.5625 12.3125 C-24.875 9.4375 -24.875 9.4375 -24.5625 6.3125 C-17.91337719 0.20371223 -8.56235193 0.03657671 0 0 Z " fill="#2E306E" transform="translate(219.5625,162.6875)"/>
<path d="M0 0 C2.1875 0.3125 2.1875 0.3125 4 1 C3.42365861 5.75481646 1.44931479 8.97048212 -1 13 C0.670625 12.9690625 0.670625 12.9690625 2.375 12.9375 C6 13 6 13 8 14 C7.67 15.32 7.34 16.64 7 18 C3.7 18 0.4 18 -3 18 C-2.67 23.28 -2.34 28.56 -2 34 C-3.98 34.495 -3.98 34.495 -6 35 C-8.34834641 31.47748038 -9.09206626 28.18901463 -9 24 C-8.69835937 23.28199219 -8.39671875 22.56398437 -8.0859375 21.82421875 C-6.55794504 17.85033909 -6.28109694 13.9049166 -5.875 9.6875 C-5.78863281 8.85154297 -5.70226562 8.01558594 -5.61328125 7.15429688 C-5.40234458 5.1035237 -5.20028354 3.05184097 -5 1 C-4.34 1.66 -3.68 2.32 -3 3 C-2.5875 2.484375 -2.175 1.96875 -1.75 1.4375 C-1.1725 0.963125 -0.595 0.48875 0 0 Z " fill="#E6837D" transform="translate(357,187)"/>
<path d="M0 0 C1.65 0.33 3.3 0.66 5 1 C4.38082196 6.25809919 1.65690606 9.99073879 -1.20507812 14.27148438 C-3.34821194 17.58500954 -4 18.92000472 -4 23 C-2.25522367 24.57518451 -2.25522367 24.57518451 0 25.75 C0.7425 26.17796875 1.485 26.6059375 2.25 27.046875 C2.8275 27.36140625 3.405 27.6759375 4 28 C3.67 29.32 3.34 30.64 3 32 C-1.99767765 31.5240307 -5.07050258 30.12573658 -9 27 C-11.0846332 24.37154944 -11.01175829 23.17280483 -10.78125 19.78515625 C-9.90522132 15.5407973 -8.41392393 12.87280866 -6.0625 9.25 C-5.35222656 8.14140625 -4.64195312 7.0328125 -3.91015625 5.890625 C-2.61084403 3.92438565 -1.30729426 1.96094139 0 0 Z " fill="#E9867E" transform="translate(252,209)"/>
<path d="M0 0 C4.66050236 0.69907535 5.7811262 2.16102191 8.5859375 5.73828125 C11.05842248 9.6129473 10.83430306 13.09443789 10.75 17.5625 C8.875 18.1875 8.875 18.1875 6.75 18.5625 C4.32869669 16.14119669 4.22159496 14.76138623 3.625 11.4375 C3.45742188 10.52742187 3.28984375 9.61734375 3.1171875 8.6796875 C2.93542969 7.63167969 2.93542969 7.63167969 2.75 6.5625 C0.22014472 6.88636813 0.22014472 6.88636813 -2.25 8.5625 C-3.32001562 11.50369871 -3.82343918 14.46834243 -4.25 17.5625 C-6.125 18.1875 -6.125 18.1875 -8.25 18.5625 C-8.91 17.9025 -9.57 17.2425 -10.25 16.5625 C-10.01621094 9.54882832 -7.8587732 1.36017228 0 0 Z " fill="#36366F" transform="translate(292.25,180.4375)"/>
<path d="M0 0 C3.12706417 2.55850705 5.77523725 5.1030276 7 9 C7.15035617 11.69085704 7.08999513 14.30014607 7 17 C5.125 17.625 5.125 17.625 3 18 C0.22917166 15.22917166 0.46903579 12.81929143 0 9 C-0.33 8.01 -0.66 7.02 -1 6 C-3.52985528 6.32386813 -3.52985528 6.32386813 -6 8 C-7.07001562 10.94119871 -7.57343918 13.90584243 -8 17 C-9.9375 17.5625 -9.9375 17.5625 -12 18 C-13.55030118 16.44969882 -13.24405099 14.96323999 -13.3125 12.8125 C-13.26802664 8.15762206 -12.06617964 5.59181044 -9 2 C-5.48175489 -0.34549674 -4.14224306 -0.57991403 0 0 Z " fill="#34346E" transform="translate(221,181)"/>
<path d="M0 0 C2.96175123 0.61277612 4.38058783 1.25372522 7 3 C7.49703224 5.81455534 7.83735013 8.47561165 8.0625 11.3125 C8.48739278 16.27238704 8.98135841 20.39420143 11 25 C11.4375 31.34375 11.4375 31.34375 9 35 C7.68 34.67 6.36 34.34 5 34 C5.33 28.72 5.66 23.44 6 18 C2.7 18 -0.6 18 -4 18 C-4.33 16.68 -4.66 15.36 -5 14 C-4 13 -4 13 -2.15234375 12.90234375 C-0.1015625 12.93489583 1.94921875 12.96744792 4 13 C3.62746094 12.48050781 3.25492188 11.96101562 2.87109375 11.42578125 C-1.04116638 5.65866209 -1.04116638 5.65866209 -0.8125 2 C-0.544375 1.34 -0.27625 0.68 0 0 Z " fill="#E5837C" transform="translate(152,187)"/>
</svg>
