<?xml version="1.0" encoding="UTF-8"?>
<svg version="1.1" xmlns="http://www.w3.org/2000/svg" width="512" height="512">
<path d="M0 0 C0.73101929 0.00021149 1.46203857 0.00042297 2.21520996 0.00064087 C26.55548553 0.07034119 52.54835651 2.98835346 71.06640625 20.22265625 C73.6796416 22.53388045 76.41423842 24.53163264 79.25 26.5625 C108.82520032 48.56494202 119.14568066 82.09158955 124.5 117.375 C125.85640474 126.71542977 126.62106173 136.07771638 127.125 145.5 C127.16520264 146.25031494 127.20540527 147.00062988 127.24682617 147.77368164 C129.9643989 207.36390686 117.54812681 267.83615364 99.5 324.375 C96.5 324.375 96.5 324.375 94.58203125 322.72265625 C93.83308594 321.96855469 93.08414062 321.21445312 92.3125 320.4375 C77.38712881 306.69839386 57.23677784 300.2414075 37.74609375 296.1015625 C34.5 295.375 34.5 295.375 32.5 294.375 C32.5 299.325 32.5 304.275 32.5 309.375 C35.8 310.035 39.1 310.695 42.5 311.375 C42.35648722 314.43762378 42.2102194 317.5000784 42.0625 320.5625 C42.00352539 321.8299707 42.00352539 321.8299707 41.94335938 323.12304688 C41.59789175 330.21842046 41.07185457 337.29452821 40.5 344.375 C41.0762915 344.70072998 41.65258301 345.02645996 42.24633789 345.36206055 C90.24816895 372.49353027 90.24816895 372.49353027 138.25 399.625 C139.1992334 400.1614917 140.1484668 400.6979834 141.12646484 401.25073242 C143.0383579 402.33143119 144.9501422 403.41232236 146.86181641 404.4934082 C151.72563448 407.24365816 156.59144119 409.99028339 161.4609375 412.73046875 C166.26424497 415.43417883 171.06032303 418.15033677 175.85205078 420.87451172 C178.35316326 422.29179342 180.86166995 423.6951643 183.37109375 425.09765625 C204.59992092 437.08653251 218.17471293 454.27225168 224.92749023 477.83325195 C227.95641484 489.27599955 228.5 500.5352876 228.5 512.375 C74.72 512.375 -79.06 512.375 -237.5 512.375 C-237.5 482.98468609 -230.4626572 457.1402349 -209.25 435.8125 C-201.89121563 429.50168023 -192.91197178 425.40276768 -184.3828125 420.91455078 C-179.93012811 418.53661821 -175.55874461 416.02366131 -171.1875 413.5 C-163.48786698 409.07116234 -155.75561155 404.70506343 -148 400.375 C-140.31067968 396.08042345 -132.63968768 391.75727483 -125 387.375 C-117.36030871 382.9927231 -109.68915355 378.6698795 -102 374.375 C-84.40322125 364.54229821 -66.93239219 354.49574884 -49.5 344.375 C-49.56058594 343.65957031 -49.62117187 342.94414062 -49.68359375 342.20703125 C-49.95915557 338.92996532 -50.22961563 335.65249701 -50.5 332.375 C-50.64308594 330.68697266 -50.64308594 330.68697266 -50.7890625 328.96484375 C-51.27098607 323.07849155 -51.61580219 317.2809119 -51.5 311.375 C-47.88026598 310.05873308 -45.40432869 309.375 -41.5 309.375 C-41.5 304.755 -41.5 300.135 -41.5 295.375 C-62.51670015 299.70750797 -82.87642103 306.32173344 -99.5 320.375 C-100.12132812 320.88675781 -100.74265625 321.39851563 -101.3828125 321.92578125 C-102.76345048 323.06561028 -104.13326746 324.218534 -105.5 325.375 C-107.62802885 320.63009145 -109.34366618 315.92143541 -110.734375 310.90625 C-110.93317764 310.201586 -111.13198029 309.496922 -111.33680725 308.77090454 C-111.98137992 306.47411169 -112.61688645 304.17497655 -113.25 301.875 C-113.57948135 300.68266754 -113.57948135 300.68266754 -113.9156189 299.46624756 C-134.67337613 224.10654323 -151.34565824 127.95339312 -112.39404297 55.3125 C-97.74975506 29.59441634 -75.32821345 13.88130698 -47.25537109 5.72265625 C-31.72300263 1.46664125 -16.05325801 -0.04342569 0 0 Z " fill="#ACB6DD" transform="translate(260.5,-0.375)"/>
<path d="M0 0 C0.73101929 0.00021149 1.46203857 0.00042297 2.21520996 0.00064087 C26.55548553 0.07034119 52.54835651 2.98835346 71.06640625 20.22265625 C73.6796416 22.53388045 76.41423842 24.53163264 79.25 26.5625 C108.82520032 48.56494202 119.14568066 82.09158955 124.5 117.375 C125.85640474 126.71542977 126.62106173 136.07771638 127.125 145.5 C127.16520264 146.25031494 127.20540527 147.00062988 127.24682617 147.77368164 C129.9643989 207.36390686 117.54812681 267.83615364 99.5 324.375 C96.5 324.375 96.5 324.375 94.58203125 322.72265625 C93.83308594 321.96855469 93.08414063 321.21445312 92.3125 320.4375 C77.38712881 306.69839386 57.23677784 300.2414075 37.74609375 296.1015625 C34.5 295.375 34.5 295.375 32.5 294.375 C32.5 293.715 32.5 293.055 32.5 292.375 C34.25235078 291.28806077 36.0550745 290.28205729 37.875 289.3125 C44.23060209 285.70102257 49.34340985 281.53159015 54.5 276.375 C55.18707031 275.68792969 55.87414062 275.00085938 56.58203125 274.29296875 C74.45188034 255.29523964 82.91708384 229.74628176 90.5 205.375 C93.5 205.375 93.5 205.375 95.75 207.375 C99.32466092 209.9747534 101.15888655 209.98427908 105.5 209.375 C114.33026666 204.78326134 118.00378891 197.39823799 121.19140625 188.4296875 C124.03917352 178.27331474 124.30894983 164.84330934 119.640625 155.29296875 C117.17261878 151.14299939 115.08151826 148.17488217 110.5 146.375 C110.5 147.365 110.5 148.355 110.5 149.375 C109.571875 149.931875 108.64375 150.48875 107.6875 151.0625 C103.10159045 154.38953242 102.00255675 158.58223157 101.03198242 163.97583008 C100.51518448 167.75392864 100.09821316 171.53963772 99.68359375 175.33007812 C99.01837249 180.86976555 98.13305931 185.42457982 95.5 190.375 C94.84 190.705 94.18 191.035 93.5 191.375 C93.45512451 190.32223877 93.41024902 189.26947754 93.36401367 188.18481445 C93.19160741 184.21626769 93.00317481 180.24860618 92.81030273 176.28100586 C92.7295456 174.57547306 92.65292886 172.86973828 92.58081055 171.16381836 C91.75606495 151.79651647 89.09654343 135.39271499 74.5 121.375 C72.70495268 119.87470157 70.89155508 118.39614588 69.0625 116.9375 C52.65580163 103.82121832 44.03620939 87.01542746 41.5 66.375 C41.22027344 67.13683594 40.94054687 67.89867188 40.65234375 68.68359375 C37.8473225 75.90810186 34.65151984 81.59497229 29.5 87.375 C29.00113281 87.96667969 28.50226563 88.55835937 27.98828125 89.16796875 C8.35490441 110.77951958 -27.75532577 118.40949001 -55.5 120.375 C-61.56510694 120.61855044 -67.63311103 120.78235668 -73.70263672 120.85766602 C-81.86623785 121.03533431 -89.02901089 121.58896437 -95.375 127.3125 C-95.92929688 127.79589844 -96.48359375 128.27929688 -97.0546875 128.77734375 C-100.37540229 132.44807982 -100.76070032 135.68554223 -100.84375 140.5546875 C-100.88628906 142.39861084 -100.88628906 142.39861084 -100.9296875 144.27978516 C-100.95289063 145.58995605 -100.97609375 146.90012695 -101 148.25 C-101.0643273 150.96380786 -101.13909771 153.67722614 -101.21875 156.390625 C-101.23856934 157.06763458 -101.25838867 157.74464417 -101.27880859 158.44216919 C-101.47752046 164.64920705 -101.9198196 170.81811432 -102.5 177 C-102.58314453 177.89831543 -102.66628906 178.79663086 -102.75195312 179.72216797 C-103.11345415 183.37204744 -103.54453478 186.82684011 -104.5 190.375 C-105.16 190.375 -105.82 190.375 -106.5 190.375 C-108.0607344 182.94590428 -109.51688485 175.6015916 -110.4375 168.0625 C-111.49671954 160.26840959 -113.57464296 153.57730146 -118.5 147.375 C-121.69924794 147.64160399 -123.19605348 148.08947448 -125.5625 150.3125 C-132.90361586 161.91619926 -133.2623068 174.69727523 -130.3125 187.9375 C-127.84169255 196.31272527 -123.94427854 203.68694035 -116.5625 208.6875 C-113.04994651 209.85835116 -110.05447342 210.1441008 -106.6574707 208.46337891 C-106.04476318 208.09647949 -105.43205566 207.72958008 -104.80078125 207.3515625 C-103.71152344 206.69929687 -102.62226563 206.04703125 -101.5 205.375 C-101.27973145 206.08293701 -101.05946289 206.79087402 -100.83251953 207.52026367 C-90.7940025 239.47061825 -77.66256275 273.36269545 -46.96484375 290.81640625 C-45.17026186 291.72477486 -43.33947995 292.56138387 -41.5 293.375 C-41.5 294.035 -41.5 294.695 -41.5 295.375 C-42.50675781 295.58253906 -43.51351562 295.79007812 -44.55078125 296.00390625 C-64.502603 300.30022415 -83.72908051 307.04255601 -99.5 320.375 C-100.12132812 320.88675781 -100.74265625 321.39851563 -101.3828125 321.92578125 C-102.76345048 323.06561028 -104.13326746 324.218534 -105.5 325.375 C-107.62802885 320.63009145 -109.34366618 315.92143541 -110.734375 310.90625 C-110.93317764 310.201586 -111.13198029 309.496922 -111.33680725 308.77090454 C-111.98137992 306.47411169 -112.61688645 304.17497655 -113.25 301.875 C-113.57948135 300.68266754 -113.57948135 300.68266754 -113.9156189 299.46624756 C-134.67337613 224.10654323 -151.34565824 127.95339312 -112.39404297 55.3125 C-97.74975506 29.59441634 -75.32821345 13.88130698 -47.25537109 5.72265625 C-31.72300263 1.46664125 -16.05325801 -0.04342569 0 0 Z " fill="#4E5DA7" transform="translate(260.5,-0.375)"/>
<path d="M0 0 C0.33 0 0.66 0 1 0 C1.11214844 1.4540625 1.11214844 1.4540625 1.2265625 2.9375 C2.56695375 17.50027334 6.53234398 30.58826677 16 42 C16.67933594 42.82886719 17.35867188 43.65773437 18.05859375 44.51171875 C21.93229601 49.02068056 25.97949942 52.91496323 30.625 56.625 C42.28030254 65.9557443 49.00277749 77.03642542 51 92 C51.55734927 98.19603842 51.82648905 104.41231708 52.125 110.625 C52.21156545 112.31383677 52.29879959 114.00263941 52.38671875 115.69140625 C52.59885825 119.79391788 52.80194014 123.89678553 53 128 C54.88446299 123.8704963 56.34403077 120.37028391 56.80859375 115.8203125 C56.97004883 114.42619141 56.97004883 114.42619141 57.13476562 113.00390625 C57.33573353 111.09276631 57.53367677 109.18130576 57.72851562 107.26953125 C58.5515951 100.22708793 59.85676904 93.05078299 65.125 87.9375 C67 87 67 87 69 87 C69 86.01 69 85.02 69 84 C74.31352625 85.62357746 76.35854544 88.23039798 79.13671875 92.91796875 C84.29960015 103.44300066 83.24490531 117.40943774 79.96875 128.390625 C76.86979533 136.73780936 72.21112321 143.89443839 64 148 C59.42749634 148.53794161 56.87741722 148.22189523 53.26171875 145.4765625 C52.64643311 145.01588379 52.03114746 144.55520508 51.3972168 144.08056641 C50.93613525 143.72397949 50.47505371 143.36739258 50 143 C49.74943848 143.80405273 49.49887695 144.60810547 49.24072266 145.43652344 C39.28770992 177.07852766 26.06355068 212.6484383 -5.1875 229.22265625 C-7 230 -7 230 -9 230 C-9 235.61 -9 241.22 -9 247 C-10.54042969 246.855625 -12.08085937 246.71125 -13.66796875 246.5625 C-36.89522607 244.50857527 -59.84614349 243.98811623 -83 247 C-83 241.72 -83 236.44 -83 231 C-84.98 230.34 -86.96 229.68 -89 229 C-119.6739946 210.93815547 -133.53372052 177.74979921 -143 145 C-145.17334381 144.81509993 -145.17334381 144.81509993 -147.25 146.5 C-150.6362087 148.34702292 -152.18465514 148.59848547 -156 148 C-163.2580998 145.12003254 -166.73787645 139.86065359 -170 133 C-174.57263532 121.69344469 -176.73530626 106.93120203 -172.3125 95.25 C-170.35967086 91.26870397 -168.21767628 88.06071646 -165 85 C-162.33984375 84.34765625 -162.33984375 84.34765625 -160 84 C-150.81892478 95.76603814 -148 113.21777959 -148 128 C-147.34 128 -146.68 128 -146 128 C-145.67455652 124.29269192 -145.36547743 120.58421047 -145.0625 116.875 C-144.9682373 115.72676758 -144.87397461 114.57853516 -144.77685547 113.39550781 C-144.27266201 106.86291429 -143.91468842 100.35376008 -143.78515625 93.8046875 C-143.76289726 92.79334244 -143.76289726 92.79334244 -143.7401886 91.76156616 C-143.670012 88.46676356 -143.62213043 85.17397862 -143.60571289 81.87841797 C-143.40234143 70.75928803 -143.40234143 70.75928803 -139 66 C-138.44699219 65.39671875 -137.89398438 64.7934375 -137.32421875 64.171875 C-136.78410156 63.70265625 -136.24398437 63.2334375 -135.6875 62.75 C-135.15511719 62.27046875 -134.62273437 61.7909375 -134.07421875 61.296875 C-127.31265817 57.06930793 -119.57418544 57.68866509 -111.875 57.5625 C-77.39936926 56.64317967 -39.34717534 49.90800297 -13.1875 25.625 C-6.2339463 18.2555639 -2.80437879 9.60087327 0 0 Z " fill="#F8C4B7" transform="translate(302,62)"/>
<path d="M0 0 C5.31352625 1.62357746 7.35854544 4.23039798 10.13671875 8.91796875 C15.29960015 19.44300066 14.24490531 33.40943774 10.96875 44.390625 C7.86979533 52.73780936 3.21112321 59.89443839 -5 64 C-10.58159184 64.65665786 -13.32623207 63.5794364 -17.6171875 60.2890625 C-19 59 -19 59 -20 57 C-19.546875 54.3203125 -19.546875 54.3203125 -18.75 51.125 C-18.49734375 50.07570312 -18.2446875 49.02640625 -17.984375 47.9453125 C-17.0140683 45.04209325 -15.87107491 43.37270357 -14 41 C-12.54079642 35.93570521 -11.876722 30.97458695 -11.35424805 25.74926758 C-9.708208 9.59914306 -9.708208 9.59914306 -3.875 3.9375 C-2 3 -2 3 0 3 C0 2.01 0 1.02 0 0 Z " fill="#F2A796" transform="translate(371,146)"/>
<path d="M0 0 C3.91303261 1.47959198 5.33023847 5.14155806 7.03515625 8.76953125 C10.74091084 19.44210446 13.03515625 32.44224227 13.03515625 43.76953125 C13.69515625 43.76953125 14.35515625 43.76953125 15.03515625 43.76953125 C16.02515625 48.71953125 17.01515625 53.66953125 18.03515625 58.76953125 C10.96198552 64.42806784 10.96198552 64.42806784 5.03515625 63.76953125 C-2.22532334 60.93476233 -5.71525685 55.60381869 -8.96484375 48.76953125 C-13.53747907 37.46297594 -15.70015001 22.70073328 -11.27734375 11.01953125 C-9.1653141 6.66769791 -5.60027098 -0.65689063 0 0 Z " fill="#F3A796" transform="translate(140.96484375,146.23046875)"/>
<path d="M0 0 C3.97245356 3.87059577 3.97245356 3.87059577 4.0625 7.5625 C2.38274127 11.41606416 -0.06501379 13.15853905 -3.89477539 14.82397461 C-9.82055902 16.94433314 -15.16636357 17.50876939 -21.4375 17.4375 C-22.82183228 17.42722778 -22.82183228 17.42722778 -24.23413086 17.41674805 C-32.33372881 17.22531734 -38.49868316 16.09418697 -44.6875 10.625 C-46 8 -46 8 -46.125 4.9375 C-44.36875651 0.3517531 -41.38562719 -0.86096079 -37.09375 -2.91015625 C-26.07926053 -7.32828169 -10.11257026 -6.50093802 0 0 Z " fill="#F6AFA8" transform="translate(322,192)"/>
<path d="M0 0 C2.375 2.25 2.375 2.25 3.625 5.6875 C3.375 9.25 3.375 9.25 0.9375 12 C-5.90398329 16.78698674 -12.73490583 17.80547543 -20.875 17.75 C-21.79579346 17.74718018 -22.71658691 17.74436035 -23.6652832 17.74145508 C-31.05071761 17.56674029 -37.34771759 16.43092918 -43.625 12.25 C-45.97548538 8.72427193 -46.28897817 7.39986355 -45.625 3.25 C-35.27453082 -8.77892365 -12.79809643 -7.03592031 0 0 Z " fill="#F6AFA8" transform="translate(230.625,191.75)"/>
<path d="M0 0 C21.12 0 42.24 0 64 0 C59.90289078 8.19421843 52.28556297 12.58995538 44 16 C35.01211664 18.94496604 25.02759437 18.05188965 16.625 14.0625 C10.35276645 10.54515802 4.90386339 6.26543857 0 1 C0 0.67 0 0.34 0 0 Z " fill="#FEFDFD" transform="translate(223,243)"/>
<path d="M0 0 C2.206875 0.78375 4.41375 1.5675 6.6875 2.375 C27.97072678 9.56565389 48.66742461 8.26710913 69.671875 0.76953125 C72 0 72 0 74 0 C74 5.28 74 10.56 74 16 C72.45957031 15.855625 70.91914063 15.71125 69.33203125 15.5625 C46.10477393 13.50857527 23.15385651 12.98811623 0 16 C0 10.72 0 5.44 0 0 Z " fill="#F4A998" transform="translate(219,293)"/>
<path d="M0 0 C4.25441511 1.32033572 4.25441511 1.32033572 6.0625 4.4375 C8.61499264 10.59221169 8.64717384 17.23590071 6.96484375 23.63671875 C6.05712037 25.82547166 5.24264 27.3945014 3.625 29.125 C0.0625 30.3125 0.0625 30.3125 -3.375 30.125 C-6.41363586 28.23895015 -7.26558606 25.43032005 -8.375 22.125 C-8.67578125 18.78515625 -8.67578125 18.78515625 -8.6875 15.1875 C-8.70425781 14.00285156 -8.72101563 12.81820312 -8.73828125 11.59765625 C-8.14045506 5.8829521 -6.30082894 0.23336403 0 0 Z " fill="#2F306C" transform="translate(296.375,153.875)"/>
<path d="M0 0 C2.5625 0.5 2.5625 0.5 4.8125 2.875 C7.6397474 7.11587109 7.75211619 9.61737617 7.8125 14.75 C7.83828125 16.05453125 7.8640625 17.3590625 7.890625 18.703125 C7.46337611 23.64700502 6.07575156 26.98674844 2.5625 30.5 C-0.63371722 31.00466588 -1.97016175 30.83381304 -4.625 28.9375 C-8.84332369 23.26458194 -9.18177398 16.3337884 -8.4375 9.5 C-6.70270455 4.95648809 -5.01337889 1.02838541 0 0 Z " fill="#2E306C" transform="translate(214.4375,153.5)"/>
<path d="M0 0 C2.20876747 1.90064787 4.28693601 3.74148493 6.1796875 5.95703125 C6.1796875 6.61703125 6.1796875 7.27703125 6.1796875 7.95703125 C5.51324219 7.76367188 4.84679687 7.5703125 4.16015625 7.37109375 C-11.61107293 2.91544579 -25.85896101 1.04584618 -41.8203125 5.95703125 C-42.1953125 2.70703125 -42.1953125 2.70703125 -41.8203125 -1.04296875 C-30.53844862 -11.47869284 -11.45679282 -8.29903413 0 0 Z " fill="#5662A7" transform="translate(315.8203125,138.04296875)"/>
<path d="M0 0 C2 2 2 2 2.125 5.625 C2.08375 6.73875 2.0425 7.8525 2 9 C1.2471875 8.7834375 0.494375 8.566875 -0.28125 8.34375 C-13.62128343 4.84684803 -25.77232231 4.88516855 -39 9 C-40.41604892 9.3980376 -41.83261323 9.79425297 -43.25 10.1875 C-44.1575 10.455625 -45.065 10.72375 -46 11 C-42.76483133 4.12526658 -36.63285944 0.44275434 -29.8125 -2.375 C-19.56652143 -5.74781175 -9.61950715 -4.80099264 0 0 Z " fill="#5561A7" transform="translate(234,135)"/>
<path d="M0 0 C2.625 -0.1875 2.625 -0.1875 5 0 C5.83861979 5.36716665 2.92070405 8.79627239 0 13 C1.11375 12.95875 2.2275 12.9175 3.375 12.875 C7 13 7 13 9 15 C9 16.32 9 17.64 9 19 C5.37 19 1.74 19 -2 19 C-1.67 24.61 -1.34 30.22 -1 36 C-3.475 36.495 -3.475 36.495 -6 37 C-7.70726089 34.06606786 -8.22201996 32.32688031 -7.72265625 28.97265625 C-7.61324707 28.18648926 -7.50383789 27.40032227 -7.39111328 26.59033203 C-7.2620459 25.73552246 -7.13297852 24.88071289 -7 24 C-6.74731657 22.10304807 -6.49606757 20.20590464 -6.24609375 18.30859375 C-5.97771655 16.35140391 -5.7081728 14.39437369 -5.4375 12.4375 C-5.29892578 11.42880859 -5.16035156 10.42011719 -5.01757812 9.38085938 C-4.67941475 6.92042929 -4.3402027 4.46014879 -4 2 C-3.34 2.33 -2.68 2.66 -2 3 C-1.34 2.01 -0.68 1.02 0 0 Z " fill="#E5837D" transform="translate(365,159)"/>
<path d="M0 0 C1.32 0.33 2.64 0.66 4 1 C3.45221109 7.9473546 0.79286196 11.58107565 -3.28515625 17.03515625 C-5.2397632 20.41453364 -5.67747556 22.16452812 -5 26 C-3.30067167 27.78406194 -3.30067167 27.78406194 -1 28.875 C-0.2575 29.28492188 0.485 29.69484375 1.25 30.1171875 C1.8275 30.40851563 2.405 30.69984375 3 31 C2.505 33.475 2.505 33.475 2 36 C-3.39911876 35.86502203 -6.61538163 33.68814451 -10.39453125 30.0625 C-12.63244518 27.18751568 -13.17961693 25.35621402 -12.8671875 21.73828125 C-10.36790026 13.84638776 -5.05000921 6.48819953 0 0 Z " fill="#E9857D" transform="translate(257,195)"/>
<path d="M0 0 C3.71599191 -0.20086443 4.77208445 -0.1519437 8 2 C8.70776367 4.45849609 8.70776367 4.45849609 9.16796875 7.5234375 C9.42416992 9.17859375 9.42416992 9.17859375 9.68554688 10.8671875 C9.85119141 12.02476562 10.01683594 13.18234375 10.1875 14.375 C10.36474609 15.52484375 10.54199219 16.6746875 10.72460938 17.859375 C11.39461692 22.29849834 12 26.50342087 12 31 C12.66 31 13.32 31 14 31 C14 31.66 14 32.32 14 33 C13.34 33 12.68 33 12 33 C11.67 34.32 11.34 35.64 11 37 C9.35 36.67 7.7 36.34 6 36 C6.33 30.39 6.66 24.78 7 19 C3.37 19 -0.26 19 -4 19 C-3 14 -3 14 -2 13 C0.33297433 12.95907063 2.66705225 12.95758277 5 13 C4.6390625 12.48050781 4.278125 11.96101562 3.90625 11.42578125 C-0.7029877 4.49912127 -0.7029877 4.49912127 0 0 Z " fill="#E4837D" transform="translate(142,159)"/>
<path d="M0 0 C0.66 0.33 1.32 0.66 2 1 C-3.61 6.61 -9.22 12.22 -15 18 C-15 13.74508832 -12.52840258 11.92686684 -9.75 9 C-9.25886719 8.46632813 -8.76773438 7.93265625 -8.26171875 7.3828125 C-5.68642506 4.62209767 -3.11691202 2.1373111 0 0 Z " fill="#C0BAD5" transform="translate(57,431)"/>
<path d="M0 0 C0.33 0 0.66 0 1 0 C1 4.62 1 9.24 1 14 C-0.32 14 -1.64 14 -3 14 C-3 13.34 -3 12.68 -3 12 C-2.34 11.67 -1.68 11.34 -1 11 C-0.5316735 8.41394668 -0.5316735 8.41394668 -0.375 5.4375 C-0.30023438 4.42558594 -0.22546875 3.41367187 -0.1484375 2.37109375 C-0.09945313 1.58863281 -0.05046875 0.80617188 0 0 Z " fill="#F7BBAD" transform="translate(292,295)"/>
</svg>
