<?xml version="1.0" encoding="UTF-8"?>
<svg version="1.1" xmlns="http://www.w3.org/2000/svg" width="256" height="256">
<path d="M0 0 C0.763125 -0.00386719 1.52625 -0.00773437 2.3125 -0.01171875 C5.58851362 -0.00597136 8.24637676 0.08212559 11.375 1.125 C12.035 0.795 12.695 0.465 13.375 0.125 C29.96344805 -1.12271311 45.08035909 2.09713275 58.125 12.875 C65.59582934 19.91557215 67.58083123 26.02775812 68.42529297 36.08837891 C69.15551901 42.97592299 72.20459009 47.668975 76.375 53.125 C78.72459255 57.8241851 78.00821161 64.15619078 76.4453125 69.015625 C76.07148438 69.93859375 75.69765625 70.8615625 75.3125 71.8125 C73.6046599 76.04314951 73.13699367 78.66527781 73.99609375 83.10546875 C75.46180394 90.91755297 74.46524438 98.24480498 70.375 105.125 C67.92670374 107.33040972 66.94905552 108.08585985 63.625 108.3125 C62.8825 108.250625 62.14 108.18875 61.375 108.125 C61.024375 109.383125 60.67375 110.64125 60.3125 111.9375 C57.15595352 121.30436816 51.18897134 128.71868586 44.48828125 135.8359375 C42.31294733 138.11822005 42.31294733 138.11822005 40.3671875 140.7734375 C38.36535805 143.13638128 36.9420275 144.0726718 34.1875 145.375 C31.87762293 146.7643674 30.63236624 147.52199215 29.56640625 150.01953125 C28.51411069 157.22970453 29.42319584 166.89103081 33.375 173.125 C35.74031781 174.82701547 35.74031781 174.82701547 38.6328125 176.3046875 C40.26536987 177.19256958 40.26536987 177.19256958 41.9309082 178.09838867 C42.80255112 178.56273819 42.80255112 178.56273819 43.69180298 179.03646851 C46.78186749 180.68306699 49.85232123 182.36564565 52.92578125 184.04296875 C53.55326767 184.38409195 54.18075409 184.72521515 54.82725525 185.07667542 C61.8563724 188.90825787 68.7408853 192.97954675 75.63183594 197.05297852 C81.47294145 200.48660135 87.37531475 203.75059907 93.36791992 206.91186523 C106.7502067 213.9958051 118.11271334 221.03501578 123.40234375 236.0390625 C125.40669881 243.18823676 125.375 248.25913987 125.375 256.125 C49.475 256.125 -26.425 256.125 -104.625 256.125 C-104.625 241.91951888 -102.8433362 230.69607354 -92.81616211 220.23852539 C-86.49262826 214.37386611 -79.43914517 210.38165042 -71.875 206.375 C-69.92326513 205.32309175 -67.97392964 204.26682138 -66.02456665 203.21052551 C-64.72550635 202.50711551 -63.42568422 201.80511058 -62.12509155 201.10453796 C-55.77736399 197.68341425 -49.51558229 194.11990214 -43.27685547 190.50415039 C-38.66610554 187.83837619 -34.02531572 185.25314785 -29.328125 182.7421875 C-28.27351074 182.17008545 -27.21889648 181.5979834 -26.13232422 181.00854492 C-24.09607539 179.90598681 -22.05114926 178.81925496 -19.99658203 177.7512207 C-14.26762998 174.74300013 -14.26762998 174.74300013 -10.51953125 169.6875 C-9.60347265 166.03926664 -9.12181094 162.69334742 -8.9375 158.9375 C-8.87175781 157.74769531 -8.80601563 156.55789062 -8.73828125 155.33203125 C-8.65346621 152.93088824 -8.625 150.52764049 -8.625 148.125 C-9.285 147.939375 -9.945 147.75375 -10.625 147.5625 C-24.83164286 140.7551503 -35.42790326 124.05024092 -41.625 110.125 C-41.625 109.465 -41.625 108.805 -41.625 108.125 C-42.5325 108.08375 -43.44 108.0425 -44.375 108 C-47.625 107.125 -47.625 107.125 -49.875 104.5 C-53.13740054 98.20822752 -55.18010326 91.18931655 -53.03125 84.19140625 C-52.8146875 83.55074219 -52.598125 82.91007812 -52.375 82.25 C-51.09547578 77.72313154 -52.7187491 74.91190474 -54.58203125 70.765625 C-57.03883771 64.54539591 -57.54571058 58.46640702 -54.9375 52.25 C-53.69055315 49.71759058 -52.44477653 47.9255392 -50.5390625 45.81640625 C-48.129376 42.42809197 -47.99918639 40.05773786 -47.6875 35.9375 C-46.77512668 26.89209634 -43.61586629 18.30728417 -36.625 12.125 C-25.650304 3.78862825 -13.65831813 -0.06992313 0 0 Z " fill="#F7C4B7" transform="translate(117.625,-0.125)"/>
<path d="M0 0 C1.40572266 0.76183594 1.40572266 0.76183594 2.83984375 1.5390625 C8.86760612 4.24855688 14.1180746 5.0829824 20.71484375 5.0390625 C21.59672363 5.03986816 22.47860352 5.04067383 23.38720703 5.04150391 C29.38816711 4.91165143 33.79142578 4.0149218 38.76953125 0.4375 C41.90385935 -0.92268012 43.72266603 0.33269037 46.83984375 1.5390625 C48.55496199 2.43328921 50.24309918 3.38092786 51.90234375 4.375 C53.32740234 5.21998047 53.32740234 5.21998047 54.78125 6.08203125 C56.29525391 6.98888672 56.29525391 6.98888672 57.83984375 7.9140625 C65.76558052 12.60401852 73.72967072 17.17575088 81.83984375 21.5390625 C89.85707708 25.8753311 97.81428996 30.30583946 105.71484375 34.8515625 C107.20371094 35.69557617 107.20371094 35.69557617 108.72265625 36.55664062 C120.44865904 43.35676109 129.24226142 51.12879306 133.296875 64.3984375 C134.95974735 70.95422203 134.83984375 75.30977379 134.83984375 82.5390625 C58.93984375 82.5390625 -16.96015625 82.5390625 -95.16015625 82.5390625 C-95.16015625 68.33358138 -93.37849245 57.11013604 -83.35131836 46.65258789 C-77.02778451 40.78792861 -69.97430142 36.79571292 -62.41015625 32.7890625 C-60.45842138 31.73715425 -58.50908589 30.68088388 -56.5597229 29.62458801 C-55.2606626 28.92117801 -53.96084047 28.21917308 -52.6602478 27.51860046 C-47.15141768 24.54960264 -41.70822918 21.47443353 -36.28515625 18.3515625 C-35.05768677 17.65184326 -35.05768677 17.65184326 -33.80541992 16.93798828 C-29.16250128 14.28788932 -24.55619265 11.58494564 -19.96875 8.83984375 C-17.88675368 7.61452398 -15.80472314 6.38926234 -13.72265625 5.1640625 C-12.27366943 4.27811401 -12.27366943 4.27811401 -10.79541016 3.37426758 C-4.01122913 -0.58507421 -4.01122913 -0.58507421 0 0 Z " fill="#533F91" transform="translate(108.16015625,173.4609375)"/>
<path d="M0 0 C0.763125 -0.00386719 1.52625 -0.00773437 2.3125 -0.01171875 C5.58851362 -0.00597136 8.24637676 0.08212559 11.375 1.125 C12.035 0.795 12.695 0.465 13.375 0.125 C29.96344805 -1.12271311 45.08035909 2.09713275 58.125 12.875 C65.59582934 19.91557215 67.58083123 26.02775812 68.42529297 36.08837891 C69.15551901 42.97592299 72.20459009 47.668975 76.375 53.125 C78.91074423 58.19648846 77.86687263 64.53243338 76.2578125 69.7421875 C75.03263493 72.90549908 73.7544617 76.02613783 72.375 79.125 C70.72833797 79.0114371 69.08263918 78.88382619 67.4375 78.75 C66.52097656 78.68039063 65.60445313 78.61078125 64.66015625 78.5390625 C63.90605469 78.40242188 63.15195313 78.26578125 62.375 78.125 C62.045 77.465 61.715 76.805 61.375 76.125 C59.43037027 75.4653609 59.43037027 75.4653609 57.0625 74.9375 C42.33104317 70.71350168 30.03355418 60.26638274 22.375 47.125 C19.84883416 41.98732489 19.95698299 36.93889769 19.71875 31.3046875 C19.6060865 27.97106849 19.6060865 27.97106849 17.375 25.125 C7.10963875 21.70321292 -4.42843844 24.58343468 -13.85546875 29.22265625 C-18.52582864 32.16030266 -20.75568356 36.01688177 -22.625 41.125 C-23.5842536 45.94970007 -23.95546364 50.83095744 -24.40234375 55.72460938 C-25.22943491 63.4798654 -26.71328768 68.33988387 -32.5 73.875 C-37.81324768 77.41327263 -44.44836785 78.07128883 -50.625 79.125 C-55.06462576 70.83769858 -58.00483021 63.57632568 -55.625 54.125 C-54.21437525 50.86773922 -52.4311923 48.02099094 -50.046875 45.37109375 C-48.09009751 42.2800304 -48.05548233 39.62853404 -47.75 36 C-46.78156114 26.94624824 -43.62835209 18.31832583 -36.625 12.125 C-25.650304 3.78862825 -13.65831813 -0.06992313 0 0 Z " fill="#495C9E" transform="translate(117.625,-0.125)"/>
<path d="M0 0 C0.66 0.66 1.32 1.32 2 2 C1.28263672 2.62068359 1.28263672 2.62068359 0.55078125 3.25390625 C-2.20819222 6.36035749 -2.01758815 9.97817652 -2 14 C-1.38255305 19.41453478 -0.3774564 24.72809868 1 30 C-8.88284821 36.89501038 -18.20146025 37.25521391 -30 36 C-34.30144915 35.0368538 -38.28130191 33.37363708 -42 31 C-42.33 30.34 -42.66 29.68 -43 29 C-42.70351562 28.11570313 -42.40703125 27.23140625 -42.1015625 26.3203125 C-40.91376337 22.74006689 -40.59418695 19.63365029 -40.375 15.875 C-40.30023438 14.67617187 -40.22546875 13.47734375 -40.1484375 12.2421875 C-40.03800662 9.8301446 -40 7.41456951 -40 5 C-41.2065625 4.566875 -41.2065625 4.566875 -42.4375 4.125 C-45 3 -45 3 -46 1 C-44.58398286 0.51891725 -43.16715563 0.04021859 -41.75 -0.4375 C-40.96109375 -0.70433594 -40.1721875 -0.97117188 -39.359375 -1.24609375 C-27.5626181 -5.01558726 -11.52296266 -4.71295659 0 0 Z " fill="#F7C3B7" transform="translate(149,143)"/>
<path d="M0 0 C1.52519276 0.08937803 3.04681929 0.24537146 4.5625 0.4375 C5.38878906 0.53933594 6.21507812 0.64117187 7.06640625 0.74609375 C7.70449219 0.82988281 8.34257812 0.91367188 9 1 C12.43672654 7.5870592 13.23881272 13.51486265 11.23828125 20.7578125 C9.54534049 25.34815781 8.31173677 28.39637434 4 31 C1.25 31.1875 1.25 31.1875 -1 31 C-1.350625 32.258125 -1.70125 33.51625 -2.0625 34.8125 C-4.75996808 42.89212004 -9.11774209 49.92699546 -16 55 C-14.67318497 51.59166782 -13.20366475 48.29810216 -11.625 45 C-6.37768707 33.33588504 -4.16369945 21.91312684 -2.30639648 9.31787109 C-2.07158569 7.72966553 -2.07158569 7.72966553 -1.83203125 6.109375 C-1.69514893 5.14999023 -1.5582666 4.19060547 -1.41723633 3.20214844 C-1 1 -1 1 0 0 Z " fill="#F3A796" transform="translate(180,77)"/>
<path d="M0 0 C0.05422119 0.68288086 0.10844238 1.36576172 0.16430664 2.06933594 C1.17545902 14.05857071 2.30991861 25.73618897 6.375 37.125 C6.65480713 37.9097168 6.93461426 38.69443359 7.22290039 39.50292969 C9.01755414 44.1918751 11.2715656 48.23983293 14.13134766 52.36669922 C14.41800293 52.90568848 14.7046582 53.44467773 15 54 C14.67 54.66 14.34 55.32 14 56 C-1 38.74025974 -1 38.74025974 -1 31 C-1.9075 30.95875 -2.815 30.9175 -3.75 30.875 C-7 30 -7 30 -9.25 27.375 C-12.6537492 20.81062654 -14.23035494 14.27294973 -12.53515625 7.0078125 C-11.32405092 3.5536541 -10.36798637 2.18007844 -7.0625 0.5625 C-4 0 -4 0 0 0 Z " fill="#F3A897" transform="translate(77,77)"/>
<path d="M0 0 C0.66 0.66 1.32 1.32 2 2 C0.44223757 5.11552486 -2.55373589 5.56481725 -5.6875 6.625 C-18.9814576 10.99765773 -31.28863498 9.50309096 -44 4 C-44.66 3.01 -45.32 2.02 -46 1 C-44.58398286 0.51891725 -43.16715563 0.04021859 -41.75 -0.4375 C-40.96109375 -0.70433594 -40.1721875 -0.97117188 -39.359375 -1.24609375 C-27.5626181 -5.01558726 -11.52296266 -4.71295659 0 0 Z " fill="#51609E" transform="translate(149,143)"/>
<path d="M0 0 C0.66 0.33 1.32 0.66 2 1 C1.32875954 4.05109298 0.86922048 5.55525638 -1 8 C-5.1150079 10.5568397 -9.48282073 12.27679821 -14 14 C-15.55267578 14.60714844 -15.55267578 14.60714844 -17.13671875 15.2265625 C-23.80603956 17.65018496 -29.91935498 18.62733447 -37 19 C-37 13.06 -37 7.12 -37 1 C-34.463125 1.7425 -34.463125 1.7425 -31.875 2.5 C-21.40112031 5.07837557 -12.05896189 5.14868592 -2.109375 0.77734375 C-1.41328125 0.52082031 -0.7171875 0.26429688 0 0 Z " fill="#F4A998" transform="translate(146,147)"/>
<path d="M0 0 C3.875 1.75 3.875 1.75 5 4 C5.2426639 8.36795019 5.12232587 11.19155753 3 15 C3.69867188 15.12117188 4.39734375 15.24234375 5.1171875 15.3671875 C6.02726563 15.53476563 6.93734375 15.70234375 7.875 15.875 C8.77992188 16.03742188 9.68484375 16.19984375 10.6171875 16.3671875 C13 17 13 17 15 19 C14.8125 21.5 14.8125 21.5 14 24 C10.38990719 26.40672854 7.73024719 26.29795107 3.5625 26.25 C1.58443359 26.25773437 1.58443359 26.25773437 -0.43359375 26.265625 C-3.6341051 26.02725176 -5.43594193 25.87055353 -8 24 C-8.75 21.375 -8.75 21.375 -9 19 C-4.375 16 -4.375 16 -1 16 C-1.48533203 15.15115234 -1.48533203 15.15115234 -1.98046875 14.28515625 C-3.0833148 11.81325993 -3.29883934 10.12865086 -3.3125 7.4375 C-3.32925781 6.67308594 -3.34601563 5.90867187 -3.36328125 5.12109375 C-2.91796488 2.52102077 -1.99996498 1.65168612 0 0 Z " fill="#F5AFA8" transform="translate(147,80)"/>
<path d="M0 0 C1.9375 0.375 1.9375 0.375 4 1 C5.23184766 3.46369532 5.16732342 5.1894501 5.1875 7.9375 C5.20167969 8.81277344 5.21585938 9.68804687 5.23046875 10.58984375 C5 13 5 13 3 16 C3.94875 16.12375 4.8975 16.2475 5.875 16.375 C9 17 9 17 11 19 C10.9375 21.5 10.9375 21.5 10 24 C6.16564106 26.02504256 2.79394218 26.29745114 -1.5 26.3125 C-3.15515625 26.33763672 -3.15515625 26.33763672 -4.84375 26.36328125 C-8.29823407 25.96567355 -10.18673608 24.98922952 -13 23 C-12.75 20.625 -12.75 20.625 -12 18 C-8.7044247 15.33818918 -5.06660119 15.84359226 -1 16 C-1.33 15.01 -1.66 14.02 -2 13 C-2.11766176 11.33631742 -2.17509083 9.66779197 -2.1875 8 C-2.20167969 7.13375 -2.21585938 6.2675 -2.23046875 5.375 C-2 3 -2 3 0 0 Z " fill="#F5AFA8" transform="translate(106,80)"/>
<path d="M0 0 C7.92 0 15.84 0 24 0 C18.74314214 6.57107232 18.74314214 6.57107232 13.8515625 7.3359375 C8.4154295 7.43130825 5.25402399 6.72227099 1 3 C0.67 2.01 0.34 1.02 0 0 Z " fill="#FEFDFC" transform="translate(116,125)"/>
<path d="M0 0 C4.66932996 0.12804378 8.18162233 1.25259518 12.375 3.3125 C13.09765625 5.421875 13.09765625 5.421875 13.375 7.3125 C8.625 8.4375 8.625 8.4375 6.375 7.3125 C4.50443209 7.0849985 2.62814042 6.90287189 0.75 6.75 C-0.75433594 6.62431641 -0.75433594 6.62431641 -2.2890625 6.49609375 C-3.05992187 6.43550781 -3.83078125 6.37492187 -4.625 6.3125 C-5.25 4.4375 -5.25 4.4375 -5.625 2.3125 C-3.625 0.3125 -3.625 0.3125 0 0 Z " fill="#5865A0" transform="translate(146.625,68.6875)"/>
<path d="M0 0 C3.875 1.75 3.875 1.75 5 4 C5.23553948 8.23971058 5.32845886 11.36178302 3 15 C0.5625 14.625 0.5625 14.625 -2 14 C-3.16343227 11.67313547 -3.19895988 10.15278587 -3.25 7.5625 C-3.28867188 6.38880859 -3.28867188 6.38880859 -3.328125 5.19140625 C-2.92823089 2.52068491 -2.05300878 1.68022561 0 0 Z " fill="#35356F" transform="translate(147,80)"/>
<path d="M0 0 C1.32 0.66 2.64 1.32 4 2 C2.878337 11.80362598 -3.4259085 19.94487742 -10 27 C-10 23.30483265 -8.86216858 21.32010956 -7.25 18 C-4.458662 12.10644038 -2.10189502 6.16968009 0 0 Z " fill="#505F9F" transform="translate(175,105)"/>
<path d="M0 0 C1.25425781 0.02707031 2.50851563 0.05414063 3.80078125 0.08203125 C4.75339844 0.11683594 5.70601562 0.15164062 6.6875 0.1875 C6.3575 1.8375 6.0275 3.4875 5.6875 5.1875 C4.60082031 5.27837891 4.60082031 5.27837891 3.4921875 5.37109375 C-1.48366533 5.80233433 -6.39930391 6.25797641 -11.3125 7.1875 C-11.6425 5.8675 -11.9725 4.5475 -12.3125 3.1875 C-8.11677648 0.13095954 -5.13357724 -0.14393207 0 0 Z " fill="#52619F" transform="translate(107.3125,69.8125)"/>
<path d="M0 0 C0.19110352 0.54414551 0.38220703 1.08829102 0.57910156 1.64892578 C1.46086156 4.14406252 2.35530894 6.63447224 3.25 9.125 C3.55035156 9.9809375 3.85070312 10.836875 4.16015625 11.71875 C5.94464616 16.65457316 7.87198836 20.77856837 11 25 C10.67 25.66 10.34 26.32 10 27 C3.90714264 19.98925764 -1.42827249 12.63268377 -5 4 C-4.67 3.01 -4.34 2.02 -4 1 C-2 0 -2 0 0 0 Z " fill="#5361A0" transform="translate(81,106)"/>
<path d="M0 0 C1.9375 0.375 1.9375 0.375 4 1 C5.23887548 3.47775095 5.16741669 5.23653707 5.1875 8 C5.20167969 8.886875 5.21585937 9.77375 5.23046875 10.6875 C5 13 5 13 3 15 C-0.53571429 14.46428571 -0.53571429 14.46428571 -2 13 C-2.12494616 11.37860563 -2.17571624 9.75115878 -2.1875 8.125 C-2.20167969 7.24070312 -2.21585937 6.35640625 -2.23046875 5.4453125 C-2 3 -2 3 0 0 Z " fill="#31326D" transform="translate(106,80)"/>
<path d="M0 0 C2.34234267 0.93693707 3.72522277 1.58020146 5.125 3.71875 C6.20194057 6.52648792 6.1963943 8.75143928 6.125 11.75 C6.10695313 12.73484375 6.08890625 13.7196875 6.0703125 14.734375 C6.03550781 15.85585937 6.03550781 15.85585937 6 17 C5.01 17.33 4.02 17.66 3 18 C3 15.36 3 12.72 3 10 C1.35 10 -0.3 10 -2 10 C-1.67 8.68 -1.34 7.36 -1 6 C-0.01 6 0.98 6 2 6 C1.34 5.01 0.68 4.02 0 3 C0 2.01 0 1.02 0 0 Z " fill="#EA887F" transform="translate(72,83)"/>
<path d="M0 0 C0.99 0 1.98 0 3 0 C1.125 4.75 1.125 4.75 0 7 C1.32 7 2.64 7 4 7 C4 7.66 4 8.32 4 9 C2.35 9 0.7 9 -1 9 C-1 11.97 -1 14.94 -1 18 C-1.66 18 -2.32 18 -3 18 C-4.85412674 14.29174653 -4.45790469 10.04688735 -4 6 C-2.96349982 3.3830936 -1.95171866 2.11900883 0 0 Z " fill="#E9857C" transform="translate(182,83)"/>
<path d="M0 0 C0.66 0 1.32 0 2 0 C1.4294891 3.99357628 0.07130449 6.57784475 -2 10 C-2 10.99 -2 11.98 -2 13 C-0.68 13.66 0.64 14.32 2 15 C1.67 15.99 1.34 16.98 1 18 C-1.91517292 16.92598892 -3.77810176 16.22189824 -6 14 C-5.87908355 7.8332608 -3.83219915 4.57994533 0 0 Z " fill="#EA8980" transform="translate(127,101)"/>
</svg>
