<?xml version="1.0" encoding="UTF-8"?>
<svg version="1.1" xmlns="http://www.w3.org/2000/svg" width="512" height="512">
<path d="M0 0 C2.07376944 1.82311112 4.09900616 3.68507904 6.125 5.5625 C6.94742187 6.30371094 7.76984375 7.04492188 8.6171875 7.80859375 C43.04341907 40.26931383 48.55436794 95.1211654 50.01123047 139.66552734 C50.86997822 171.65647735 48.17091939 203.5589613 43.5625 235.1875 C43.45667603 235.91587067 43.35085205 236.64424133 43.24182129 237.39468384 C42.9375734 239.46474237 42.62509509 241.53334521 42.30859375 243.6015625 C42.12868896 244.77928223 41.94878418 245.95700195 41.76342773 247.17041016 C39.97030454 256.69761999 39.97030454 256.69761999 37.26953125 259.4609375 C36.49996094 259.94820313 35.73039062 260.43546875 34.9375 260.9375 C34.0403125 261.51371094 33.143125 262.08992188 32.21875 262.68359375 C31.1978125 263.30363281 30.176875 263.92367188 29.125 264.5625 C27.96857365 265.28226882 26.8123314 266.0023335 25.65625 266.72265625 C21.85074728 269.0695774 17.99583758 271.32542555 14.125 273.5625 C13.54153809 273.9042627 12.95807617 274.24602539 12.35693359 274.59814453 C-4.66609306 284.489185 -28.87065996 296.5625 -48.875 296.5625 C-47.99691188 301.92415929 -47.00405493 307.2479325 -45.875 312.5625 C-45.66617187 313.55507813 -45.45734375 314.54765625 -45.2421875 315.5703125 C-43.66404428 320.86955133 -41.32819391 323.35537777 -36.6875 326.3125 C-35.00551514 327.21548828 -35.00551514 327.21548828 -33.28955078 328.13671875 C-30.03445779 329.89037338 -26.88135718 331.76739536 -23.7331543 333.70605469 C-8.12286307 343.13870448 7.53603734 348.7565528 25.05089188 353.49663925 C28.59135453 354.46255266 32.12112733 355.46612413 35.65209961 356.46606445 C41.37246132 358.08183262 47.09781773 359.67836885 52.82763672 361.26025391 C60.65024692 363.42152412 68.45454913 365.64281057 76.25390625 367.88671875 C77.41151459 368.21966949 78.56912292 368.55262024 79.7618103 368.8956604 C81.99594655 369.5383884 84.23004805 370.18123718 86.46411133 370.82421875 C91.53727999 372.2812706 96.61405764 373.7255609 101.69140625 375.16796875 C102.98951988 375.53676399 102.98951988 375.53676399 104.31385803 375.91300964 C106.25083219 376.46309745 108.18790321 377.01284418 110.125 377.5625 C108.97058909 381.13931289 107.74279687 384.59772928 106.1796875 388.015625 C105.64794922 389.19125 105.64794922 389.19125 105.10546875 390.390625 C104.36124016 392.02109047 103.61643754 393.65129403 102.87109375 395.28125 C102.51917969 396.05984375 102.16726563 396.8384375 101.8046875 397.640625 C101.48226074 398.34606445 101.15983398 399.05150391 100.82763672 399.77832031 C100.00285856 401.55305773 100.00285856 401.55305773 100.125 403.5625 C101.52677604 404.4351892 102.97496598 405.2334775 104.4375 406 C121.65310418 416.09106742 132.10362803 434.45475748 137.12109375 453.3046875 C139.60257997 464.34670751 140.125 474.09911857 140.125 485.5625 C-8.375 485.5625 -156.875 485.5625 -309.875 485.5625 C-309.875 470.33233627 -309.875 470.33233627 -308.625 463 C-308.48932617 462.18700439 -308.35365234 461.37400879 -308.21386719 460.53637695 C-305.38903823 444.48490813 -298.87698034 429.69341489 -287.875 417.5625 C-286.80765625 416.37333984 -286.80765625 416.37333984 -285.71875 415.16015625 C-280.66765395 409.81559864 -275.35712672 406.01331902 -268.875 402.5625 C-269.35710937 401.39332031 -269.83921875 400.22414063 -270.3359375 399.01953125 C-270.97397182 397.47135973 -271.61199191 395.92318233 -272.25 394.375 C-272.72566406 393.22161133 -272.72566406 393.22161133 -273.2109375 392.04492188 C-273.82698368 390.54972647 -274.44129515 389.05381494 -275.05371094 387.55712891 C-275.72278326 385.93218216 -276.40959338 384.31454795 -277.1015625 382.69921875 C-277.875 380.5625 -277.875 380.5625 -277.875 377.5625 C-276.12411115 377.04986443 -274.37321408 376.53725696 -272.62231445 376.0246582 C-271.46458023 375.68571533 -270.30684601 375.34677246 -269.11402893 374.99755859 C-266.4875723 374.22876705 -263.86095991 373.46051047 -261.23423767 372.69262695 C-254.64497981 370.76611864 -248.0563562 368.8375753 -241.47076988 366.89854717 C-237.72196507 365.7950167 -233.9725095 364.69371225 -230.22265625 363.59375 C-229.10200083 363.26502112 -229.10200083 363.26502112 -227.9587059 362.92965126 C-218.52001184 360.16508224 -209.06429266 357.49555029 -199.55859375 354.96875 C-177.33668692 349.01573021 -158.3330256 342.01537352 -138.875 329.5625 C-137.84600586 328.94407227 -136.81701172 328.32564453 -135.75683594 327.68847656 C-134.7671582 327.08745117 -133.77748047 326.48642578 -132.7578125 325.8671875 C-131.43740967 325.07417236 -131.43740967 325.07417236 -130.09033203 324.26513672 C-122.83993004 318.6926986 -122.37216904 306.06914226 -120.875 297.5625 C-122.09832031 297.34335937 -123.32164062 297.12421875 -124.58203125 296.8984375 C-156.62941887 290.95374981 -188.33758063 278.72841399 -214.875 259.5625 C-215.865 258.9025 -216.855 258.2425 -217.875 257.5625 C-218.55003285 255.09988017 -219.00728977 252.82648852 -219.375 250.3125 C-219.49536621 249.53817627 -219.61573242 248.76385254 -219.73974609 247.96606445 C-222.63959408 228.32925422 -224.43355502 208.40913048 -224.875 188.5625 C-224.89691406 187.62229004 -224.91882813 186.68208008 -224.94140625 185.71337891 C-226.15572687 124.05624934 -216.03871958 52.64997368 -171.51953125 6.2421875 C-129.12484808 -36.71608821 -46.04306758 -38.96727217 0 0 Z " fill="#6077B9" transform="translate(340.875,26.4375)"/>
<path d="M0 0 C2.07376944 1.82311112 4.09900616 3.68507904 6.125 5.5625 C6.94742188 6.30371094 7.76984375 7.04492188 8.6171875 7.80859375 C43.04341907 40.26931383 48.55436794 95.1211654 50.01123047 139.66552734 C50.86997822 171.65647735 48.17091939 203.5589613 43.5625 235.1875 C43.45667603 235.91587067 43.35085205 236.64424133 43.24182129 237.39468384 C42.9375734 239.46474237 42.62509509 241.53334521 42.30859375 243.6015625 C42.12868896 244.77928223 41.94878418 245.95700195 41.76342773 247.17041016 C39.97030454 256.69761999 39.97030454 256.69761999 37.26953125 259.4609375 C36.49996094 259.94820313 35.73039062 260.43546875 34.9375 260.9375 C34.0403125 261.51371094 33.143125 262.08992188 32.21875 262.68359375 C31.1978125 263.30363281 30.176875 263.92367188 29.125 264.5625 C27.96857365 265.28226882 26.8123314 266.0023335 25.65625 266.72265625 C21.85074728 269.0695774 17.99583758 271.32542555 14.125 273.5625 C13.54153809 273.9042627 12.95807617 274.24602539 12.35693359 274.59814453 C-5.11687944 284.75110941 -29.35853146 296.5625 -49.875 296.5625 C-49.9294207 293.87472198 -49.96887266 291.18806788 -50 288.5 C-50.01675781 287.74783203 -50.03351563 286.99566406 -50.05078125 286.22070312 C-50.09294469 281.35082609 -49.74297442 277.14075631 -47.875 272.5625 C-45.84375 270.8828125 -45.84375 270.8828125 -43.375 269.6875 C-37.37783482 266.42967396 -32.72945462 262.32869181 -27.875 257.5625 C-26.87533203 256.59957031 -26.87533203 256.59957031 -25.85546875 255.6171875 C-8.24388836 237.32409992 0.46965137 211.45282815 7.125 187.5625 C7.785 187.5625 8.445 187.5625 9.125 187.5625 C9.846875 188.3875 10.56875 189.2125 11.3125 190.0625 C13.93707395 192.85685626 13.93707395 192.85685626 17.5625 193.0625 C23.11267318 192.28352833 26.56180134 190.56714639 30.1875 186.3125 C37.81548363 175.26299337 39.51162561 162.60705199 38.125 149.5625 C36.70906599 143.1154813 34.66472746 137.51944819 29.125 133.5625 C25.94349108 132.68260026 25.94349108 132.68260026 23.125 132.5625 C17.16726999 138.52023001 17.23781135 146.28200324 16.43041992 154.23974609 C15.00625742 168.22373368 15.00625742 168.22373368 12.125 174.5625 C11.135 174.8925 10.145 175.2225 9.125 175.5625 C7.09819131 167.26839635 5.64125349 158.95603704 4.5 150.5 C4.36625977 149.51966797 4.23251953 148.53933594 4.09472656 147.52929688 C3.47417966 142.63192156 3.05345457 137.84515751 3.06640625 132.90625 C3.09464216 120.75611943 1.31082073 114.53600812 -6.51416016 105.29003906 C-8.8869587 102.27785347 -10.71678393 98.97748864 -12.5625 95.625 C-13.11599121 94.62001465 -13.11599121 94.62001465 -13.68066406 93.59472656 C-23.05140806 76.29681712 -28.92720831 58.81625501 -32.875 39.5625 C-33.33648437 40.56667969 -33.79796875 41.57085937 -34.2734375 42.60546875 C-38.81429888 52.22509621 -43.96916945 60.47510708 -50.875 68.5625 C-51.69871094 69.53896484 -51.69871094 69.53896484 -52.5390625 70.53515625 C-79.12858785 99.37456452 -128.55963888 115.21216046 -166.375 117.375 C-168.5410372 117.45644652 -170.70771563 117.52744099 -172.875 117.5625 C-172.85179687 118.48546875 -172.82859375 119.4084375 -172.8046875 120.359375 C-172.55202136 138.62352746 -173.05579718 159.1301392 -181.875 175.5625 C-184.71840627 172.71909373 -184.73346132 169.5331017 -185.3125 165.703125 C-185.43810303 164.92112732 -185.56370605 164.13912964 -185.69311523 163.33343506 C-186.09478613 160.82761027 -186.48571315 158.32027625 -186.875 155.8125 C-187.26533085 153.31920148 -187.65809191 150.82637127 -188.05688477 148.33441162 C-188.30474785 146.78367748 -188.54767859 145.23214434 -188.78491211 143.67974854 C-189.45473474 139.46768613 -190.39628576 135.58453928 -191.875 131.5625 C-197.34566028 132.74244633 -200.37780176 133.93107531 -203.875 138.5625 C-209.54927905 148.89117134 -209.60242786 161.55101342 -206.38256836 172.6953125 C-203.87884977 180.33305535 -200.6698593 186.4487693 -194.4375 191.5625 C-189.66368963 193.42545039 -186.09184557 193.09348716 -181.4375 191.0625 C-180.591875 190.5675 -179.74625 190.0725 -178.875 189.5625 C-178.70121826 190.09544678 -178.52743652 190.62839355 -178.34838867 191.17749023 C-168.7571518 220.30421383 -155.84059949 255.59666495 -126.8125 270.4375 C-125.70777344 270.97117187 -124.60304688 271.50484375 -123.46484375 272.0546875 C-120.875 273.5625 -120.875 273.5625 -119.875 276.5625 C-119.79393314 278.11671729 -119.76743102 279.67417027 -119.77734375 281.23046875 C-119.78217773 282.56948242 -119.78217773 282.56948242 -119.78710938 283.93554688 C-119.79967773 285.32870117 -119.79967773 285.32870117 -119.8125 286.75 C-119.81701172 287.69037109 -119.82152344 288.63074219 -119.82617188 289.59960938 C-119.83795374 291.92063712 -119.85440442 294.24153644 -119.875 296.5625 C-123.3060322 297.7061774 -124.54454334 297.38248313 -128.00390625 296.55859375 C-129.54268433 296.19447388 -129.54268433 296.19447388 -131.11254883 295.82299805 C-132.20978271 295.55140869 -133.3070166 295.27981934 -134.4375 295 C-135.56631592 294.72260986 -136.69513184 294.44521973 -137.8581543 294.15942383 C-165.34082259 287.26583014 -191.63437962 275.87788501 -214.875 259.5625 C-215.865 258.9025 -216.855 258.2425 -217.875 257.5625 C-218.55003285 255.09988017 -219.00728977 252.82648852 -219.375 250.3125 C-219.49536621 249.53817627 -219.61573242 248.76385254 -219.73974609 247.96606445 C-222.63959408 228.32925422 -224.43355502 208.40913048 -224.875 188.5625 C-224.89691406 187.62229004 -224.91882813 186.68208008 -224.94140625 185.71337891 C-226.15572687 124.05624934 -216.03871958 52.64997368 -171.51953125 6.2421875 C-129.12484808 -36.71608821 -46.04306758 -38.96727217 0 0 Z " fill="#2A2E6C" transform="translate(340.875,26.4375)"/>
<path d="M0 0 C0.33 0 0.66 0 1 0 C1.15855469 1.0415625 1.31710937 2.083125 1.48046875 3.15625 C4.07316939 19.40269346 8.90064908 34.16941875 16 49 C16.29745117 49.62229492 16.59490234 50.24458984 16.90136719 50.88574219 C19.85338205 56.95253166 22.87535627 62.72295038 27.140625 67.98046875 C34.79601923 77.49391338 37.10379444 83.85701336 36.9375 96.02734375 C36.86845582 103.21656912 37.95260661 110.2140941 39 117.3125 C39.17917969 118.54645508 39.35835937 119.78041016 39.54296875 121.05175781 C39.87890811 123.35471054 40.21728374 125.65730977 40.55859375 127.95947266 C41.09210281 131.63442944 41.56028061 135.31276966 42 139 C48.42883231 133.8963309 48.162287 121.34454433 49.0625 113.5625 C49.19785156 112.28503906 49.33320313 111.00757813 49.47265625 109.69140625 C50.16065103 104.87544279 50.93410555 100.52270635 53.75 96.5 C56 95 56 95 58.9375 94.9375 C64.22501402 96.77194364 66.74893501 100.24030276 69.25 105.0625 C74.05332244 115.00380259 73.31303406 127.76153512 69.875 138.0625 C67.06909376 145.54226706 63.67905016 151.46918235 57 156 C53.39427296 157.20190901 50.7897565 157.32670315 47 157 C44.0625 155.125 44.0625 155.125 42 153 C42 152.34 42 151.68 42 151 C41.34 151 40.68 151 40 151 C39.79375 152.27875 39.5875 153.5575 39.375 154.875 C33.37282835 184.30633823 17.84466665 213.32601769 -6 232 C-8.39350554 233.34612191 -10.76046794 234.55851267 -13.28515625 235.63671875 C-15.26196998 236.93332113 -15.26196998 236.93332113 -15.73046875 239.65234375 C-16.73669798 252.15000244 -15.98612809 263.83086738 -13 276 C-12.79117188 276.97066406 -12.58234375 277.94132812 -12.3671875 278.94140625 C-10.74104094 284.54733255 -8.22236457 286.83412998 -3.23046875 289.78125 C-2.65939896 290.12115967 -2.08832916 290.46106934 -1.49995422 290.8112793 C0.32488937 291.88960089 2.15981862 292.94808735 4 294 C4.59546631 294.34039307 5.19093262 294.68078613 5.80444336 295.03149414 C9.95388488 297.39071407 14.13009878 299.6998783 18.3125 302 C19.55419397 302.68591285 20.79573107 303.37210976 22.03710938 304.05859375 C25.02295048 305.70898582 28.01085363 307.35560015 31 309 C28.24712277 311.26941921 25.63286115 313.37360887 22.43359375 314.96484375 C21.7897876 315.28743164 21.14598145 315.61001953 20.48266602 315.94238281 C19.80776123 316.27077148 19.13285645 316.59916016 18.4375 316.9375 C17.727146 317.28522461 17.01679199 317.63294922 16.28491211 317.99121094 C14.19502734 319.00520166 12.09909109 320.00523133 10 321 C8.97132813 321.49113281 7.94265625 321.98226563 6.8828125 322.48828125 C-1.45467547 326.21821008 -10.07339534 328.24708588 -19 330 C-20.15757812 330.22816406 -21.31515625 330.45632813 -22.5078125 330.69140625 C-58.02256885 336.47570028 -103.47338114 329.88950837 -134 310 C-131.53848849 307.23905965 -128.85790095 305.65983654 -125.625 303.890625 C-124.02205078 303.00503906 -124.02205078 303.00503906 -122.38671875 302.1015625 C-121.26910156 301.49054688 -120.15148437 300.87953125 -119 300.25 C-112.55042146 296.71535553 -106.12234025 293.15673199 -99.84375 289.32421875 C-98.96912109 288.79143311 -98.09449219 288.25864746 -97.19335938 287.7097168 C-93.19023319 284.58929241 -92.14216187 280.79707986 -91 276 C-90.70609375 274.88109375 -90.4121875 273.7621875 -90.109375 272.609375 C-87.4377124 260.80548389 -87.69126217 249.04552507 -88 237 C-88.88171875 236.731875 -89.7634375 236.46375 -90.671875 236.1875 C-110.38853318 229.15244826 -124.23755552 208.09189632 -133 190 C-138.26171773 178.32486869 -142.43050163 166.28731169 -146 154 C-146.9178125 154.48597656 -147.835625 154.97195312 -148.78125 155.47265625 C-152.59481737 157.2822495 -154.82168448 157.52228944 -159 157 C-167.04176149 153.06117804 -170.81956562 146.17015968 -173.875 138.0625 C-177.49502842 127.02225128 -177.77738796 114.96395288 -173.14453125 104.17578125 C-170.9832654 100.06716323 -168.84764975 97.56509983 -165 95 C-161.8125 94.875 -161.8125 94.875 -159 95 C-154.85558162 103.5234754 -153.60059806 112.29170605 -152.3125 121.5625 C-151.99678945 123.76814573 -151.67758027 125.97320695 -151.35404968 128.17771912 C-151.06546643 130.15337092 -150.78697776 132.13048945 -150.5090332 134.10766602 C-150.30524924 136.8860311 -150.30524924 136.8860311 -149 138 C-148.1960279 135.75378786 -147.4070396 133.5038557 -146.625 131.25 C-146.40328125 130.63511719 -146.1815625 130.02023438 -145.953125 129.38671875 C-142.16343151 118.352023 -141.55728765 106.81268711 -140.875 95.25 C-140.78832719 93.85933956 -140.70109075 92.46871413 -140.61328125 91.078125 C-140.40333907 87.71905015 -140.19902438 84.35973636 -140 81 C-139.060354 80.9086377 -138.12070801 80.81727539 -137.15258789 80.72314453 C-94.96099517 76.40620321 -44.14449038 62.15415368 -15.62158203 28.3671875 C-8.74553503 19.7653779 -3.49479458 10.48438374 0 0 Z " fill="#B8694A" transform="translate(308,63)"/>
<path d="M0 0 C0.66 0 1.32 0 2 0 C2.06993164 0.60360352 2.13986328 1.20720703 2.21191406 1.82910156 C3.64498883 22.34132868 3.64498883 22.34132868 14 39 C17.39351978 41.10376047 20.90194067 42.95999863 24.4375 44.8125 C26.40814726 45.86477156 28.37819902 46.91815908 30.34765625 47.97265625 C31.78842529 48.74053467 31.78842529 48.74053467 33.25830078 49.52392578 C36.99959161 51.53815947 40.69395092 53.62811046 44.375 55.75 C45.47585938 56.38421875 46.57671875 57.0184375 47.7109375 57.671875 C48.46632813 58.11015625 49.22171875 58.5484375 50 59 C46.0749231 62.3956831 42.06512698 64.68583382 37.4375 66.9375 C36.727146 67.28522461 36.01679199 67.63294922 35.28491211 67.99121094 C33.19502734 69.00520166 31.09909109 70.00523133 29 71 C27.97132813 71.49113281 26.94265625 71.98226562 25.8828125 72.48828125 C17.54532453 76.21821008 8.92660466 78.24708588 0 80 C-1.73636719 80.34224609 -1.73636719 80.34224609 -3.5078125 80.69140625 C-39.02256885 86.47570028 -84.47338114 79.88950837 -115 60 C-112.53848849 57.23905965 -109.85790095 55.65983654 -106.625 53.890625 C-105.55636719 53.30023438 -104.48773438 52.70984375 -103.38671875 52.1015625 C-102.26910156 51.49054688 -101.15148437 50.87953125 -100 50.25 C-93.55986115 46.72052889 -87.13501545 43.1678481 -80.84765625 39.37109375 C-79.97375244 38.84700928 -79.09984863 38.3229248 -78.19946289 37.78295898 C-74.35113378 34.6633733 -73.34861421 30.60070106 -72 26 C-71.24609375 23.7265625 -71.24609375 23.7265625 -70 22 C-67.6640625 21.56640625 -67.6640625 21.56640625 -64.625 21.5625 C-46.60066703 20.66922359 -13.23253061 13.23253061 0 0 Z " fill="#B96B4B" transform="translate(289,313)"/>
<path d="M0 0 C8.92210472 19.12867967 17.40473868 38.44728893 25.84744263 57.79115295 C27.58788468 61.77877424 29.33587143 65.76263384 31.10351562 69.73828125 C31.43188416 70.47973389 31.76025269 71.22118652 32.09857178 71.98510742 C32.71491899 73.37592504 33.33410794 74.76548802 33.956604 76.15356445 C36 80.77558592 36 80.77558592 36 83 C9.93 83 -16.14 83 -43 83 C-43 67.76983627 -43 67.76983627 -41.75 60.4375 C-41.61432617 59.62450439 -41.47865234 58.81150879 -41.33886719 57.97387695 C-38.51403823 41.92240813 -32.00198034 27.13091489 -21 15 C-19.93265625 13.81083984 -19.93265625 13.81083984 -18.84375 12.59765625 C-6.93781198 0 -6.93781198 0 0 0 Z " fill="#B96B4B" transform="translate(74,429)"/>
<path d="M0 0 C13.26120382 3.31530095 23.1954029 16.06980583 29.92578125 27.2578125 C39.67744963 44.32882116 42 62.59700502 42 82 C16.26 82 -9.48 82 -36 82 C-34.20709342 76.62128025 -32.60541485 71.83616122 -30.27734375 66.78125 C-29.74713623 65.62061035 -29.21692871 64.4599707 -28.6706543 63.26416016 C-28.38894379 62.65243958 -28.10723328 62.04071899 -27.81698608 61.41046143 C-26.26846232 58.04668459 -24.73532458 54.675925 -23.203125 51.3046875 C-22.87350266 50.57978119 -22.54388031 49.85487488 -22.20426941 49.10800171 C-16.93861837 37.49255144 -11.87179546 25.7877041 -6.77905273 14.09570312 C-6.03370993 12.38931483 -5.28834947 10.68293424 -4.54296875 8.9765625 C-4.02672943 7.7865715 -4.02672943 7.7865715 -3.50006104 6.57254028 C-1.11291948 1.11291948 -1.11291948 1.11291948 0 0 Z " fill="#B96B4B" transform="translate(439,430)"/>
<path d="M0 0 C0.56136173 4.66143414 0.49933961 8.52259066 -1 13 C-5.41930747 16.9146135 -10.55203729 18.85760577 -16 21 C-16.81742676 21.33870117 -17.63485352 21.67740234 -18.47705078 22.02636719 C-35.44736906 29.0554931 -54.38431878 36.29937499 -73 36 C-72.9278125 35.31679688 -72.855625 34.63359375 -72.78125 33.9296875 C-71.77113603 22.95872744 -71.90366489 12.00739772 -72 1 C-71.31043213 1.19964355 -70.62086426 1.39928711 -69.91040039 1.60498047 C-42.07978364 9.56757573 -25.91027946 0 0 0 Z " fill="#AF5844" transform="translate(292,300)"/>
<path d="M0 0 C4.59225513 10.37357631 4.59225513 10.37357631 4 16 C3.34 15.67 2.68 15.34 2 15 C2 14.34 2 13.68 2 13 C0.35 13 -1.3 13 -3 13 C-1.76964855 17.06962402 -0.21023519 20.38325151 2 24 C2 24.66 2 25.32 2 26 C-1.96 26.495 -1.96 26.495 -6 27 C-6 28.32 -6 29.64 -6 31 C-2.7 31.33 0.6 31.66 4 32 C4 36.62 4 41.24 4 46 C5.32 46.33 6.64 46.66 8 47 C8.33 46.34 8.66 45.68 9 45 C9.66 45 10.32 45 11 45 C11.99 49.62 12.98 54.24 14 59 C12.35 59.66 10.7 60.32 9 61 C8.01 61.495 8.01 61.495 7 62 C3.00282972 62.3843433 0.56939991 62.27888975 -3.0625 60.5 C-11.45084813 53.36098031 -15.89290146 43.72503771 -17.27490234 32.83349609 C-18.10771698 22.33816539 -16.92554066 12.8288331 -10.9375 3.9375 C-7.26843782 0.26843782 -5.06239733 -0.22499544 0 0 Z " fill="#AD5745" transform="translate(149,158)"/>
<path d="M0 0 C2.5 2 2.5 2 4.5 4 C4.625 7.3125 4.625 7.3125 3.5 11 C-3.45166795 17.62392182 -12.90026184 18.47605771 -22.04296875 18.31640625 C-28.83629733 17.69464397 -36.54271433 16.17659191 -41.875 11.625 C-43.5 9 -43.5 9 -43.8125 6 C-41.45894725 0.62045086 -36.5773523 -1.12751203 -31.375 -3.3125 C-21.55686301 -5.05442753 -8.74168695 -5.63166371 0 0 Z " fill="#A5513F" transform="translate(318.5,202)"/>
<path d="M0 0 C3.28514755 1.77247855 5.13174873 3.06285746 7.22265625 6.19921875 C7.41015625 9.26171875 7.41015625 9.26171875 6.22265625 12.19921875 C-1.16125992 18.82581019 -10.85049295 19.71594779 -20.37109375 19.48828125 C-27.48905137 18.88423439 -34.36184472 17.05928198 -39.77734375 12.19921875 C-40.96484375 9.26171875 -40.96484375 9.26171875 -40.77734375 6.19921875 C-37.34213503 1.43425182 -33.17116567 -0.1307276 -27.77734375 -1.80078125 C-19.16847746 -4.67040335 -8.21424339 -3.5310096 0 0 Z " fill="#A5513F" transform="translate(227.77734375,200.80078125)"/>
<path d="M0 0 C1.125 6.625 1.125 6.625 0 10 C-0.96873047 9.7834375 -0.96873047 9.7834375 -1.95703125 9.5625 C-16.35971541 6.72530914 -30.25405223 6.58427058 -44 12 C-44.99 12.33 -45.98 12.66 -47 13 C-47 9.75832859 -46.54892946 7.64885926 -44.43359375 5.1484375 C-32.53407048 -5.7963295 -14.22600509 -7.34245424 0 0 Z " fill="#30306B" transform="translate(237,147)"/>
<path d="M0 0 C4.29644455 3.7184208 6.06447157 6.80463421 8 12 C7.07380859 11.70996094 7.07380859 11.70996094 6.12890625 11.4140625 C5.28199219 11.15367187 4.43507813 10.89328125 3.5625 10.625 C2.73878906 10.36976563 1.91507812 10.11453125 1.06640625 9.8515625 C-6.23083208 7.82506829 -12.90933559 6.67570312 -20.5 6.75 C-21.29019531 6.74226562 -22.08039063 6.73453125 -22.89453125 6.7265625 C-27.91236891 6.7429875 -32.41414806 7.38670724 -37.26757812 8.66894531 C-37.83927734 8.77819336 -38.41097656 8.88744141 -39 9 C-40 8 -40 8 -40.4375 4.1875 C-40.41796875 2.0078125 -40.41796875 2.0078125 -40 0 C-29.39631494 -9.39872085 -11.64188381 -5.68067824 0 0 Z " fill="#2F306B" transform="translate(313,148)"/>
<path d="M0 0 C3.18569528 0.98021393 4.41483976 2.09961762 6.4375 4.75 C9.22593333 10.88455332 9.32121568 16.81376882 7.0625 23.0625 C6.04536678 25.59505897 4.98027199 27.43584201 3.4375 29.75 C0.3630861 30.14247837 -1.6552615 30.33322475 -4.3125 28.625 C-8.28296341 22.66930488 -8.44851571 15.67538807 -7.5625 8.75 C-6.01932458 4.5796003 -4.41651259 1.29263783 0 0 Z " fill="#2E2E6A" transform="translate(215.5625,165.25)"/>
<path d="M0 0 C2.6875 0.375 2.6875 0.375 4.9375 2.625 C8.71493529 8.56096974 8.33241027 15.5355569 7.6875 22.375 C6.52386656 25.2840836 4.9074476 27.1550524 2.6875 29.375 C0.375 29.75 0.375 29.75 -2.3125 29.375 C-7.82571593 23.70863918 -7.64063562 18.34631932 -7.609375 10.78125 C-7.18899202 5.95790842 -5.28640945 0.85725559 0 0 Z " fill="#2C2E6A" transform="translate(294.3125,165.625)"/>
<path d="M0 0 C2.84052001 0.92124973 5.64404653 1.84761469 8.390625 3.0234375 C18.88703075 7.35090303 28.22759583 7.28864856 38.7578125 3.0703125 C41.19776224 1.9708252 41.19776224 1.9708252 44 0 C46.1875 0.375 46.1875 0.375 48 1 C47.9375 3.25 47.9375 3.25 47 6 C38.49280843 12.15413858 28.34448926 14.1650353 18 13 C10.76122202 11.38123658 4.22032372 9.05044335 -2 5 C-1.125 1.125 -1.125 1.125 0 0 Z " fill="#873F31" transform="translate(232,249)"/>
<path d="M0 0 C1.65 0.33 3.3 0.66 5 1 C4.45364989 6.84242135 2.0184809 10.49782414 -1.29296875 15.23242188 C-3.02855041 17.85445653 -4.00590669 19.54190303 -3.96484375 22.7265625 C-2.83822126 25.38119526 -1.85008816 26.27721663 0.5625 27.8125 C1.20316406 28.23144531 1.84382813 28.65039062 2.50390625 29.08203125 C2.99761719 29.38496094 3.49132812 29.68789062 4 30 C3.67 31.32 3.34 32.64 3 34 C-2.00284542 33.52353853 -5.03079315 32.06711438 -9 29 C-11.57691616 25.13462576 -11.58559425 23.61155472 -11 19 C-9.26624774 15.49190596 -7.12328598 12.28189403 -5 9 C-4.02682094 7.30007998 -3.06731233 5.59222247 -2.125 3.875 C-1.51011719 2.75738281 -1.51011719 2.75738281 -0.8828125 1.6171875 C-0.59148437 1.08351562 -0.30015625 0.54984375 0 0 Z " fill="#873F31" transform="translate(256,206)"/>
<path d="M0 0 C1.65 0 3.3 0 5 0 C5.83861979 5.36716665 2.92070405 8.79627239 0 13 C2.64 13 5.28 13 8 13 C8.38218767 14.65614657 8.71395102 16.32457024 9 18 C8 19 8 19 5.71484375 19.09765625 C3.14322917 19.06510417 0.57161458 19.03255208 -2 19 C-1.67 23.62 -1.34 28.24 -1 33 C-3.97 33.495 -3.97 33.495 -7 34 C-8.06763882 29.29527161 -7.78391106 25.97472476 -6.625 21.3125 C-5.20202304 15.19824742 -4.37054023 9.26085217 -4 3 C-3.01 2.67 -2.02 2.34 -1 2 C-0.67 1.34 -0.34 0.68 0 0 Z " fill="#853D32" transform="translate(361,171)"/>
<path d="M0 0 C4.49177034 -0.36419759 4.49177034 -0.36419759 6.59716797 1.14453125 C8.50472331 3.66757694 8.70168604 5.75064612 9.1328125 8.875 C9.29910156 10.02484375 9.46539062 11.1746875 9.63671875 12.359375 C9.79785156 13.56078125 9.95898438 14.7621875 10.125 16 C10.45886616 18.37529206 10.79471159 20.75030701 11.1328125 23.125 C11.27605957 24.17945313 11.41930664 25.23390625 11.56689453 26.3203125 C11.94102804 29.09110016 11.94102804 29.09110016 13 32 C12.34 32.99 11.68 33.98 11 35 C9.35 34.34 7.7 33.68 6 33 C6.33 28.38 6.66 23.76 7 19 C3.7 19 0.4 19 -3 19 C-3.38218767 17.34385343 -3.71395102 15.67542976 -4 14 C-3 13 -3 13 -1.15234375 12.90234375 C0.8984375 12.93489583 2.94921875 12.96744792 5 13 C4.6390625 12.48050781 4.278125 11.96101562 3.90625 11.42578125 C-0.7029877 4.49912127 -0.7029877 4.49912127 0 0 Z " fill="#843D32" transform="translate(146,171)"/>
<path d="M0 0 C2.9375 0.875 2.9375 0.875 4.9375 3.875 C4.6875 7 4.6875 7 3.9375 9.875 C1.17499964 11.25625018 -1.00981099 11.06579306 -4.0625 10.875 C-6.0625 8.875 -6.0625 8.875 -6.375 5.9375 C-6.0625 2.875 -6.0625 2.875 -4.9375 0.9375 C-3.0625 -0.125 -3.0625 -0.125 0 0 Z " fill="#FAF5F4" transform="translate(152.0625,204.125)"/>
<path d="M0 0 C2.4375 0.8125 2.4375 0.8125 4.4375 2.8125 C4.6875 5.8125 4.6875 5.8125 4.4375 8.8125 C2.4375 10.8125 2.4375 10.8125 -0.5 11.125 C-3.5625 10.8125 -3.5625 10.8125 -5.5 9.625 C-6.5625 7.8125 -6.5625 7.8125 -6.4375 5.3125 C-5.12382273 1.55913637 -4.20165457 -0.30743814 0 0 Z " fill="#FAF6F5" transform="translate(359.5625,204.1875)"/>
</svg>
