<?xml version="1.0" encoding="UTF-8"?>
<svg version="1.1" xmlns="http://www.w3.org/2000/svg" width="512" height="512">
<path d="M0 0 C1.55908081 -0.02682861 1.55908081 -0.02682861 3.1496582 -0.05419922 C9.14056225 -0.04743257 13.38426187 0.4855377 18.6875 3.3125 C19.6775 3.8075 19.6775 3.8075 20.6875 4.3125 C20.6875 4.9725 20.6875 5.6325 20.6875 6.3125 C21.3475 6.3125 22.0075 6.3125 22.6875 6.3125 C22.6875 5.6525 22.6875 4.9925 22.6875 4.3125 C33.41682797 -3.1384222 51.21732831 -0.72870713 63.45483398 1.38916016 C89.34940041 6.58740359 116.62974705 16.8157355 132.65625 39.04296875 C134.42288561 41.756551 136.07941029 44.50253075 137.6875 47.3125 C138.1 48.00214844 138.5125 48.69179688 138.9375 49.40234375 C143.26594293 57.18399299 143.6985863 65.63963997 144.125 74.375 C144.71675701 85.25901145 146.9591207 91.90015808 153.62109375 100.57421875 C162.84180314 112.79296597 164.92484548 123.30040599 163.6875 138.3125 C162.36031858 145.77035469 159.69462978 152.38695092 156.5625 159.25 C153.78896744 165.42647027 152.92993097 171.00406405 152.234375 177.6953125 C151.34699634 183.56468849 149.41404424 190.214675 145.40917969 194.76489258 C140.55118801 200.3841985 141.2115868 205.86340476 141.5625 213 C142.08018512 225.02568547 140.70456001 235.4991756 135.1875 246.3125 C134.84638184 246.98474609 134.50526367 247.65699219 134.15380859 248.34960938 C125.11987521 265.25361978 108.394495 275.33718761 92.96289062 285.765625 C90.36900022 287.52902517 87.79774967 289.32260488 85.23071289 291.12475586 C76.74152109 297.07377289 68.76358868 302.53792486 58.6875 305.3125 C59.0175 305.9725 59.3475 306.6325 59.6875 307.3125 C59.89905654 309.28353668 60.10590529 311.25525756 60.2824707 313.22973633 C61.55207811 329.99519994 61.55207811 329.99519994 70.6875 343.3125 C73.93675427 345.33093661 77.29856002 347.10375648 80.6875 348.875 C82.68196873 349.93957385 84.67543547 351.00602675 86.66796875 352.07421875 C88.18076416 352.88318604 88.18076416 352.88318604 89.72412109 353.70849609 C94.19255244 356.12714776 98.59806888 358.65037002 103 361.1875 C110.69999117 365.61572409 118.4318795 369.98243158 126.1875 374.3125 C134.73149079 379.08442014 143.24558637 383.90410169 151.734375 388.7734375 C158.52754385 392.66407057 165.35300594 396.49500199 172.1875 400.3125 C181.71177078 405.63445783 191.21225569 410.99457053 200.66796875 416.4375 C204.05067968 418.38366306 207.44965554 420.29612331 210.86328125 422.1875 C219.6580158 427.09538181 227.75933188 431.86217215 234.6875 439.3125 C235.450625 440.11816406 236.21375 440.92382812 237 441.75390625 C254.50293716 461.59253942 258.6875 486.6612939 258.6875 512.3125 C102.2675 512.3125 -54.1525 512.3125 -215.3125 512.3125 C-215.3125 484.25021963 -210.16009106 460.75842152 -191.3125 439.3125 C-190.58933594 438.41337891 -190.58933594 438.41337891 -189.8515625 437.49609375 C-183.85936324 430.6637184 -175.14259538 426.68254952 -167.3125 422.3125 C-166.37486816 421.78736816 -165.43723633 421.26223633 -164.47119141 420.72119141 C-160.32772672 418.40087831 -156.18334021 416.08228213 -152.03442383 413.77172852 C-144.67700945 409.66656471 -137.38702588 405.45879327 -130.125 401.1875 C-121.70365824 396.23755625 -113.19940128 391.48518309 -104.60083008 386.85107422 C-97.75391256 383.14337486 -91.02224791 379.2623283 -84.3125 375.3125 C-75.7684108 370.28413738 -67.14681796 365.44241897 -58.42578125 360.72851562 C-51.84425299 357.16511551 -45.31340678 353.52096017 -38.8125 349.8125 C-37.9460083 349.31991699 -37.0795166 348.82733398 -36.18676758 348.31982422 C-33.88469431 347.00129576 -31.59624171 345.66246633 -29.3125 344.3125 C-28.70438477 343.96590332 -28.09626953 343.61930664 -27.46972656 343.26220703 C-21.2601654 339.5097342 -20.40434956 333.47068155 -18.66015625 326.828125 C-17.14695969 320.06844401 -16.72353657 313.21358761 -16.3125 306.3125 C-17.32957031 306.16554688 -17.32957031 306.16554688 -18.3671875 306.015625 C-32.34692378 302.67828743 -44.84306277 292.48773809 -56.3125 284.3125 C-57.64529392 283.37423331 -58.9785947 282.43668601 -60.3125 281.5 C-66.77954781 276.94094008 -73.1434793 272.26996954 -79.3125 267.3125 C-79.92480469 266.84714844 -80.53710938 266.38179688 -81.16796875 265.90234375 C-92.36582635 257.0281034 -99.77438705 242.20216463 -102.3125 228.3125 C-102.61655935 222.49187384 -102.34008598 216.69088351 -102.10742188 210.87109375 C-101.91341628 202.26860175 -103.42731887 195.38353965 -106.3125 187.3125 C-106.88697786 185.42026178 -107.45161343 183.5249638 -108 181.625 C-108.23074219 180.83738281 -108.46148437 180.04976562 -108.69921875 179.23828125 C-109.24436689 176.63754265 -109.46739585 174.25581782 -109.6484375 171.61328125 C-110.16640879 165.9887716 -112.00464447 161.32996027 -114.25 156.1875 C-119.84724539 143.1105725 -123.90985997 127.84151727 -118.8125 113.8125 C-116.05698246 108.18379158 -112.0778086 103.29049248 -108.3125 98.3125 C-107.331171 96.93273667 -106.36965691 95.53844861 -105.4375 94.125 C-105.06882812 93.57457031 -104.70015625 93.02414063 -104.3203125 92.45703125 C-100.72030569 84.79655164 -100.72612626 76.27356601 -100.27734375 67.9765625 C-99.05031337 50.56662197 -89.00960217 37.26803177 -76.5625 25.6875 C-61.40274123 12.95450103 -43.13567982 7.1192691 -24.3125 2.3125 C-23.26707031 2.04179688 -22.22164062 1.77109375 -21.14453125 1.4921875 C-14.18375765 0.03217295 -7.08562123 0.08351571 0 0 Z " fill="#646DB2" transform="translate(234.3125,-0.3125)"/>
<path d="M0 0 C1.55908081 -0.02682861 1.55908081 -0.02682861 3.1496582 -0.05419922 C9.14056225 -0.04743257 13.38426187 0.4855377 18.6875 3.3125 C19.6775 3.8075 19.6775 3.8075 20.6875 4.3125 C20.6875 4.9725 20.6875 5.6325 20.6875 6.3125 C21.3475 6.3125 22.0075 6.3125 22.6875 6.3125 C22.6875 5.6525 22.6875 4.9925 22.6875 4.3125 C33.41682797 -3.1384222 51.21732831 -0.72870713 63.45483398 1.38916016 C89.34940041 6.58740359 116.62974705 16.8157355 132.65625 39.04296875 C134.42288561 41.756551 136.07941029 44.50253075 137.6875 47.3125 C138.1 48.00214844 138.5125 48.69179688 138.9375 49.40234375 C143.26594293 57.18399299 143.6985863 65.63963997 144.125 74.375 C144.71675701 85.25901145 146.9591207 91.90015808 153.62109375 100.57421875 C162.84180314 112.79296597 164.92484548 123.30040599 163.6875 138.3125 C162.36031858 145.77035469 159.69462978 152.38695092 156.5625 159.25 C153.78896744 165.42647027 152.92993097 171.00406405 152.234375 177.6953125 C151.04265629 185.57768056 147.52540584 194.63280299 141.6875 200.3125 C136.94900439 203.66851697 132.53929188 205.17943213 126.6875 204.3125 C123.3125 202.6875 123.3125 202.6875 120.6875 200.3125 C119.12427462 194.99915363 120.12927161 190.25087617 121.125 184.9375 C121.27259766 184.10605469 121.42019531 183.27460938 121.57226562 182.41796875 C121.93513617 180.38121149 122.31010124 178.34661537 122.6875 176.3125 C120.3775 175.9825 118.0675 175.6525 115.6875 175.3125 C115.419375 176.158125 115.15125 177.00375 114.875 177.875 C113.6875 181.3125 113.6875 181.3125 112.2265625 184.59375 C110.72118488 188.07387473 109.76789201 191.56019512 108.875 195.25 C105.88543158 206.93971424 102.31949573 218.76724915 94.6875 228.3125 C93.57375 229.8284375 93.57375 229.8284375 92.4375 231.375 C88.92929445 233.84669027 86.60448593 234.08105872 82.37109375 233.8671875 C76.74738329 232.70479029 72.20526841 229.23056373 67.703125 225.80078125 C61.9127976 221.62552451 56.68167673 221.54438388 49.6875 222.3125 C45.70893283 223.4730817 42.02153758 225.10706999 38.25 226.8125 C25.65326698 232.01057675 18.24571605 233.32714015 5.44360352 228.07373047 C3.52457327 227.25149357 1.61768971 226.40011837 -0.27368164 225.51611328 C-7.62369323 222.16296467 -13.90813409 220.95115054 -21.75 223.375 C-25.99186077 225.47062095 -29.92048193 228.18147128 -33.859375 230.7890625 C-38.44732793 233.63826894 -43.03839975 234.33386165 -48.3125 233.3125 C-60.15954081 226.32394259 -64.16704557 207.66960582 -67.37109375 195.3046875 C-67.7057823 193.99480524 -68.04041869 192.68490965 -68.375 191.375 C-70.43000529 183.43618366 -70.43000529 183.43618366 -74.3125 176.3125 C-77.88746584 175.56716729 -77.88746584 175.56716729 -81.3125 175.3125 C-81.10753906 176.45847656 -80.90257812 177.60445312 -80.69140625 178.78515625 C-80.41920889 180.31509315 -80.14707695 181.84504169 -79.875 183.375 C-79.74029297 184.12716797 -79.60558594 184.87933594 -79.46679688 185.65429688 C-79.20094113 187.15216703 -78.9397514 188.65087323 -78.68334961 190.15039062 C-78.33578291 192.1767571 -77.96934346 194.19986094 -77.6015625 196.22265625 C-77.3125 199.3125 -77.3125 199.3125 -79.125 201.6875 C-83.04926469 204.60266805 -86.51509698 204.9491647 -91.3125 204.3125 C-96.14672397 201.84799366 -99.13832319 198.60697451 -102.3125 194.3125 C-102.3125 193.6525 -102.3125 192.9925 -102.3125 192.3125 C-102.9725 192.3125 -103.6325 192.3125 -104.3125 192.3125 C-106.87202518 186.33613296 -108.48018156 180.86572012 -109.0625 174.375 C-109.90208995 166.7875945 -112.38399658 160.35175851 -115.39355469 153.36547852 C-120.56944677 141.34690216 -123.43860759 126.54453063 -118.8125 113.8125 C-116.05698246 108.18379158 -112.0778086 103.29049248 -108.3125 98.3125 C-107.331171 96.93273667 -106.36965691 95.53844861 -105.4375 94.125 C-104.88449219 93.29935547 -104.88449219 93.29935547 -104.3203125 92.45703125 C-100.72030569 84.79655164 -100.72612626 76.27356601 -100.27734375 67.9765625 C-99.05031337 50.56662197 -89.00960217 37.26803177 -76.5625 25.6875 C-61.40274123 12.95450103 -43.13567982 7.1192691 -24.3125 2.3125 C-23.26707031 2.04179688 -22.22164063 1.77109375 -21.14453125 1.4921875 C-14.18375765 0.03217295 -7.08562123 0.08351571 0 0 Z " fill="#FDFCFC" transform="translate(234.3125,-0.3125)"/>
<path d="M0 0 C1.55908081 -0.02682861 1.55908081 -0.02682861 3.1496582 -0.05419922 C9.14056225 -0.04743257 13.38426187 0.4855377 18.6875 3.3125 C19.6775 3.8075 19.6775 3.8075 20.6875 4.3125 C20.6875 4.9725 20.6875 5.6325 20.6875 6.3125 C21.3475 6.3125 22.0075 6.3125 22.6875 6.3125 C22.6875 5.6525 22.6875 4.9925 22.6875 4.3125 C33.41682797 -3.1384222 51.21732831 -0.72870713 63.45483398 1.38916016 C89.34940041 6.58740359 116.62974705 16.8157355 132.65625 39.04296875 C134.42288561 41.756551 136.07941029 44.50253075 137.6875 47.3125 C138.1 48.00214844 138.5125 48.69179688 138.9375 49.40234375 C143.26594293 57.18399299 143.6985863 65.63963997 144.125 74.375 C144.71675701 85.25901145 146.9591207 91.90015808 153.62109375 100.57421875 C162.84180314 112.79296597 164.92484548 123.30040599 163.6875 138.3125 C161.93620494 148.15358416 157.81206342 157.26595757 153.6875 166.3125 C153.0275 166.3125 152.3675 166.3125 151.6875 166.3125 C151.55794922 165.0440625 151.55794922 165.0440625 151.42578125 163.75 C150.37462158 155.26357334 149.05485965 148.80638772 142.1875 143.3125 C136.73441351 141.75447529 131.31897824 142.08690666 125.6875 142.3125 C125.69273682 142.89741211 125.69797363 143.48232422 125.70336914 144.08496094 C125.72420158 146.74412963 125.73718007 149.40328111 125.75 152.0625 C125.75837891 152.98289063 125.76675781 153.90328125 125.77539062 154.8515625 C125.77861328 155.74101562 125.78183594 156.63046875 125.78515625 157.546875 C125.79039307 158.36381836 125.79562988 159.18076172 125.80102539 160.02246094 C125.69049021 162.25218135 125.30805567 164.17383755 124.6875 166.3125 C122.7075 166.3125 120.7275 166.3125 118.6875 166.3125 C118.64882813 165.11367188 118.64882813 165.11367188 118.609375 163.890625 C117.91114926 150.37043576 114.30066641 139.57085338 105.125 129.5 C102.77184068 127.26404875 102.77184068 127.26404875 100.109375 125.69140625 C96.82050487 122.46088704 96.76452092 119.44817347 96.5 115.0625 C96.35743828 113.43874335 96.21419566 111.81504634 96.0703125 110.19140625 C95.94267158 108.56510705 95.8150663 106.93880505 95.6875 105.3125 C94.35835872 89.8276598 91.64730371 77.11173065 79.6875 66.3125 C76.83268185 63.97721677 73.91459213 62.09401774 70.6875 60.3125 C69.76710938 59.79945312 68.84671875 59.28640625 67.8984375 58.7578125 C53.43894465 51.39994398 38.82851254 49.95039957 22.8125 49.9375 C21.51779785 49.93572754 20.2230957 49.93395508 18.88916016 49.93212891 C-2.75124091 50.18392235 -24.18673895 54.60929841 -40.2265625 70.078125 C-48.33160591 78.7599318 -51.16568365 89.29113758 -51.6875 100.9765625 C-51.74397705 102.17047607 -51.8004541 103.36438965 -51.85864258 104.59448242 C-51.95154915 106.99705601 -52.00466474 109.40155868 -52.0144043 111.8059082 C-52.31455651 120.17122821 -52.31455651 120.17122821 -55.26904297 123.55004883 C-57.66015625 125.390625 -57.66015625 125.390625 -60.02368164 126.86816406 C-68.05664836 131.93728738 -73.02205824 141.24959541 -75.5625 150.1875 C-76.71637085 155.477889 -76.97100325 160.92044609 -77.3125 166.3125 C-79.2925 166.3125 -81.2725 166.3125 -83.3125 166.3125 C-84.13786345 160.59344617 -84.44003701 155.0857851 -84.375 149.3125 C-84.37048828 148.53777344 -84.36597656 147.76304687 -84.36132812 146.96484375 C-84.34969758 145.08069476 -84.33176906 143.19658635 -84.3125 141.3125 C-94.18093388 141.39920088 -94.18093388 141.39920088 -102.3125 146.3125 C-106.56869707 152.6735377 -108.13474969 158.71771408 -108.3125 166.3125 C-108.9725 166.3125 -109.6325 166.3125 -110.3125 166.3125 C-111.61299101 163.14938775 -112.90123806 159.98142214 -114.1875 156.8125 C-114.73470703 155.4821875 -114.73470703 155.4821875 -115.29296875 154.125 C-120.30145804 141.74037193 -123.55730181 126.87120232 -118.8125 113.8125 C-116.05698246 108.18379158 -112.0778086 103.29049248 -108.3125 98.3125 C-107.331171 96.93273667 -106.36965691 95.53844861 -105.4375 94.125 C-104.88449219 93.29935547 -104.88449219 93.29935547 -104.3203125 92.45703125 C-100.72030569 84.79655164 -100.72612626 76.27356601 -100.27734375 67.9765625 C-99.05031337 50.56662197 -89.00960217 37.26803177 -76.5625 25.6875 C-61.40274123 12.95450103 -43.13567982 7.1192691 -24.3125 2.3125 C-23.26707031 2.04179688 -22.22164063 1.77109375 -21.14453125 1.4921875 C-14.18375765 0.03217295 -7.08562123 0.08351571 0 0 Z " fill="#2A2E6D" transform="translate(234.3125,-0.3125)"/>
<path d="M0 0 C2.31 0 4.62 0 7 0 C11.30411739 6.8101616 13.51937495 13.54280594 15.5 21.3125 C20.16675922 38.89021563 20.16675922 38.89021563 30 54 C30.47050781 54.55558594 30.94101563 55.11117187 31.42578125 55.68359375 C33.9848399 57.82355098 36.23990122 57.52808874 39.46484375 57.41796875 C45.63297041 56.40103569 50.90710232 52.89100193 55.875 49.25 C61.1569254 45.44701371 66.6292111 45.26972029 73 46 C76.75298919 47.19478988 80.24834511 48.83415523 83.8125 50.5 C96.36392595 55.87784411 103.65634245 56.84977313 116.50610352 51.76123047 C118.49413319 50.94086452 120.46983142 50.08971899 122.42944336 49.20361328 C129.37319722 46.16778417 135.42246903 44.96673223 143 46 C146.33203125 47.390625 146.33203125 47.390625 148.8125 49.25 C149.71484375 49.88550781 150.6171875 50.52101562 151.546875 51.17578125 C152.35640625 51.77777344 153.1659375 52.37976563 154 53 C158.61369556 56.3077528 162.78993551 57.97011704 168.51171875 57.68359375 C173.67448392 56.26525167 176.24889378 52.36730684 179 48 C184.43505639 37.6309917 187.65912102 26.26964725 190.8359375 15.046875 C192.37466601 9.65305247 194.34232139 4.94878085 197 0 C199.64 0 202.28 0 205 0 C204.90388428 0.54414551 204.80776855 1.08829102 204.70874023 1.64892578 C204.2747921 4.13929563 203.85604662 6.63199741 203.4375 9.125 C203.21030273 10.40890625 203.21030273 10.40890625 202.97851562 11.71875 C202.20782816 16.37872069 201.66094589 20.3675966 203 25 C205.80200613 27.47235835 207.66301887 27.96255765 211.375 28.375 C215.554069 27.94268252 218.24992089 26.83677344 222 25 C224.69078344 44.98867701 222.9475198 64.04810224 210.71582031 80.75390625 C200.7017682 93.16692909 187.34350685 101.62189602 174.27539062 110.453125 C171.68150022 112.21652517 169.11024967 114.01010488 166.54321289 115.81225586 C157.99092925 121.8054861 150.08679144 127.07157668 140 130 C140 124.72 140 119.44 140 114 C138.92363281 114.40992188 137.84726562 114.81984375 136.73828125 115.2421875 C112.66267306 124.21718397 89.92550207 124.28809813 66 115 C66 120.61 66 126.22 66 132 C49.96493854 126.41475387 36.88973566 117.43160517 23.19238281 107.56591797 C20.96207247 105.97291011 18.71495787 104.40690458 16.4609375 102.84765625 C-1.91106341 90.12167516 -16.72154017 76.04353973 -21 53 C-21.30946172 48.26051166 -21.2415621 43.55860448 -21.125 38.8125 C-20.90571581 27.8669588 -20.90571581 27.8669588 -22 17 C-21.195625 18.0828125 -21.195625 18.0828125 -20.375 19.1875 C-17.39743978 22.71355816 -14.17460321 25.9126984 -10 28 C-5.05730019 28.2430836 -1.50990242 28.25495121 3 26 C2.5598092 21.37799665 2.04544077 16.94784042 0.9375 12.4375 C-0.07139043 8.19268693 -0.15830448 4.35337324 0 0 Z " fill="#2C306E" transform="translate(153,175)"/>
<path d="M0 0 C1.47282846 1.46532678 2.91428197 2.96331766 4.3125 4.5 C4.90417969 5.14710937 5.49585938 5.79421875 6.10546875 6.4609375 C17.33277458 20.04459147 16.5253319 39.76232049 17.3125 56.5 C16.53390625 56.1390625 15.7553125 55.778125 14.953125 55.40625 C3.44849271 50.63474352 -10.39013965 48.69378018 -22.375 53.125 C-24.60455427 54.215559 -24.60455427 54.215559 -26.6875 55.5 C-27.44933594 55.92410156 -28.21117187 56.34820312 -28.99609375 56.78515625 C-39.00253644 62.84301953 -46.03169364 71.6753163 -48.9375 83 C-49.30875 84.7325 -49.30875 84.7325 -49.6875 86.5 C-50.30625 86.335 -50.925 86.17 -51.5625 86 C-57.24654854 85.09055223 -63.12415716 84.88110578 -68.6875 86.5 C-68.83445312 85.96632813 -68.98140625 85.43265625 -69.1328125 84.8828125 C-72.85385081 72.52212204 -80.23653072 61.98593936 -91.59765625 55.53125 C-103.77577946 49.52185836 -119.15920193 49.65157453 -131.94921875 53.84375 C-132.52285156 54.0603125 -133.09648437 54.276875 -133.6875 54.5 C-134.12985997 37.39541458 -134.16402896 18.70118695 -122.375 5.0625 C-94.28550909 -23.48823049 -30.975537 -26.76841182 0 0 Z " fill="#F8C4B7" transform="translate(314.6875,65.5)"/>
<path d="M0 0 C3.25 1.25 3.25 1.25 6 4 C6.57421875 6.48046875 6.57421875 6.48046875 6.9375 9.4375 C8.30323227 20.51210124 14.31499713 30.09613202 23 37 C32.62686743 44.13463271 44.03257128 47.44462788 56 46 C68.27744765 43.47538408 78.40755116 38.05486468 86 28 C88.42666839 32.85333678 83.97051206 41.99106724 82.31396484 47.12695312 C79.53473423 55.39377553 76.50061537 63.12044249 71 70 C69.88625 71.5159375 69.88625 71.5159375 68.75 73.0625 C65.24179445 75.53419027 62.91698593 75.76855872 58.68359375 75.5546875 C53.05988329 74.39229029 48.51776841 70.91806373 44.015625 67.48828125 C38.2252976 63.31302451 32.99417673 63.23188388 26 64 C22.02143283 65.1605817 18.33403758 66.79456999 14.5625 68.5 C1.96576698 73.69807675 -5.44178395 75.01464015 -18.24389648 69.76123047 C-20.16292673 68.93899357 -22.06981029 68.08761837 -23.96118164 67.20361328 C-31.31119323 63.85046467 -37.59563409 62.63865054 -45.4375 65.0625 C-49.67936077 67.15812095 -53.60798193 69.86897128 -57.546875 72.4765625 C-62.13482793 75.32576894 -66.72589975 76.02136165 -72 75 C-82.85800976 68.59487101 -86.70768929 52.30126513 -90 41 C-91.09633698 36.68481766 -92.09578793 32.35933137 -93 28 C-92.1028125 28.99 -92.1028125 28.99 -91.1875 30 C-81.96344557 39.14588447 -70.53662466 46.10106781 -57.3125 46.1875 C-44.97000068 46.02333133 -32.80794433 42.01278025 -24 33 C-18.23334604 25.88397447 -13.18619642 18.03492781 -12.625 8.6875 C-12.00241589 5.01425374 -11.86628822 4.35582015 -9.3125 2 C-5.64419519 -0.21482555 -4.18133468 -0.78400025 0 0 Z " fill="#F7C4B7" transform="translate(258,158)"/>
<path d="M0 0 C-0.02320313 1.16273438 -0.04640625 2.32546875 -0.0703125 3.5234375 C-0.3069202 20.54126711 -0.18344508 38.582974 8 54 C-14.00768554 65.22174064 -36.55296888 70.5375454 -61.01953125 63.421875 C-68.85481591 60.73549169 -76.44600414 57.38287641 -84 54 C-83.66226563 53.17757812 -83.32453125 52.35515625 -82.9765625 51.5078125 C-76.30101292 34.79964504 -75.82221371 18.77862868 -76 1 C-74.96101562 1.33773438 -73.92203125 1.67546875 -72.8515625 2.0234375 C-48.88055211 9.73900739 -27.38694748 10.08024261 -3.59765625 0.98828125 C-1 0 -1 0 0 0 Z " fill="#F8C4B7" transform="translate(294,288)"/>
<path d="M0 0 C10.03220917 5.89304594 17.16603052 13.84582297 20.234375 25.3125 C21.35680402 36.94138675 19.89063928 46.55964574 13.046875 56.125 C6.67723498 63.73318114 -1.69732267 68.63685397 -11.5546875 69.734375 C-23.32456996 70.4739644 -32.01743182 67.90752093 -41.234375 60.265625 C-48.63318633 52.70116864 -52.2083584 43.72943025 -52.328125 33.1875 C-52.11767686 22.46850663 -48.39448729 13.88526771 -40.765625 6.3125 C-29.02659353 -2.62827397 -13.95671692 -6.74418536 0 0 Z " fill="#F7C4B8" transform="translate(217.765625,126.6875)"/>
<path d="M0 0 C8.9371212 5.5430901 14.35476946 12.77133963 17.66796875 22.7109375 C18.49962926 35.48578834 17.67120793 45.58692091 9.35546875 55.8984375 C3.04952732 62.6714857 -4.71227964 67.17658078 -13.98828125 68.05859375 C-25.60341165 68.32574175 -34.32586747 66.21881809 -43.33203125 58.7109375 C-51.20222505 50.8873129 -54.46227117 41.57139028 -54.83203125 30.5859375 C-54.48082092 20.28754426 -50.65757685 11.98261879 -43.33203125 4.7109375 C-30.343046 -5.18183615 -14.74780589 -8.15205351 0 0 Z " fill="#F7C4B8" transform="translate(326.33203125,128.2890625)"/>
<path d="M0 0 C0.53625 0.721875 1.0725 1.44375 1.625 2.1875 C4.60256022 5.71355816 7.82539679 8.9126984 12 11 C17.69062784 11.37937519 20.98375652 11.00974609 26 8 C26 8.99 26 9.98 26 11 C26.66 11.33 27.32 11.66 28 12 C28.39310414 14.32288812 28.50749695 16.61845176 28.65625 18.96875 C28.82640625 19.97421875 28.82640625 19.97421875 29 21 C29.66 21.33 30.32 21.66 31 22 C30.67 22.66 30.34 23.32 30 24 C30.66 24.33 31.32 24.66 32 25 C32.33333333 27.33333333 32.66666667 29.66666667 33 32 C33.99 32.495 33.99 32.495 35 33 C35.81640625 34.92578125 35.81640625 34.92578125 36.5625 37.3125 C36.81128906 38.09238281 37.06007812 38.87226563 37.31640625 39.67578125 C37.93348877 41.77386182 38.4891435 43.87386388 39 46 C39.66 46 40.32 46 41 46 C41.18433594 46.55945313 41.36867187 47.11890625 41.55859375 47.6953125 C45.45318233 58.46168627 51.87120596 68.29196087 59.78515625 76.546875 C61 78 61 78 61 80 C61.66 80 62.32 80 63 80 C64.13999645 81.13999645 65.27662466 82.28351171 66.3984375 83.44140625 C71.95964865 88.85341417 77.86207509 92.72116045 85.03125 95.6640625 C87 97 87 97 87.77734375 99.22265625 C88.0347659 102.43365891 88.09504015 105.59102553 88.0625 108.8125 C88.05347656 109.97394531 88.04445313 111.13539063 88.03515625 112.33203125 C88.02355469 113.21246094 88.01195312 114.09289062 88 115 C71.95911891 109.61697245 58.8180121 100.37994539 45.19238281 90.56591797 C42.96207247 88.97291011 40.71495787 87.40690458 38.4609375 85.84765625 C20.08893659 73.12167516 5.27845983 59.04353973 1 36 C0.69053828 31.26051166 0.7584379 26.55860448 0.875 21.8125 C1.09428419 10.8669588 1.09428419 10.8669588 0 0 Z " fill="#2A2E6C" transform="translate(131,192)"/>
<path d="M0 0 C4.75 1.875 4.75 1.875 7 3 C12.6285376 3.44145393 16.05504256 2.42201997 21 0 C23.69078344 19.98867701 21.9475198 39.04810224 9.71582031 55.75390625 C-0.2982318 68.16692909 -13.65649315 76.62189602 -26.72460938 85.453125 C-29.31849978 87.21652517 -31.88975033 89.01010488 -34.45678711 90.81225586 C-42.94597891 96.76127289 -50.92391132 102.22542486 -61 105 C-61.05470352 103.29203442 -61.09310718 101.58354375 -61.125 99.875 C-61.14820313 98.92367187 -61.17140625 97.97234375 -61.1953125 96.9921875 C-60.97073401 93.55164505 -60.49061436 91.12177236 -59 88 C-56.25 85.98828125 -56.25 85.98828125 -53 84.3125 C-48.31446311 81.94622032 -48.31446311 81.94622032 -45 78 C-43.33454904 76.99797661 -41.66775571 75.99818268 -40 75 C-23.29093071 59.49993572 -9.26225868 33.06455832 -4 11 C-4 9.68 -4 8.36 -4 7 C-3.34 7 -2.68 7 -2 7 C-1.855625 6.030625 -1.71125 5.06125 -1.5625 4.0625 C-1 1 -1 1 0 0 Z " fill="#2A2E6D" transform="translate(354,200)"/>
<path d="M0 0 C0.69649313 5.0477801 0.68304889 9.15610321 -1 14 C-5.52938402 18.55420256 -12.15094723 20.65918642 -18 23 C-19.41920783 23.61564102 -20.8372249 24.23403597 -22.25390625 24.85546875 C-30.90948786 28.53251291 -39.83582829 31.24693094 -48.875 33.8125 C-49.89658203 34.1027002 -50.91816406 34.39290039 -51.97070312 34.69189453 C-60.46487896 37.01859589 -69.14185793 39.20593322 -78 39 C-77.7834375 37.14761719 -77.7834375 37.14761719 -77.5625 35.2578125 C-76.28378874 23.78360134 -75.74911567 12.54067929 -76 1 C-74.96101562 1.33773438 -73.92203125 1.67546875 -72.8515625 2.0234375 C-48.88055211 9.73900739 -27.38694748 10.08024261 -3.59765625 0.98828125 C-1 0 -1 0 0 0 Z " fill="#F3A897" transform="translate(294,288)"/>
<path d="M0 0 C6.09014736 2.10386909 8.73677138 5.61390149 11.6875 11.1875 C13.47588523 15.66818257 13.75661069 20.22071893 14 25 C14.05285156 25.7321875 14.10570312 26.464375 14.16015625 27.21875 C14.60850186 37.97904455 10.94231195 47.80493836 5.25 56.75 C1.22472167 60.77527833 -3.00262059 62.72449939 -8.625 63.5 C-12.77707425 62.88487789 -14.88899272 61.81472087 -18 59 C-19.47330873 53.80796549 -18.75629048 49.04342569 -17.9375 43.8125 C-17.84017578 43.00619141 -17.74285156 42.19988281 -17.64257812 41.36914062 C-17.28704565 39.08194508 -16.91682428 37.12682898 -16 35 C-12.87890625 32.94921875 -12.87890625 32.94921875 -10 32 C-10.33 30.35 -10.66 28.7 -11 27 C-14.3 26.67 -17.6 26.34 -21 26 C-21 21.38 -21 16.76 -21 12 C-20.67 12 -20.34 12 -20 12 C-20 16.29 -20 20.58 -20 25 C-18.02 25 -16.04 25 -14 25 C-13.67 17.08 -13.34 9.16 -13 1 C-9.06990869 -0.96504566 -4.29364421 -0.33401758 0 0 Z " fill="#F2A796" transform="translate(373,141)"/>
<path d="M0 0 C0.33 8.25 0.66 16.5 1 25 C2.98 25 4.96 25 7 25 C7 21.04 7 17.08 7 13 C7.33 13 7.66 13 8 13 C8 17.29 8 21.58 8 26 C3.05 26.495 3.05 26.495 -2 27 C-2.33 28.98 -2.66 30.96 -3 33 C-1.02 33.33 0.96 33.66 3 34 C3.48062124 36.68724704 3.95953496 39.37478033 4.4375 42.0625 C4.57220703 42.81466797 4.70691406 43.56683594 4.84570312 44.34179688 C5.11155887 45.83966703 5.3727486 47.33837323 5.62915039 48.83789062 C5.97671709 50.8642571 6.34315654 52.88736094 6.7109375 54.91015625 C7 58 7 58 5.1875 60.375 C1.26323531 63.29016805 -2.20259698 63.6366647 -7 63 C-11.83422397 60.53549366 -14.82582319 57.29447451 -18 53 C-18 52.34 -18 51.68 -18 51 C-18.66 51 -19.32 51 -20 51 C-20.65043719 49.27255984 -21.29514844 47.5429631 -21.9375 45.8125 C-22.29714844 44.84957031 -22.65679687 43.88664062 -23.02734375 42.89453125 C-26.47259023 32.64180981 -26.16218738 19.52958579 -21.96484375 9.53515625 C-16.35446351 -0.15222056 -11.66140861 0 0 0 Z " fill="#F1A696" transform="translate(150,141)"/>
<path d="M0 0 C2.26471536 2.40626007 2.72884731 3.87116778 3 7.125 C1.730447 7.77334654 0.45930294 8.41857815 -0.8125 9.0625 C-1.52019531 9.42214844 -2.22789062 9.78179687 -2.95703125 10.15234375 C-10.08676041 13.54680371 -20.35022293 13.26810656 -27.875 11 C-33.11238739 8.90305742 -39.3846215 5.94813813 -42.25390625 0.93359375 C-42.50011719 0.33675781 -42.74632812 -0.26007813 -43 -0.875 C-30.12345978 -9.2778893 -12.84979352 -8.03112095 0 0 Z " fill="#F5AFA8" transform="translate(324,183.875)"/>
<path d="M0 0 C-2.56709184 6.25559748 -8.80109983 8.82201776 -14.5 11.875 C-21.98654242 14.37051414 -31.84779017 14.4052132 -39.32421875 11.875 C-41.66306987 10.70056977 -43.84540406 9.4822773 -46 8 C-45.2265625 3.2578125 -45.2265625 3.2578125 -43.1875 0.9375 C-38.39934078 -1.97294972 -33.38418169 -3.52212539 -28 -5 C-27.2678125 -5.20238281 -26.535625 -5.40476563 -25.78125 -5.61328125 C-17.81497858 -7.12993677 -6.64613791 -4.43075861 0 0 Z " fill="#F5AFA9" transform="translate(229,183)"/>
<path d="M0 0 C14.19 0 28.38 0 43 0 C39.21552411 7.56895178 37.01306043 11.40503744 29.20703125 14.44921875 C21.95437499 16.25917367 15.00146978 16.07451551 8.4375 12.375 C4.53513767 9.69093615 2.07923252 7.25297562 0 3 C0 2.01 0 1.02 0 0 Z " fill="#FCFCFD" transform="translate(234,237)"/>
<path d="M0 0 C3.37580662 0.62805705 4.67434039 2.15639721 6.68359375 4.87109375 C8.10503762 7.17748322 8.50191261 8.77805156 8.6875 11.5 C8.749375 12.24378906 8.81125 12.98757812 8.875 13.75390625 C9.17670074 19.92934334 8.149405 24.34504657 4.6875 29.5 C2.6875 31.5 2.6875 31.5 0.3125 31.9375 C-2.3125 31.5 -2.3125 31.5 -4.5 29.3125 C-8.45874488 23.16962001 -9.15695802 17.6979993 -8.3125 10.5 C-6.82267211 6.14295616 -4.86785413 1.052509 0 0 Z " fill="#30326D" transform="translate(213.3125,146.5)"/>
<path d="M0 0 C2.625 0.4375 2.625 0.4375 4.8125 2.5625 C8.60353994 8.57587369 9.53011317 14.43364812 8.625 21.4375 C7.24805308 25.34750966 5.55950627 28.50299373 2.625 31.4375 C0.25 31.875 0.25 31.875 -2.375 31.4375 C-7.05623871 26.89001096 -8.45751332 21.92896007 -8.75 15.5625 C-8.64627754 9.84047753 -6.4970283 1.196821 0 0 Z " fill="#30316D" transform="translate(296.375,146.5625)"/>
<path d="M0 0 C0.71478516 0.22171875 1.42957031 0.4434375 2.16601562 0.671875 C7.41709648 2.35459648 7.41709648 2.35459648 9.6875 4.625 C10.02052312 7.7554173 10.16421956 9.80398298 8.5625 12.5625 C5.64085166 14.21810073 3.90782112 13.45989807 0.6875 12.625 C0.10742188 12.39039063 -0.47265625 12.15578125 -1.0703125 11.9140625 C-7.38207773 9.41410843 -13.47799183 9.14689832 -20.19238281 8.91601562 C-26.14424829 8.70912585 -26.14424829 8.70912585 -28.3125 7.625 C-26.92052671 4.24243279 -25.5099504 2.78811318 -22.375 0.9375 C-21.68535156 0.52113281 -20.99570312 0.10476562 -20.28515625 -0.32421875 C-13.44183971 -3.96947053 -6.93827765 -2.2891815 0 0 Z " fill="#333570" transform="translate(312.3125,127.375)"/>
<path d="M0 0 C0.99 0.66 1.98 1.32 3 2 C2.67 3.32 2.34 4.64 2 6 C0.82824219 6.03738281 -0.34351563 6.07476562 -1.55078125 6.11328125 C-9.54759114 6.42671463 -17.06051546 6.8085396 -24.73828125 9.28125 C-27.15615461 10.04962426 -29.48887441 10.63220888 -32 11 C-33.8125 9.9375 -33.8125 9.9375 -35 8 C-35.4375 5 -35.4375 5 -35 2 C-32.24254917 -0.55017093 -29.58625132 -1.63003393 -26 -2.625 C-25.154375 -2.86476563 -24.30875 -3.10453125 -23.4375 -3.3515625 C-22.633125 -3.56554687 -21.82875 -3.77953125 -21 -4 C-20.32453125 -4.19722656 -19.6490625 -4.39445312 -18.953125 -4.59765625 C-12.0793028 -6.01366362 -5.80917506 -3.48287645 0 0 Z " fill="#333470" transform="translate(223,130)"/>
<path d="M0 0 C2.0625 0.4375 2.0625 0.4375 4 1 C4 5.14676132 3.5223055 6.31208065 1.5 9.75 C0.80390625 10.94882813 0.80390625 10.94882813 0.09375 12.171875 C-0.2671875 12.77515625 -0.628125 13.3784375 -1 14 C0.093125 13.95875 1.18625 13.9175 2.3125 13.875 C6 14 6 14 9 16 C8.67 17.32 8.34 18.64 8 20 C4.37 20 0.74 20 -3 20 C-2.67 25.61 -2.34 31.22 -2 37 C-4.475 37.495 -4.475 37.495 -7 38 C-7.70365602 36.4447088 -8.38729378 34.88035173 -9.0625 33.3125 C-9.44535156 32.44238281 -9.82820313 31.57226562 -10.22265625 30.67578125 C-11.1062886 27.6341322 -11.03406439 25.97810544 -10 23 C-7.4375 21.6875 -7.4375 21.6875 -5 21 C-5.33 19.35 -5.66 17.7 -6 16 C-9.3 15.67 -12.6 15.34 -16 15 C-16 10.38 -16 5.76 -16 1 C-15.67 1 -15.34 1 -15 1 C-15 5.29 -15 9.58 -15 14 C-13.02 14 -11.04 14 -9 14 C-8.9071875 13.43667969 -8.814375 12.87335938 -8.71875 12.29296875 C-7.82045501 9.42721244 -6.38130331 7.64485349 -4.5 5.3125 C-3.8709375 4.52488281 -3.241875 3.73726562 -2.59375 2.92578125 C-1 1 -1 1 0 0 Z " fill="#E08883" transform="translate(368,152)"/>
<path d="M0 0 C1.65 0.33 3.3 0.66 5 1 C4.46985163 7.34214537 1.47265041 11.45355236 -1.9375 16.609375 C-4.34533754 20.08585995 -4.34533754 20.08585995 -4.73022461 24.12353516 C-3.72086724 26.71729 -2.32414913 27.3862005 0.0625 28.75 C0.79597656 29.17796875 1.52945313 29.6059375 2.28515625 30.046875 C2.85105469 30.36140625 3.41695313 30.6759375 4 31 C3.505 33.475 3.505 33.475 3 36 C-2.00933477 35.5229205 -5.06978099 34.14417521 -9 31 C-11.95380775 27.25851018 -12.48375216 24.70963309 -12 20 C-10.81343366 17.31392675 -9.28026178 14.89948992 -7.6875 12.4375 C-7.28337891 11.79103516 -6.87925781 11.14457031 -6.46289062 10.47851562 C-5.67750165 9.22317032 -4.88716556 7.97090307 -4.09130859 6.72216797 C-2.68668924 4.50557179 -1.33857688 2.25695325 0 0 Z " fill="#E9857D" transform="translate(253,190)"/>
<path d="M0 0 C4.2387856 0.3027704 6.20953577 3.05869986 9 6 C9.33 6 9.66 6 10 6 C10 8.64 10 11.28 10 14 C11.98 14 13.96 14 16 14 C16 10.04 16 6.08 16 2 C16.33 2 16.66 2 17 2 C17 6.29 17 10.58 17 15 C14.4609375 15.13020833 11.921875 15.26041667 9.3828125 15.390625 C8.59648437 15.59171875 7.81015625 15.7928125 7 16 C6.34 17.32 5.68 18.64 5 20 C1.7 20 -1.6 20 -5 20 C-5.33 18.68 -5.66 17.36 -6 16 C-4 14 -4 14 -2.0546875 13.8046875 C-0.03645833 13.86979167 1.98177083 13.93489583 4 14 C3.6390625 13.39671875 3.278125 12.7934375 2.90625 12.171875 C2.4421875 11.37265625 1.978125 10.5734375 1.5 9.75 C1.0359375 8.96109375 0.571875 8.1721875 0.09375 7.359375 C-1 5 -1 5 -1 1 C-0.67 0.67 -0.34 0.34 0 0 Z " fill="#DC8482" transform="translate(141,152)"/>
<path d="M0 0 C0.66 5.28 1.32 10.56 2 16 C0.35 16.33 -1.3 16.66 -3 17 C-3.70365602 15.4447088 -4.38729378 13.88035173 -5.0625 12.3125 C-5.44535156 11.44238281 -5.82820313 10.57226562 -6.22265625 9.67578125 C-7.10602623 6.63503535 -7.02894778 4.97826092 -6 2 C-2.19047619 0 -2.19047619 0 0 0 Z " fill="#E5837C" transform="translate(364,173)"/>
<path d="M0 0 C1.2065625 0.0309375 1.2065625 0.0309375 2.4375 0.0625 C3.89045405 9.07781729 3.89045405 9.07781729 2 13.1875 C1.484375 13.80625 0.96875 14.425 0.4375 15.0625 C-1.2125 14.7325 -2.8625 14.4025 -4.5625 14.0625 C-4.42220581 11.9162974 -4.27511836 9.77053782 -4.125 7.625 C-4.04378906 6.43003906 -3.96257812 5.23507813 -3.87890625 4.00390625 C-3.45727786 0.08432385 -3.45727786 0.08432385 0 0 Z " fill="#E3827C" transform="translate(150.5625,174.9375)"/>
<path d="M0 0 C0.66 0 1.32 0 2 0 C1.46744565 4.52671196 -0.21559872 7.4200555 -3 11 C-5.25 12.375 -5.25 12.375 -7 13 C-6.66951441 7.71223057 -3.51647805 3.75899378 0 0 Z " fill="#3C3E77" transform="translate(176,134)"/>
<path d="M0 0 C3.82669043 3.42388092 5.72278474 6.00724943 7 11 C3.17330957 7.57611908 1.27721526 4.99275057 0 0 Z " fill="#4A497D" transform="translate(334,135)"/>
</svg>
