<?xml version="1.0" encoding="UTF-8"?>
<svg version="1.1" xmlns="http://www.w3.org/2000/svg" width="512" height="512">
<path d="M0 0 C0.73976074 0.17692383 1.47952148 0.35384766 2.24169922 0.53613281 C12.97578619 3.19156386 24.45469001 6.41872067 32 15 C32 15.66 32 16.32 32 17 C32.68449219 17.22429688 33.36898438 17.44859375 34.07421875 17.6796875 C37.77481305 19.34964861 40.65937526 21.59446677 43.8125 24.125 C44.74388794 24.86967529 44.74388794 24.86967529 45.6940918 25.62939453 C65.91128364 41.98172923 77.72145674 64.21622108 80.68359375 90.1015625 C82.20696699 108.87102533 79.8380476 127.10060533 74 145 C74.60714844 145.27585938 75.21429688 145.55171875 75.83984375 145.8359375 C81.12012562 148.68136968 83.5133177 153.54658345 85.421875 158.97265625 C89.13281333 171.9860143 87.30243003 186.02693491 81.1875 198 C77.80647343 203.70703993 74.53226984 207.3932734 68.0625 209.5 C63.55124893 210.43515377 60.95755915 209.21623312 57 207 C56.34 206.34 55.68 205.68 55 205 C54.71801758 205.83136475 54.43603516 206.66272949 54.14550781 207.51928711 C53.08276623 210.64593204 52.01624773 213.7712377 50.94726562 216.89575195 C50.48809759 218.24029757 50.03037753 219.58533868 49.57421875 220.9309082 C44.88369064 234.76076576 44.88369064 234.76076576 41.62329102 241.13354492 C40.61028486 244.16700831 41.47252362 246.63352458 42.33984375 249.625 C46.02218008 262.87269519 42.37817603 273.94807282 36.92016602 286.01171875 C32.75230782 295.34242489 30.44798105 304.1913768 33.71875 314.19921875 C36.93292976 321.47268588 42.44079092 325.06274383 49.03515625 329.1652832 C62.14605009 337.3404544 73.19315186 348.336143 77.609375 363.6796875 C78.75670599 370.49483358 78.24132269 377.24279986 77 384 C77.83470825 384.45101074 77.83470825 384.45101074 78.6862793 384.91113281 C89.81963477 390.93482335 100.8998961 397.03432207 111.87182617 403.34765625 C117.79368392 406.75146737 123.7448161 410.0984542 129.71337891 413.41967773 C155.18653494 427.60570141 176.73885028 441.61054192 185.578125 470.96875 C189.22265479 484.06033436 190 495.0476117 190 509 C37.54 509 -114.92 509 -272 509 C-272 481.23936425 -266.44272379 455.46759932 -246.18994141 435.1875 C-240.14378809 429.4892377 -233.55483806 425.63762253 -226.25 421.75 C-225.0456266 421.0971849 -223.84202415 420.44294567 -222.63916016 419.78735352 C-220.81874753 418.79527752 -218.99799684 417.80392629 -217.17483521 416.81690979 C-211.86027332 413.9386771 -206.61053888 410.95639163 -201.375 407.9375 C-192.43169957 402.79847857 -183.44047998 397.74778489 -174.43505859 392.71850586 C-169.27556895 389.83688044 -164.12392237 386.94445117 -159 384 C-159.165 383.2575 -159.33 382.515 -159.5 381.75 C-161.26639659 368.5020256 -158.92427321 358.23567319 -151.1875 347.1875 C-149.81845764 345.43704547 -148.42396681 343.70607344 -147 342 C-146.44054687 341.31550781 -145.88109375 340.63101562 -145.3046875 339.92578125 C-140.3763672 334.47810881 -134.3270008 330.789579 -128.07836914 327.03125 C-120.86104356 322.60442719 -116.59882914 317.99197017 -114.44921875 309.6171875 C-112.54293689 298.51102363 -118.13329691 287.99654723 -122.25 277.94921875 C-125.71085513 269.15711987 -127.30537174 260.40619527 -124.375 251.23046875 C-123.25576991 244.57338144 -126.16336602 238.78115813 -128.8125 232.875 C-137 214.04192243 -137 214.04192243 -137 206 C-137.70125 206.474375 -138.4025 206.94875 -139.125 207.4375 C-142.83463524 209.45360611 -145.71228692 210.43095196 -149.94921875 209.6328125 C-156.66260834 207.56125228 -160.08424302 203.46534435 -163.41015625 197.44921875 C-169.54961551 184.79441497 -171.16784704 170.9956524 -166.90625 157.44140625 C-164.30953446 150.44594414 -161.52053103 147.51047194 -155 144 C-155.2165625 142.79472656 -155.433125 141.58945313 -155.65625 140.34765625 C-159.25897924 118.52400636 -160.85995346 93.54950627 -155 72 C-154.6596875 70.741875 -154.319375 69.48375 -153.96875 68.1875 C-149.87621122 54.69318293 -143.48735582 42.47122975 -134 32 C-133.26265625 31.16984375 -132.5253125 30.3396875 -131.765625 29.484375 C-100.78970921 -3.51611045 -42.19733777 -10.27361603 0 0 Z " fill="#F8C4B7" transform="translate(297,3)"/>
<path d="M0 0 C4.83044308 4.83044308 4.88601054 12.5026008 5 19 C4.64849549 27.29290279 1.29227881 34.55845746 -2.07983398 42.01171875 C-6.24769218 51.34242489 -8.55201895 60.1913768 -5.28125 70.19921875 C-2.06707024 77.47268588 3.44079092 81.06274383 10.03515625 85.1652832 C23.14605009 93.3404544 34.19315186 104.336143 38.609375 119.6796875 C39.75670599 126.49483358 39.24132269 133.24279986 38 140 C38.55647217 140.30067383 39.11294434 140.60134766 39.6862793 140.91113281 C50.81963477 146.93482335 61.8998961 153.03432207 72.87182617 159.34765625 C78.79368392 162.75146737 84.7448161 166.0984542 90.71337891 169.41967773 C116.18653494 183.60570141 137.73885028 197.61054192 146.578125 226.96875 C150.22265479 240.06033436 151 251.0476117 151 265 C-1.46 265 -153.92 265 -311 265 C-311 237.23936425 -305.44272379 211.46759932 -285.18994141 191.1875 C-279.14378809 185.4892377 -272.55483806 181.63762253 -265.25 177.75 C-264.0456266 177.0971849 -262.84202415 176.44294567 -261.63916016 175.78735352 C-259.81874753 174.79527752 -257.99799684 173.80392629 -256.17483521 172.81690979 C-250.86027332 169.9386771 -245.61053888 166.95639163 -240.375 163.9375 C-231.43169957 158.79847857 -222.44047998 153.74778489 -213.43505859 148.71850586 C-208.27556895 145.83688044 -203.12392237 142.94445117 -198 140 C-198.165 139.2575 -198.33 138.515 -198.5 137.75 C-200.26639659 124.5020256 -197.92427321 114.23567319 -190.1875 103.1875 C-188.81845764 101.43704547 -187.42396681 99.70607344 -186 98 C-185.44054687 97.31550781 -184.88109375 96.63101563 -184.3046875 95.92578125 C-179.3763672 90.47810881 -173.3270008 86.789579 -167.07836914 83.03125 C-159.86104356 78.60442719 -155.59882914 73.99197017 -153.44921875 65.6171875 C-151.54293689 54.51102363 -157.13329691 43.99654723 -161.25 33.94921875 C-165.65969012 22.7466604 -165.59538871 13.45649283 -162 2 C-159.34359236 4.50151369 -157.59776056 7.20154648 -155.73974609 10.34399414 C-146.94474722 25.19573014 -133.96020704 41.34659765 -117 47 C-114.45997372 57.65172312 -115.8034311 69.27477943 -117.25 80 C-117.35924805 80.85916016 -117.46849609 81.71832031 -117.58105469 82.60351562 C-117.95013119 85.10471123 -118.42823933 87.53753076 -119 90 C-119.17402344 90.7719873 -119.34804687 91.54397461 -119.52734375 92.33935547 C-122.15731264 100.45364439 -129.42583743 103.41106465 -136.5 107.125 C-137.73049152 107.79313872 -138.95967143 108.46369889 -140.1875 109.13671875 C-144.95507266 111.74108419 -149.72079085 114.34157577 -154.55126953 116.82788086 C-155.64036621 117.41190674 -156.72946289 117.99593262 -157.8515625 118.59765625 C-158.82432129 119.10304932 -159.79708008 119.60844238 -160.79931641 120.12915039 C-163.29429769 121.88185968 -163.29429769 121.88185968 -163.78076172 125.13745117 C-163.87011715 128.14798831 -163.67128178 130.99582837 -163.26171875 133.97851562 C-162.99426079 136.04432899 -162.84567536 138.09299144 -162.71875 140.171875 C-160.97938803 164.52020345 -152.51550343 189.84490163 -134.51171875 206.9375 C-114.5822653 223.30258775 -91.28009264 225.68558153 -66.42480469 223.80517578 C-50.68692808 222.24034828 -36.6754431 216.84770647 -25 206 C-24.3915625 205.48179687 -23.783125 204.96359375 -23.15625 204.4296875 C-2.10149316 185.3847029 2.40837333 153.28287951 3.74682617 126.63720703 C3.83518862 124.75832058 3.91820277 122.87918372 4 121 C3.11715332 120.72760498 2.23430664 120.45520996 1.32470703 120.17456055 C-1.76001072 119.08478399 -4.36284834 117.82752501 -7.1953125 116.20703125 C-8.15332764 115.66272461 -9.11134277 115.11841797 -10.09838867 114.55761719 C-11.09717041 113.98172852 -12.09595215 113.40583984 -13.125 112.8125 C-15.18613523 111.62619317 -17.24733254 110.43999419 -19.30859375 109.25390625 C-20.2919873 108.68687988 -21.27538086 108.11985352 -22.28857422 107.53564453 C-24.51702901 106.2735357 -26.75465549 105.06625575 -29.03515625 103.90234375 C-34.62054753 100.97468512 -38.30793262 98.75214904 -40.33203125 92.59765625 C-40.55246094 91.74042969 -40.77289063 90.88320313 -41 90 C-41.29261719 89.04996094 -41.58523438 88.09992188 -41.88671875 87.12109375 C-43.93428412 79.42187735 -44.27988227 71.99738942 -44.3125 64.0625 C-44.32071777 62.58789307 -44.32071777 62.58789307 -44.32910156 61.08349609 C-44.27674978 55.79506318 -44.18431221 50.90062022 -42 46 C-39.2421875 43.8125 -39.2421875 43.8125 -35.875 42 C-18.86657108 32.28821035 -9.33450736 16.72516936 0 0 Z " fill="#382E6A" transform="translate(336,247)"/>
<path d="M0 0 C0.73976074 0.17692383 1.47952148 0.35384766 2.24169922 0.53613281 C12.97578619 3.19156386 24.45469001 6.41872067 32 15 C32 15.66 32 16.32 32 17 C32.68449219 17.22429688 33.36898437 17.44859375 34.07421875 17.6796875 C37.77481305 19.34964861 40.65937526 21.59446677 43.8125 24.125 C44.43342529 24.6214502 45.05435059 25.11790039 45.6940918 25.62939453 C65.91128364 41.98172923 77.72145674 64.21622108 80.68359375 90.1015625 C82.06594323 107.13347337 81.93211801 129.47865092 74 145 C72.00584455 146.01160469 70.00561771 147.01131521 68 148 C64.00324594 153.42416622 63.85048572 160.49882946 63 167 C61.12827586 181.30758621 61.12827586 181.30758621 58 186 C57.34 186.33 56.68 186.66 56 187 C46.98074008 171.61878844 50.0239956 147.51954884 49.41870117 130.20483398 C48.48138951 103.80388871 45.89124178 82.15361518 25.9375 62.875 C20.01536838 57.76611885 12.96552828 54.45064379 6 51 C5.6596875 52.06347656 5.6596875 52.06347656 5.3125 53.1484375 C-2.43628286 69.98359075 -25.20200246 79.33466763 -41.375 85.35546875 C-47.1956568 87.45066858 -53.04362811 89.32983367 -59 91 C-60.62639404 91.46224976 -60.62639404 91.46224976 -62.28564453 91.93383789 C-71.08790267 94.36512884 -79.89197271 96.25526299 -88.88891602 97.81030273 C-91.06655609 98.18820388 -93.24120886 98.58076596 -95.41601562 98.97460938 C-104.27877811 100.5472708 -112.998045 101.56259674 -122 102 C-122.09796875 103.24910156 -122.1959375 104.49820313 -122.296875 105.78515625 C-123.95593261 125.61484483 -127.02289954 144.99328812 -133 164 C-133.28842773 164.91749023 -133.57685547 165.83498047 -133.87402344 166.78027344 C-134.79847617 169.691378 -135.73845182 172.59682583 -136.6875 175.5 C-136.98503174 176.41539551 -137.28256348 177.33079102 -137.58911133 178.27392578 C-137.87294678 179.12196777 -138.15678223 179.97000977 -138.44921875 180.84375 C-138.70018311 181.59849609 -138.95114746 182.35324219 -139.2097168 183.13085938 C-140 185 -140 185 -142 187 C-142.60802171 184.18828538 -143.21197939 181.37582024 -143.8125 178.5625 C-143.99554688 177.70954346 -144.17859375 176.85658691 -144.3671875 175.9777832 C-145.2678924 171.71793719 -146.11342241 167.46519113 -146.79296875 163.1640625 C-146.97412231 162.03182251 -146.97412231 162.03182251 -147.15893555 160.87670898 C-147.38022902 159.45628049 -147.58946571 158.03390116 -147.78442383 156.60961914 C-148.53004056 151.8540321 -150.19879134 148.86392401 -153 145 C-158.66826477 133.02862481 -158.38059593 118.66901023 -158.3125 105.6875 C-158.31067719 104.96355042 -158.30885437 104.23960083 -158.30697632 103.49371338 C-158.26138603 92.72995013 -157.8400755 82.44414861 -155 72 C-154.6596875 70.741875 -154.319375 69.48375 -153.96875 68.1875 C-149.87621122 54.69318293 -143.48735582 42.47122975 -134 32 C-133.26265625 31.16984375 -132.5253125 30.3396875 -131.765625 29.484375 C-100.78970921 -3.51611045 -42.19733777 -10.27361603 0 0 Z " fill="#6078B9" transform="translate(297,3)"/>
<path d="M0 0 C0.02578125 0.969375 0.0515625 1.93875 0.078125 2.9375 C0.46564289 13.09865397 2.20441237 22.22071798 5 32 C5.26941406 33.26714844 5.53882813 34.53429687 5.81640625 35.83984375 C6.20699219 36.88269531 6.59757812 37.92554688 7 39 C9.26937384 40.06005101 9.26937384 40.06005101 12 41 C14.04118158 42.07191212 16.06606843 43.17514979 18.078125 44.30078125 C18.64899841 44.61903366 19.21987183 44.93728607 19.80804443 45.2651825 C21.62361157 46.27815329 23.43684093 47.2952264 25.25 48.3125 C26.45166799 48.98400128 27.65348967 49.65522761 28.85546875 50.32617188 C31.17334138 51.62046451 33.4902408 52.91644664 35.80664062 54.21337891 C39.86611712 56.48457531 43.93175986 58.74454734 48 61 C49.31350717 89.56878086 43.76164221 119.1907116 24.5625 141.25 C23.05752012 142.84840984 21.53754343 144.43288843 20 146 C19.07960938 146.95712891 19.07960938 146.95712891 18.140625 147.93359375 C1.85451534 163.5585152 -21.54116898 165.72425652 -42.94921875 165.3046875 C-65.71933619 164.43430866 -82.89276455 156.05474645 -98.26953125 139.56640625 C-113.0274322 122.38177589 -118.79805769 98.11073043 -120 76 C-120.12375 74.76894531 -120.2475 73.53789062 -120.375 72.26953125 C-120.4575 71.04621094 -120.54 69.82289063 -120.625 68.5625 C-120.72039062 67.45003906 -120.81578125 66.33757812 -120.9140625 65.19140625 C-119.43932399 60.04242607 -115.50852569 58.50331854 -111 56 C-110.11763672 55.50040771 -109.23527344 55.00081543 -108.32617188 54.48608398 C-105.54509803 52.93996772 -102.74588604 51.43337573 -99.9375 49.9375 C-94.01073455 46.76925645 -88.16954823 43.59481348 -82.56079102 39.88500977 C-81 39 -81 39 -79 39 C-78.80664062 38.41992188 -78.61328125 37.83984375 -78.4140625 37.2421875 C-76.94270833 32.828125 -75.47135417 28.4140625 -74 24 C-72.93007812 23.87625 -71.86015625 23.7525 -70.7578125 23.625 C-48.15162374 20.69970072 -20.3445394 0 0 0 Z " fill="#F8C4B7" transform="translate(292,307)"/>
<path d="M0 0 C6.1726896 18.92540365 8.18407322 38.70449091 8.09765625 58.54296875 C8.09664917 59.65240845 8.09564209 60.76184814 8.09460449 61.90490723 C8.08942248 65.99911552 8.07546175 70.09330894 8.0625 74.1875 C8.041875 83.365625 8.02125 92.54375 8 102 C-19.06 102 -46.12 102 -74 102 C-74 74.2006034 -68.42258068 48.53814575 -48.2097168 28.19848633 C-42.01722812 22.34502062 -35.17683723 18.42597842 -27.6875 14.4375 C-25.37822567 13.18745437 -23.06962701 11.9361597 -20.76171875 10.68359375 C-19.08215088 9.77843018 -19.08215088 9.77843018 -17.36865234 8.85498047 C-12.96235589 6.4286114 -8.64799664 3.86558891 -4.33911133 1.26977539 C-2 0 -2 0 0 0 Z " fill="#F8C4B7" transform="translate(99,410)"/>
<path d="M0 0 C5.84622223 1.60315125 10.74201982 4.53207683 15.9375 7.5625 C17.32932495 8.36941284 17.32932495 8.36941284 18.74926758 9.19262695 C20.62408178 10.28172459 22.49739464 11.37341111 24.36914062 12.46777344 C26.69069706 13.81986032 29.02202222 15.15206259 31.359375 16.4765625 C51.08204407 27.77294199 64.18324134 44.58968641 70.28442383 66.50585938 C73.4830581 78.7216529 74 88.99609995 74 102 C46.94 102 19.88 102 -8 102 C-8.62773723 17.25547445 -8.62773723 17.25547445 0 0 Z " fill="#F8C4B7" transform="translate(413,410)"/>
<path d="M0 0 C4.83044308 4.83044308 4.88601054 12.5026008 5 19 C4.64849549 27.29290279 1.29227881 34.55845746 -2.07983398 42.01171875 C-6.24769218 51.34242489 -8.55201895 60.1913768 -5.28125 70.19921875 C-2.06707024 77.47268588 3.44079092 81.06274383 10.03515625 85.1652832 C23.13402658 93.33295726 34.21767999 104.336581 38.60546875 119.6796875 C39.76886675 126.52184997 39.85485603 133.57657394 37 140 C30.92826109 138.36803011 25.82292369 135.20555436 20.4375 132.0625 C19.50486328 131.52431641 18.57222656 130.98613281 17.61132812 130.43164062 C13.3860392 127.98922486 9.18101737 125.51753687 5 123 C5 125.31 5 127.62 5 130 C4.67 130 4.34 130 4 130 C4 127.03 4 124.06 4 121 C3.11715332 120.72760498 2.23430664 120.45520996 1.32470703 120.17456055 C-1.76001072 119.08478399 -4.36284834 117.82752501 -7.1953125 116.20703125 C-8.15332764 115.66272461 -9.11134277 115.11841797 -10.09838867 114.55761719 C-11.09717041 113.98172852 -12.09595215 113.40583984 -13.125 112.8125 C-15.18613523 111.62619317 -17.24733254 110.43999419 -19.30859375 109.25390625 C-20.2919873 108.68687988 -21.27538086 108.11985352 -22.28857422 107.53564453 C-24.51702901 106.2735357 -26.75465549 105.06625575 -29.03515625 103.90234375 C-34.62054753 100.97468512 -38.30793262 98.75214904 -40.33203125 92.59765625 C-40.55246094 91.74042969 -40.77289063 90.88320313 -41 90 C-41.29261719 89.04996094 -41.58523438 88.09992188 -41.88671875 87.12109375 C-43.93428412 79.42187735 -44.27988227 71.99738942 -44.3125 64.0625 C-44.31797852 63.07942871 -44.32345703 62.09635742 -44.32910156 61.08349609 C-44.27674978 55.79506318 -44.18431221 50.90062022 -42 46 C-39.2421875 43.8125 -39.2421875 43.8125 -35.875 42 C-18.86657108 32.28821035 -9.33450736 16.72516936 0 0 Z " fill="#6078B9" transform="translate(336,247)"/>
<path d="M0 0 C2.65640764 2.50151369 4.40223944 5.20154648 6.26025391 8.34399414 C15.05525278 23.19573014 28.03979296 39.34659765 45 45 C47.54002628 55.65172312 46.1965689 67.27477943 44.75 78 C44.64075195 78.85916016 44.53150391 79.71832031 44.41894531 80.60351562 C44.04986881 83.10471123 43.57176067 85.53753076 43 88 C42.82597656 88.7719873 42.65195313 89.54397461 42.47265625 90.33935547 C39.84268736 98.45364439 32.57416257 101.41106465 25.5 105.125 C24.26950848 105.79313872 23.04032857 106.46369889 21.8125 107.13671875 C19.3932055 108.45880749 16.97138873 109.77598067 14.54589844 111.08666992 C13.95933472 111.40397064 13.372771 111.72127136 12.76843262 112.04818726 C11.58616434 112.68451233 10.40164858 113.31667861 9.21496582 113.94473267 C7.52568823 114.84233416 5.84848735 115.76255181 4.171875 116.68359375 C2.7192627 117.46561157 2.7192627 117.46561157 1.23730469 118.26342773 C-1.18971268 119.83436555 -1.18971268 119.83436555 -1.95117188 122.52978516 C-2.22995797 124.77601757 -2.26460112 126.75597893 -2 129 C-2.33 129 -2.66 129 -3 129 C-3 126.36 -3 123.72 -3 121 C-6.66840645 123.05941666 -10.33439923 125.12309422 -14 127.1875 C-15.02996094 127.76564453 -16.05992187 128.34378906 -17.12109375 128.93945312 C-21.6995581 131.52030723 -26.22453059 134.11265804 -30.625 136.98828125 C-31.73875 137.65214844 -32.8525 138.31601562 -34 139 C-34.66 138.67 -35.32 138.34 -36 138 C-38.94095733 127.11845788 -37.02275506 116.87524723 -32 107 C-29.59668488 103.0850048 -26.9420074 99.52485793 -24 96 C-23.16082031 94.97326172 -23.16082031 94.97326172 -22.3046875 93.92578125 C-17.3763672 88.47810881 -11.3270008 84.789579 -5.07836914 81.03125 C2.13895644 76.60442719 6.40117086 71.99197017 8.55078125 63.6171875 C10.45706311 52.51102363 4.86670309 41.99654723 0.75 31.94921875 C-3.65969012 20.7466604 -3.59538871 11.45649283 0 0 Z " fill="#6077B9" transform="translate(174,249)"/>
<path d="M0 0 C0.5627411 11.15551471 0.5627411 11.15551471 -2.625 14.91796875 C-5.33332948 16.59656879 -8.04953365 17.78911497 -11 19 C-12.40899587 19.63613466 -13.81644186 20.27570887 -15.22265625 20.91796875 C-26.20764891 25.82958934 -37.45085626 29.65812011 -49 33 C-50.66675781 33.495 -50.66675781 33.495 -52.3671875 34 C-59.85349584 36.06518851 -67.25612601 36.66779239 -75 37 C-74.9278125 36.16082031 -74.855625 35.32164062 -74.78125 34.45703125 C-73.92004621 23.29726549 -73.89492098 12.18849062 -74 1 C-73.41734375 1.18175781 -72.8346875 1.36351562 -72.234375 1.55078125 C-69.49599755 2.39037811 -66.75000876 3.19931595 -64 4 C-63.04778564 4.28182129 -62.09557129 4.56364258 -61.11450195 4.85400391 C-53.71817869 6.892801 -46.84241911 7.47319854 -39.1875 7.375 C-38.05183594 7.36629883 -36.91617188 7.35759766 -35.74609375 7.34863281 C-24.08411328 7.14561318 -13.51331327 5.50834099 -2.7578125 0.76953125 C-1 0 -1 0 0 0 Z " fill="#F4A997" transform="translate(293,294)"/>
<path d="M0 0 C6.80873873 5.22466482 9.61294262 12.78716023 11 21 C11.97798647 34.8422701 9.69655564 48.80167741 0.55859375 59.72265625 C-2.98462816 63.03416883 -7.18725245 64.80488861 -12 65 C-19.99430199 62.50997151 -19.99430199 62.50997151 -22 59 C-21.84546882 56.52750118 -21.50092286 54.4087856 -21 52 C-20.86207031 51.11183594 -20.72414063 50.22367188 -20.58203125 49.30859375 C-19.35951091 41.62865826 -19.35951091 41.62865826 -17.5546875 38.47265625 C-15.18990596 33.1905186 -14.74660974 27.70713547 -14 22 C-11.89285714 5.89285714 -11.89285714 5.89285714 -7.125 1.125 C-4.47370386 -0.27862737 -2.97310216 -0.3313397 0 0 Z " fill="#F4A897" transform="translate(373,148)"/>
<path d="M0 0 C4.24107008 2.86402192 5.55795467 7.71897648 6.63085938 12.48217773 C7.28862756 16.22374819 7.86367479 19.96963446 8.41210938 23.72875977 C9.93459944 33.65374664 11.67487797 43.41822724 14.21289062 53.13891602 C14.85042748 56.01317435 15.19040402 58.36654057 14.91210938 61.29125977 C12.02969947 64.39539351 9.07357422 65.13120343 4.91210938 65.29125977 C-0.60435572 64.25416433 -4.29741017 61.85131621 -7.70898438 57.43579102 C-15.27459738 45.66944104 -17.99278037 32.06709592 -15.55273438 18.26391602 C-13.81907736 11.35770855 -11.83830055 4.76214395 -5.58789062 0.72875977 C-2.08789062 -0.70874023 -2.08789062 -0.70874023 0 0 Z " fill="#F4A897" transform="translate(144.087890625,147.708740234375)"/>
<path d="M0 0 C2.06873753 1.84146778 3.01529287 3.60536589 3.82421875 6.234375 C2.57763792 10.49352616 -0.20775226 12.53880504 -3.92578125 14.796875 C-14.1869919 19.16890116 -25.90278258 19.12337678 -36.46875 15.84375 C-40.3314392 14.19796191 -43.33626774 12.12022459 -45.92578125 8.796875 C-46.80078125 6.296875 -46.80078125 6.296875 -45.92578125 3.796875 C-35.90230696 -9.06712784 -12.68202026 -7.92304714 0 0 Z " fill="#F6AFA8" transform="translate(321.92578125,194.203125)"/>
<path d="M0 0 C1.4140625 1.1796875 1.4140625 1.1796875 3.0390625 3.8671875 C3.2265625 7.4296875 3.2265625 7.4296875 2.0390625 10.8671875 C-4.96237438 17.5001277 -15.59005725 18.39721644 -24.8125 18.15625 C-32.06405874 17.49047414 -38.26425059 15.42453703 -43.9609375 10.8671875 C-45.9609375 7.8671875 -45.9609375 7.8671875 -45.8984375 5.4296875 C-44.20738913 0.80748862 -40.74212894 -0.75616663 -36.4609375 -2.8203125 C-24.74532601 -7.21366681 -10.9041637 -6.29921807 0 0 Z " fill="#F6AFA8" transform="translate(230.9609375,194.1328125)"/>
<path d="M0 0 C21.12 0 42.24 0 64 0 C56.70523494 8.51055923 49.06457514 16.21899109 37.41015625 17.34765625 C21.93277348 17.70328043 12.80420589 12.45868473 1.43359375 2.41796875 C0.96050781 1.95003906 0.48742187 1.48210937 0 1 C0 0.67 0 0.34 0 0 Z " fill="#FEFEFE" transform="translate(223,245)"/>
<path d="M0 0 C3.74135841 1.33619943 4.7241416 3.54311 6.625 6.9375 C8.65103863 13.01561588 8.60407492 19.6824431 5.8125 25.5 C4.27183627 28.33930749 3.46055167 29.04713222 0.625 30.9375 C-1.3125 30.875 -1.3125 30.875 -3.375 29.9375 C-8.75477668 24.0965996 -8.70764257 19.08307317 -8.66796875 11.41015625 C-8.27850865 6.79375585 -7.2217539 4.53780641 -4.375 0.9375 C-2.375 -0.0625 -2.375 -0.0625 0 0 Z " fill="#30316D" transform="translate(215.375,156.0625)"/>
<path d="M0 0 C3.67176747 1.43288487 4.69898762 3.6057453 6.5625 7 C8.94203217 12.94883044 7.84981111 20.22726243 5.5625 26 C3.25 29 3.25 29 0.5625 31 C-2 31.3125 -2 31.3125 -4.4375 30 C-9.12689483 23.40949916 -9.28244594 16.90627986 -8.4375 9 C-7.26745467 4.30400728 -5.5078116 0 0 0 Z " fill="#30316D" transform="translate(296.4375,156)"/>
<path d="M0 0 C5.11202206 2.76642489 10.0061524 5.90126969 11.89453125 11.56640625 C11.19328125 11.37304688 10.49203125 11.1796875 9.76953125 10.98046875 C7.78689794 10.43632211 5.80239213 9.89896798 3.81640625 9.3671875 C1.5783246 8.75380951 -0.64313093 8.07947989 -2.85546875 7.37890625 C-13.61631691 4.76555741 -25.36690221 6.71321757 -36.10546875 8.56640625 C-36.10546875 6.25640625 -36.10546875 3.94640625 -36.10546875 1.56640625 C-34.83591575 0.91805971 -33.56477169 0.2728281 -32.29296875 -0.37109375 C-31.58527344 -0.73074219 -30.87757813 -1.09039062 -30.1484375 -1.4609375 C-20.69917376 -5.95972654 -9.23435924 -3.99662157 0 0 Z " fill="#667BB9" transform="translate(310.10546875,137.43359375)"/>
<path d="M0 0 C1 1 1 1 1.0625 4.5625 C1.041875 5.696875 1.02125 6.83125 1 8 C-4.69879518 7.07228916 -4.69879518 7.07228916 -7.1484375 6.484375 C-19.50606709 4.3852708 -31.26915416 5.90325299 -43 10 C-44.32872031 10.35127089 -45.66028539 10.69331834 -47 11 C-42.89329371 3.50079721 -35.8053153 -1.14056453 -27.64453125 -3.52734375 C-17.95643908 -5.25889346 -8.69531667 -4.81140856 0 0 Z " fill="#657AB9" transform="translate(235,138)"/>
<path d="M0 0 C1.9375 0.3125 1.9375 0.3125 4 1 C5 4 5 4 3.78515625 6.48046875 C3.21667969 7.37378906 2.64820313 8.26710937 2.0625 9.1875 C1.49660156 10.08855469 0.93070312 10.98960937 0.34765625 11.91796875 C-0.31943359 12.94857422 -0.31943359 12.94857422 -1 14 C1.64 14 4.28 14 7 14 C7.38218767 15.65614657 7.71395102 17.32457024 8 19 C7 20 7 20 4.71484375 20.09765625 C2.14322917 20.06510417 -0.42838542 20.03255208 -3 20 C-2.67 25.61 -2.34 31.22 -2 37 C-3.98 37.495 -3.98 37.495 -6 38 C-9.03936924 32.28598584 -9.15349944 28.35312001 -8 22 C-7.71769531 20.05867188 -7.71769531 20.05867188 -7.4296875 18.078125 C-7.2052062 16.65591994 -6.97862754 15.23404442 -6.75 13.8125 C-6.60473877 12.79651733 -6.60473877 12.79651733 -6.45654297 11.76000977 C-5.52803732 6.43644681 -3.61785153 3.80110872 0 0 Z " fill="#E8847C" transform="translate(365,161)"/>
<path d="M0 0 C1.65 0.33 3.3 0.66 5 1 C4.38441524 7.47829676 1.26379531 11.5835462 -2.28515625 16.87890625 C-4.01338872 20.02436808 -4.76271121 21.50474074 -4 25 C-2.27790727 26.680005 -2.27790727 26.680005 0 27.8125 C0.7425 28.23144531 1.485 28.65039062 2.25 29.08203125 C3.11625 29.53642578 3.11625 29.53642578 4 30 C3.505 32.475 3.505 32.475 3 35 C-2.39969319 34.86500767 -5.60935855 32.68383567 -9.3984375 29.0703125 C-11.64717061 26.1634136 -12.11954908 24.23926596 -11.80078125 20.6015625 C-10.02451454 14.83086187 -6.35562386 9.95323445 -3 5 C-1.98847997 3.34029973 -0.98397743 1.67617606 0 0 Z " fill="#E9857D" transform="translate(256,198)"/>
<path d="M0 0 C3.30748747 0.57025646 4.89168888 1.38091613 7 4 C7.81542969 6.5402832 7.81542969 6.5402832 8.421875 9.55078125 C8.64230469 10.64197266 8.86273438 11.73316406 9.08984375 12.85742188 C9.41662109 14.56768555 9.41662109 14.56768555 9.75 16.3125 C9.98332031 17.44107422 10.21664062 18.56964844 10.45703125 19.73242188 C12.89857599 32.15213601 12.89857599 32.15213601 9 38 C7.68 37.67 6.36 37.34 5 37 C5.33 31.39 5.66 25.78 6 20 C2.7 20 -0.6 20 -4 20 C-4.38218767 18.34385343 -4.71395102 16.67542976 -5 15 C-4 14 -4 14 -2.15234375 13.90234375 C-0.1015625 13.93489583 1.94921875 13.96744792 4 14 C3.54367188 13.32453125 3.08734375 12.6490625 2.6171875 11.953125 C2.04226562 11.06109375 1.46734375 10.1690625 0.875 9.25 C0.29492188 8.36828125 -0.28515625 7.4865625 -0.8828125 6.578125 C-2 4 -2 4 -1.1796875 1.671875 C-0.79039062 1.12015625 -0.40109375 0.5684375 0 0 Z " fill="#E8847C" transform="translate(144,161)"/>
</svg>
